{"glyphs":{"0":{"ha":956,"x_min":136,"x_max":821,"o":"m 271 326 q 320 178 271 235 q 478 109 380 109 q 636 178 576 109 q 685 326 685 235 l 685 699 q 636 846 685 789 q 478 916 576 916 q 320 846 380 916 q 271 699 271 789 l 271 326 m 136 326 l 136 699 q 227 939 136 846 q 478 1038 323 1038 q 729 939 633 1038 q 821 699 821 846 l 821 326 q 729 85 821 178 q 478 -14 633 -14 q 227 85 323 -14 q 136 326 136 178 z "},"1":{"ha":484,"x_min":14,"x_max":315,"o":"m 179 -27 l 179 863 l 14 772 l 14 911 l 308 1051 l 315 1051 l 315 34 l 186 -27 l 179 -27 z "},"2":{"ha":904,"x_min":102,"x_max":795,"o":"m 102 0 l 102 7 l 157 123 l 481 438 q 654 707 654 597 q 609 846 654 791 q 451 916 551 916 q 293 846 356 916 q 244 710 244 791 q 271 620 244 665 l 157 565 l 150 565 q 109 726 109 638 q 200 939 109 842 q 451 1038 293 1038 q 702 939 609 1038 q 793 703 793 843 q 610 382 792 551 l 320 123 l 795 123 l 795 117 l 741 0 l 102 0 z "},"3":{"ha":902,"x_min":109,"x_max":793,"o":"m 109 326 l 238 387 l 245 387 l 245 326 q 294 178 245 236 q 452 109 353 109 q 610 178 549 109 q 658 319 658 233 q 618 446 658 399 q 450 509 562 509 q 300 479 357 509 l 524 901 l 169 901 l 169 907 l 224 1024 l 734 1024 l 502 617 q 701 546 621 616 q 793 320 793 465 q 703 85 793 182 q 452 -14 610 -14 q 201 85 294 -14 q 109 326 109 182 z "},"4":{"ha":806,"x_min":3,"x_max":738,"o":"m 500 366 l 500 804 l 205 366 l 500 366 m 500 -27 l 500 243 l 3 243 l 3 250 l 58 366 l 500 990 l 629 1051 l 636 1051 l 636 366 l 738 366 l 738 359 l 683 243 l 636 243 l 636 34 l 507 -27 l 500 -27 z "},"5":{"ha":902,"x_min":109,"x_max":793,"o":"m 109 326 q 238 387 109 326 l 245 387 l 245 326 q 294 178 245 236 q 452 109 353 109 q 610 178 549 109 q 658 319 658 233 q 613 446 658 393 q 450 509 557 509 q 300 479 357 509 l 158 548 l 271 1024 l 741 1024 l 741 1017 l 686 901 l 374 901 l 292 598 q 450 635 367 635 q 697 554 604 635 q 793 320 793 471 q 703 85 793 182 q 452 -14 610 -14 q 201 85 294 -14 q 109 326 109 182 z "},"6":{"ha":956,"x_min":136,"x_max":821,"o":"m 803 758 l 678 699 l 671 699 q 623 846 671 789 q 479 916 562 916 q 320 846 380 916 q 271 699 271 789 l 271 572 q 478 652 359 652 q 729 554 636 652 q 821 320 821 457 q 729 85 821 182 q 478 -14 636 -14 q 227 85 320 -14 q 136 319 136 182 l 136 699 q 227 939 136 842 q 478 1038 320 1038 q 715 946 628 1038 q 803 758 803 855 m 478 530 q 320 460 381 530 q 271 319 271 404 q 320 178 271 235 q 478 109 380 109 q 636 178 574 109 q 685 319 685 233 q 636 460 685 404 q 478 530 576 530 z "},"7":{"ha":710,"x_min":34,"x_max":676,"o":"m 311 -27 l 304 -27 l 182 31 l 492 901 l 34 901 l 34 907 l 89 1024 l 676 1024 l 676 1017 l 311 -27 z "},"8":{"ha":901,"x_min":109,"x_max":792,"o":"m 109 320 q 212 549 109 453 q 263 585 233 570 q 169 768 169 661 q 253 972 169 903 q 450 1038 333 1038 q 648 972 568 1038 q 732 768 732 904 q 637 585 732 661 q 689 549 667 570 q 792 320 792 453 q 701 85 792 182 q 450 -14 608 -14 q 199 85 292 -14 q 109 320 109 182 m 292 178 q 450 109 353 109 q 608 178 547 109 q 656 319 656 233 q 617 446 656 399 q 450 509 563 509 q 283 446 338 509 q 244 319 244 399 q 292 178 244 233 m 556 889 q 536 910 556 889 q 450 930 516 930 q 345 889 385 930 q 304 778 304 848 q 335 677 304 711 q 450 631 376 631 q 566 677 525 631 q 596 778 596 711 q 556 889 596 848 z "},"9":{"ha":956,"x_min":136,"x_max":821,"o":"m 140 266 l 264 326 l 271 326 q 320 178 271 235 q 477 109 381 109 q 636 178 576 109 q 685 326 685 235 l 685 452 q 478 372 600 372 q 227 470 320 372 q 136 704 136 567 q 227 939 136 842 q 478 1038 320 1038 q 729 939 636 1038 q 821 705 821 842 l 821 326 q 729 85 821 182 q 478 -14 636 -14 q 227 78 315 -14 q 140 266 140 169 m 478 494 q 636 564 575 494 q 685 705 685 620 q 636 846 685 789 q 478 916 576 916 q 320 846 382 916 q 271 705 271 791 q 320 564 271 621 q 478 494 380 494 z "}," ":{"ha":543,"x_min":0,"x_max":0,"o":""},"!":{"ha":407,"x_min":122,"x_max":285,"o":"m 146 11 q 134 23 146 11 q 122 70 122 35 q 146 128 122 104 q 203 153 170 153 q 261 128 237 153 q 285 70 285 104 q 261 11 285 35 q 203 -14 237 -14 q 146 11 170 -14 m 264 1051 l 271 1051 l 271 346 l 142 285 l 136 285 l 136 990 l 264 1051 z "},"\"":{"ha":507,"x_min":102,"x_max":405,"o":"m 398 1051 l 405 1051 l 405 723 l 299 673 l 292 673 l 292 1001 l 398 1051 m 208 1051 l 214 1051 l 214 723 l 109 673 l 102 673 l 102 1001 l 208 1051 z "},"#":{"ha":928,"x_min":102,"x_max":826,"o":"m 311 151 l 304 151 l 304 353 l 102 353 l 102 359 l 157 476 l 304 476 l 304 549 l 102 549 l 102 556 l 157 673 l 304 673 l 304 820 l 420 875 l 427 875 l 427 673 l 500 673 l 500 820 l 617 875 l 624 875 l 624 673 l 826 673 l 826 666 l 771 549 l 624 549 l 624 476 l 826 476 l 826 469 l 771 353 l 624 353 l 624 205 l 507 151 l 500 151 l 500 353 l 427 353 l 427 205 l 311 151 m 427 476 l 500 476 l 500 549 l 427 549 l 427 476 z "},"$":{"ha":901,"x_min":109,"x_max":793,"o":"m 109 312 l 237 373 l 244 373 l 244 317 q 293 178 244 235 q 412 112 340 123 l 412 511 q 237 591 313 523 q 170 768 170 652 q 254 972 170 905 q 412 1036 320 1026 l 412 1153 l 484 1187 l 490 1187 l 490 1036 q 648 972 582 1026 q 732 785 732 905 l 604 724 l 597 724 l 597 778 q 553 893 597 854 q 490 926 525 918 l 490 630 q 702 554 626 622 q 793 320 793 473 q 702 85 793 181 q 490 -12 621 -1 l 490 -129 l 418 -163 l 412 -163 l 412 -12 q 200 85 281 -1 q 109 312 109 182 m 412 635 l 412 926 q 345 889 372 918 q 305 778 305 847 q 336 677 305 711 q 412 635 365 644 m 490 507 l 490 112 q 609 178 561 123 q 657 319 657 233 q 618 446 657 399 q 490 507 574 498 z "},"%":{"ha":1454,"x_min":102,"x_max":1352,"o":"m 789 258 q 873 452 789 370 q 1071 529 952 529 q 1268 452 1188 529 q 1352 258 1352 371 q 1268 63 1352 146 q 1071 -14 1190 -14 q 873 63 954 -14 q 789 258 789 144 m 1174 143 q 1195 162 1174 143 q 1217 258 1217 180 q 1174 372 1217 336 q 1071 408 1132 408 q 967 372 1010 408 q 925 258 925 336 q 967 143 925 180 q 1071 107 1010 107 q 1174 143 1132 107 m 102 766 q 186 961 102 878 q 383 1038 264 1038 q 581 961 500 1038 q 665 766 665 880 q 581 572 665 654 q 383 495 502 495 q 186 572 266 495 q 102 766 102 653 m 487 652 q 508 670 487 652 q 529 766 529 688 q 487 881 529 844 q 383 917 444 917 q 280 881 322 917 q 237 766 237 844 q 280 652 237 688 q 383 616 322 616 q 487 652 444 616 m 534 -27 l 439 19 l 920 1051 l 926 1051 l 1022 1005 l 541 -27 l 534 -27 z "},"&":{"ha":1166,"x_min":109,"x_max":1074,"o":"m 109 317 q 209 543 109 454 q 264 583 240 571 q 170 771 170 662 q 254 972 170 904 q 451 1038 334 1038 q 648 972 571 1038 q 732 771 732 902 l 604 710 l 597 710 l 597 777 q 553 893 597 853 q 451 930 511 930 q 345 889 385 930 q 305 771 305 848 q 336 677 305 709 q 443 626 378 632 q 563 620 508 620 l 768 375 l 951 566 l 958 566 l 1074 510 l 846 279 l 1058 28 l 940 -27 l 933 -27 l 750 193 l 519 -27 q 188 83 273 -27 q 109 317 109 186 m 674 290 l 481 521 q 312 465 390 519 q 244 308 244 417 q 293 165 244 225 q 430 102 343 102 q 674 290 521 102 z "},"'":{"ha":316,"x_min":102,"x_max":214,"o":"m 208 1051 l 214 1051 l 214 723 l 109 673 l 102 673 l 102 1001 l 208 1051 z "},"(":{"ha":512,"x_min":136,"x_max":478,"o":"m 478 -163 q 227 -64 323 -163 q 136 176 136 29 l 136 848 q 227 1088 136 995 q 478 1187 323 1187 l 478 1065 q 320 995 379 1064 q 271 848 271 937 l 271 176 q 320 29 271 87 q 478 -41 379 -40 l 478 -163 z "},")":{"ha":512,"x_min":34,"x_max":376,"o":"m 34 -163 q 34 -41 34 -163 q 192 29 133 -40 q 241 176 241 87 l 241 848 q 192 995 241 937 q 34 1065 133 1064 l 34 1187 q 285 1088 189 1187 q 376 848 376 995 l 376 176 q 285 -64 376 29 q 34 -163 189 -163 z "},"*":{"ha":802,"x_min":102,"x_max":701,"o":"m 463 1051 l 463 835 l 591 922 l 697 848 l 701 843 l 511 741 l 701 640 l 697 634 l 591 560 l 463 648 l 463 486 l 346 431 l 339 431 l 339 648 l 211 560 l 105 634 l 102 640 l 291 741 l 102 843 l 105 848 l 211 922 l 339 835 l 339 996 l 456 1051 l 463 1051 z "},"+":{"ha":823,"x_min":102,"x_max":722,"o":"m 473 822 l 473 574 l 722 574 l 722 567 l 667 450 l 473 450 l 473 257 l 357 202 l 350 202 l 350 450 l 102 450 l 102 457 l 157 574 l 350 574 l 350 767 l 467 822 l 473 822 z "},",":{"ha":413,"x_min":102,"x_max":311,"o":"m 231 189 l 237 189 q 311 23 311 116 q 145 -194 311 -106 l 116 -160 q 193 -14 193 -82 q 102 127 193 68 l 231 189 z "},"-":{"ha":823,"x_min":102,"x_max":722,"o":"m 102 450 l 102 457 l 157 574 l 722 574 l 722 567 l 667 450 l 102 450 z "},".":{"ha":407,"x_min":122,"x_max":285,"o":"m 146 11 q 134 23 146 11 q 122 70 122 35 q 146 128 122 104 q 203 153 170 153 q 261 128 237 153 q 285 70 285 104 q 261 11 285 35 q 203 -14 237 -14 q 146 11 170 -14 z "},"/":{"ha":661,"x_min":7,"x_max":654,"o":"m 102 -95 l 7 -49 l 551 1119 l 557 1119 l 654 1073 l 109 -95 l 102 -95 z "},":":{"ha":407,"x_min":122,"x_max":285,"o":"m 146 452 q 134 465 146 452 q 122 511 122 477 q 146 570 122 545 q 203 594 170 594 q 261 570 237 594 q 285 511 285 545 q 261 452 285 477 q 203 428 237 428 q 146 452 170 428 m 146 11 q 134 23 146 11 q 122 70 122 35 q 146 128 122 104 q 203 153 170 153 q 261 128 237 153 q 285 70 285 104 q 261 11 285 35 q 203 -14 237 -14 q 146 11 170 -14 z "},";":{"ha":407,"x_min":96,"x_max":305,"o":"m 139 -194 q 110 -160 139 -194 q 186 -14 186 -82 q 96 127 186 68 q 224 189 96 127 l 231 189 q 305 23 305 116 q 139 -194 305 -106 m 146 452 q 134 465 146 452 q 122 511 122 477 q 146 570 122 545 q 203 594 170 594 q 261 570 237 594 q 285 511 285 545 q 261 452 285 477 q 203 428 237 428 q 146 452 170 428 z "},"<":{"ha":907,"x_min":102,"x_max":772,"o":"m 102 450 l 102 457 l 157 574 l 716 812 l 772 695 l 772 688 l 308 500 l 772 313 l 772 306 l 716 189 l 102 450 z "},"=":{"ha":823,"x_min":102,"x_max":722,"o":"m 102 574 l 102 581 l 157 697 l 722 697 l 722 690 l 667 574 l 102 574 m 102 327 l 102 334 l 157 450 l 722 450 l 722 444 l 667 327 l 102 327 z "},">":{"ha":907,"x_min":136,"x_max":806,"o":"m 806 551 l 806 544 l 750 427 l 191 189 l 136 306 l 136 313 l 600 500 l 136 688 l 136 695 l 191 812 l 806 551 z "},"?":{"ha":882,"x_min":102,"x_max":780,"o":"m 380 11 q 368 23 380 11 q 356 70 356 35 q 380 128 356 104 q 437 153 404 153 q 495 128 471 153 q 519 70 519 104 q 495 11 519 35 q 437 -14 471 -14 q 380 11 404 -14 m 143 565 q 102 726 102 638 q 193 939 102 842 q 444 1038 286 1038 q 695 939 604 1038 q 780 712 780 848 q 557 401 780 551 q 496 308 498 361 l 365 245 l 358 245 q 477 490 359 414 q 646 713 646 597 q 602 846 646 793 q 444 916 545 916 q 286 846 349 916 q 237 710 237 791 q 264 620 237 665 l 150 565 l 143 565 z "},"@":{"ha":929,"x_min":122,"x_max":807,"o":"m 671 349 q 511 311 554 348 q 467 215 467 274 q 511 117 467 157 q 671 80 553 80 l 671 349 m 678 -27 l 613 -27 q 414 34 479 -18 q 332 203 332 100 q 416 389 332 322 q 613 454 487 445 l 669 454 q 623 568 662 522 q 465 637 562 637 q 307 568 367 637 q 258 420 258 511 l 258 47 q 307 -100 258 -43 q 465 -170 367 -170 l 465 -292 q 214 -193 310 -292 q 122 47 122 -100 l 122 420 q 214 661 122 568 q 465 760 310 760 q 715 661 619 760 q 807 420 807 568 l 807 34 l 678 -27 z "},"A":{"ha":956,"x_min":136,"x_max":821,"o":"m 136 -27 l 136 699 q 227 939 136 845 q 478 1038 323 1038 q 729 939 630 1038 q 821 699 821 848 l 821 34 l 692 -27 l 685 -27 l 685 450 l 271 450 l 271 34 l 142 -27 l 136 -27 m 271 574 l 685 574 l 685 699 q 636 846 685 789 q 478 916 576 916 q 320 846 380 916 q 271 699 271 789 l 271 574 z "},"B":{"ha":929,"x_min":136,"x_max":807,"o":"m 271 122 l 465 122 q 627 186 567 122 q 671 310 671 233 q 625 444 671 389 q 465 506 574 506 l 271 506 l 271 122 m 271 628 l 465 628 q 574 672 532 628 q 610 774 610 711 q 566 867 610 826 q 465 902 527 902 l 271 902 l 271 628 m 136 0 l 136 990 l 208 1024 l 465 1024 q 655 962 579 1024 q 745 774 745 888 q 642 580 745 657 q 708 537 675 566 q 807 313 807 447 q 720 93 807 179 q 465 0 627 0 l 136 0 z "},"C":{"ha":956,"x_min":136,"x_max":821,"o":"m 821 373 l 821 326 q 729 85 821 178 q 478 -14 633 -14 q 227 85 323 -14 q 136 326 136 178 l 136 699 q 227 939 136 846 q 478 1038 323 1038 q 729 939 638 1038 q 821 712 821 841 l 692 651 l 685 651 l 685 699 q 636 846 685 789 q 478 916 576 916 q 320 846 380 916 q 271 699 271 789 l 271 326 q 320 178 271 235 q 478 109 380 109 q 636 178 576 109 q 685 312 685 235 l 814 373 l 821 373 z "},"D":{"ha":943,"x_min":136,"x_max":807,"o":"m 136 0 l 136 990 l 208 1024 l 465 1024 q 715 926 619 1024 q 807 685 807 833 l 807 339 q 715 98 807 192 q 465 0 619 0 l 136 0 m 271 122 l 465 122 q 623 192 562 122 q 671 339 671 248 l 671 685 q 623 832 671 776 q 465 902 562 902 l 271 902 l 271 122 z "},"E":{"ha":785,"x_min":136,"x_max":751,"o":"m 136 0 l 136 990 l 208 1024 l 637 1024 l 637 1017 l 583 901 l 271 901 l 271 574 l 637 574 l 637 567 l 583 450 l 271 450 l 271 123 l 751 123 l 751 117 l 696 0 l 136 0 z "},"F":{"ha":760,"x_min":136,"x_max":637,"o":"m 136 -27 l 136 990 l 208 1024 l 637 1024 l 637 1017 l 583 901 l 271 901 l 271 574 l 637 574 l 637 567 l 583 450 l 271 450 l 271 34 l 142 -27 l 136 -27 z "},"G":{"ha":956,"x_min":136,"x_max":821,"o":"m 821 574 l 821 326 q 729 85 821 178 q 478 -14 633 -14 q 227 85 323 -14 q 136 326 136 178 l 136 699 q 227 939 136 846 q 478 1038 323 1038 q 729 939 638 1038 q 821 712 821 841 l 692 651 l 685 651 l 685 699 q 636 846 685 789 q 478 916 576 916 q 320 846 380 916 q 271 699 271 789 l 271 326 q 320 178 271 235 q 478 109 380 109 q 636 178 576 109 q 685 312 685 235 l 685 450 l 449 450 l 449 457 l 504 574 l 821 574 z "},"H":{"ha":943,"x_min":136,"x_max":807,"o":"m 136 -27 l 136 990 l 264 1051 l 271 1051 l 271 574 l 671 574 l 671 990 l 800 1051 l 807 1051 l 807 34 l 678 -27 l 671 -27 l 671 450 l 271 450 l 271 34 l 142 -27 l 136 -27 z "},"I":{"ha":407,"x_min":136,"x_max":271,"o":"m 136 -27 l 136 990 l 264 1051 l 271 1051 l 271 34 l 142 -27 l 136 -27 z "},"J":{"ha":875,"x_min":54,"x_max":739,"o":"m 54 312 l 183 373 l 190 373 l 190 326 q 239 178 190 235 q 397 109 299 109 q 555 178 494 109 q 604 326 604 235 l 604 901 l 215 901 l 215 907 l 270 1024 l 739 1024 l 739 326 q 648 85 739 179 q 397 -14 551 -14 q 146 85 244 -14 q 54 312 54 176 z "},"K":{"ha":922,"x_min":136,"x_max":800,"o":"m 136 -27 l 136 990 l 264 1051 l 271 1051 l 271 541 l 640 1051 l 646 1051 l 766 995 l 463 592 q 709 501 619 589 q 800 260 800 412 l 800 34 l 671 -27 l 665 -27 l 665 260 q 616 408 665 351 q 468 477 555 477 q 320 408 379 477 q 271 260 271 350 l 271 34 l 142 -27 l 136 -27 z "},"L":{"ha":739,"x_min":136,"x_max":736,"o":"m 136 0 l 136 990 l 264 1051 l 271 1051 l 271 123 l 736 123 l 736 117 l 681 0 l 136 0 z "},"M":{"ha":1506,"x_min":136,"x_max":1370,"o":"m 136 -27 l 136 699 q 227 939 136 845 q 478 1038 323 1038 q 716 939 618 1038 q 753 892 741 915 q 791 937 768 916 q 1027 1038 893 1038 q 1278 939 1179 1038 q 1370 699 1370 848 l 1370 34 l 1241 -27 l 1234 -27 l 1234 699 q 1185 846 1234 789 q 1027 916 1125 916 q 869 846 930 916 q 821 699 821 789 l 821 34 l 692 -27 l 685 -27 l 685 699 q 636 846 685 789 q 478 916 576 916 q 320 846 380 916 q 271 699 271 789 l 271 34 l 142 -27 l 136 -27 z "},"N":{"ha":956,"x_min":136,"x_max":821,"o":"m 136 -27 l 136 699 q 227 939 136 845 q 478 1038 323 1038 q 729 939 631 1038 q 821 699 821 848 l 821 34 l 692 -27 l 685 -27 l 685 699 q 636 846 685 789 q 478 916 576 916 q 320 846 380 916 q 271 699 271 789 l 271 34 l 142 -27 l 136 -27 z "},"O":{"ha":956,"x_min":136,"x_max":821,"o":"m 271 326 q 320 178 271 235 q 478 109 380 109 q 636 178 576 109 q 685 326 685 235 l 685 699 q 636 846 685 789 q 478 916 576 916 q 320 846 380 916 q 271 699 271 789 l 271 326 m 136 326 l 136 699 q 227 939 136 846 q 478 1038 323 1038 q 729 939 633 1038 q 821 699 821 846 l 821 326 q 729 85 821 178 q 478 -14 633 -14 q 227 85 323 -14 q 136 326 136 178 z "},"P":{"ha":909,"x_min":136,"x_max":807,"o":"m 271 468 l 465 468 q 623 538 553 468 q 671 685 671 587 q 623 832 671 776 q 465 902 562 902 l 271 902 l 271 468 m 136 -27 l 136 990 l 208 1024 l 465 1024 q 715 926 619 1024 q 807 685 807 832 q 715 444 807 537 q 465 346 618 346 l 271 346 l 271 34 l 142 -27 l 136 -27 z "},"Q":{"ha":956,"x_min":136,"x_max":821,"o":"m 136 326 l 136 699 q 227 939 136 846 q 478 1038 323 1038 q 729 939 633 1038 q 821 699 821 846 l 821 326 q 741 98 821 189 l 789 29 l 669 -27 l 663 -27 l 632 17 q 478 -14 564 -14 q 227 85 323 -14 q 136 326 136 178 m 271 326 q 320 178 271 235 q 478 109 380 109 q 558 123 522 109 l 428 309 l 547 365 l 554 365 l 660 214 q 685 326 685 260 l 685 699 q 636 846 685 789 q 478 916 576 916 q 320 846 380 916 q 271 699 271 789 l 271 326 z "},"R":{"ha":925,"x_min":136,"x_max":823,"o":"m 136 -27 l 136 990 l 208 1024 l 465 1024 q 715 926 619 1024 q 807 685 807 832 q 715 444 807 537 q 589 365 661 389 l 823 29 l 704 -27 l 697 -27 l 436 346 l 271 346 l 271 34 l 142 -27 l 136 -27 m 271 468 l 465 468 q 623 538 553 468 q 671 685 671 587 q 623 832 671 776 q 465 902 562 902 l 271 902 l 271 468 z "},"S":{"ha":902,"x_min":109,"x_max":793,"o":"m 793 320 q 702 85 793 182 q 451 -14 609 -14 q 200 85 293 -14 q 109 312 109 182 l 237 373 l 244 373 l 244 317 q 293 178 244 235 q 451 109 353 109 q 609 178 548 109 q 657 319 657 233 q 618 446 657 399 q 451 509 564 509 q 237 591 328 509 q 170 768 170 652 q 254 972 170 904 q 451 1038 334 1038 q 648 972 568 1038 q 732 785 732 904 l 604 724 l 597 724 l 597 778 q 553 893 597 855 q 451 930 510 930 q 345 889 385 930 q 305 778 305 848 q 336 677 305 711 q 451 631 376 631 q 702 554 615 631 q 793 320 793 473 z "},"T":{"ha":723,"x_min":3,"x_max":720,"o":"m 294 -27 l 294 901 l 3 901 l 3 907 l 58 1024 l 720 1024 l 720 1017 l 665 901 l 429 901 l 429 34 l 300 -27 l 294 -27 z "},"U":{"ha":956,"x_min":136,"x_max":821,"o":"m 821 1051 l 821 326 q 729 85 821 179 q 478 -14 633 -14 q 227 85 326 -14 q 136 326 136 176 l 136 990 l 264 1051 l 271 1051 l 271 326 q 320 178 271 235 q 478 109 380 109 q 636 178 576 109 q 685 326 685 235 l 685 990 l 814 1051 l 821 1051 z "},"V":{"ha":801,"x_min":3,"x_max":798,"o":"m 349 -27 l 3 996 l 121 1051 l 127 1051 l 408 199 l 673 1051 l 680 1051 l 798 996 l 473 28 l 356 -27 l 349 -27 z "},"W":{"ha":1506,"x_min":136,"x_max":1370,"o":"m 1370 1051 l 1370 326 q 1278 85 1370 179 q 1027 -14 1182 -14 q 789 85 888 -14 q 753 132 765 109 q 715 87 737 109 q 478 -14 612 -14 q 227 85 326 -14 q 136 326 136 176 l 136 990 l 264 1051 l 271 1051 l 271 326 q 320 178 271 235 q 478 109 380 109 q 636 178 576 109 q 685 326 685 235 l 685 990 l 814 1051 l 821 1051 l 821 326 q 869 178 821 235 q 1027 109 930 109 q 1185 178 1125 109 q 1234 326 1234 235 l 1234 990 l 1363 1051 l 1370 1051 z "},"X":{"ha":867,"x_min":68,"x_max":799,"o":"m 186 -27 l 68 28 l 354 512 l 68 995 l 186 1051 l 193 1051 l 433 632 l 673 1051 l 680 1051 l 799 995 l 513 512 l 799 28 l 681 -27 l 674 -27 l 433 392 l 193 -27 l 186 -27 z "},"Y":{"ha":888,"x_min":102,"x_max":787,"o":"m 376 -27 l 376 328 q 193 421 270 346 q 102 662 102 511 l 102 990 l 231 1051 l 237 1051 l 237 662 q 286 515 237 571 q 444 445 347 445 q 602 515 547 445 q 651 662 651 577 l 651 990 l 780 1051 l 787 1051 l 787 662 q 695 421 787 515 q 512 328 621 345 l 512 34 l 383 -27 l 376 -27 z "},"Z":{"ha":859,"x_min":102,"x_max":758,"o":"m 102 0 l 102 7 l 541 901 l 109 901 l 109 907 l 163 1024 l 751 1024 l 751 1017 l 310 123 l 758 123 l 758 117 l 703 0 l 102 0 z "},"[":{"ha":586,"x_min":136,"x_max":552,"o":"m 136 -163 l 136 1126 l 264 1187 l 552 1187 l 552 1180 l 511 1092 l 271 1092 l 271 -68 l 552 -68 l 552 -75 l 511 -163 l 136 -163 z "},"\\":{"ha":661,"x_min":7,"x_max":654,"o":"m 551 -95 l 7 1073 l 102 1119 l 109 1119 l 654 -49 l 557 -95 l 551 -95 z "},"]":{"ha":586,"x_min":34,"x_max":450,"o":"m 34 -163 l 34 -156 l 75 -68 l 315 -68 l 315 1092 l 34 1092 l 34 1099 l 75 1187 l 450 1187 l 450 -102 l 321 -163 l 34 -163 z "},"^":{"ha":896,"x_min":102,"x_max":794,"o":"m 102 738 l 358 996 l 475 1051 l 482 1051 l 794 738 l 677 682 l 670 682 l 447 901 l 226 682 l 219 682 l 102 738 z "},"_":{"ha":823,"x_min":102,"x_max":722,"o":"m 102 -278 l 102 -271 l 157 -155 l 722 -155 l 722 -161 l 667 -278 l 102 -278 z "},"`":{"ha":439,"x_min":102,"x_max":338,"o":"m 221 1051 l 228 1051 l 338 817 l 258 780 l 252 780 l 102 994 l 221 1051 z "},"a":{"ha":719,"x_min":68,"x_max":617,"o":"m 617 34 l 488 -27 l 481 -27 l 481 44 q 336 -14 427 -14 q 138 63 209 -14 q 68 244 68 140 q 144 429 68 353 q 336 502 218 502 q 481 444 419 502 q 439 602 481 564 q 336 639 399 639 l 171 639 l 171 646 l 225 760 l 336 760 q 533 683 454 760 q 617 488 617 601 l 617 34 m 201 244 q 237 144 201 184 q 336 106 273 106 q 439 145 403 106 q 480 243 480 189 q 438 342 480 304 q 337 380 396 380 q 238 340 275 380 q 201 244 201 300 z "},"b":{"ha":800,"x_min":136,"x_max":699,"o":"m 136 258 l 136 990 l 264 1051 l 271 1051 l 271 702 q 417 760 323 760 q 614 683 534 760 q 699 488 699 602 l 699 258 q 614 63 699 146 q 417 -14 536 -14 q 220 63 300 -14 q 136 258 136 144 m 271 258 q 314 143 271 180 q 417 107 356 107 q 520 143 478 107 q 563 258 563 180 l 563 488 q 520 603 563 566 q 417 639 478 639 q 314 603 356 639 q 271 488 271 566 l 271 258 z "},"c":{"ha":766,"x_min":102,"x_max":665,"o":"m 665 300 l 665 258 q 581 63 665 146 q 383 -14 502 -14 q 186 63 266 -14 q 102 258 102 144 l 102 488 q 186 683 102 601 q 383 760 264 760 q 581 683 499 760 q 665 508 665 604 l 665 507 l 536 446 l 529 446 l 529 488 q 487 603 529 566 q 383 639 444 639 q 280 603 322 639 q 237 488 237 566 l 237 258 q 280 143 237 180 q 383 107 322 107 q 487 144 444 107 q 529 239 529 180 l 658 300 l 665 300 z "},"d":{"ha":800,"x_min":102,"x_max":665,"o":"m 237 258 q 280 143 237 180 q 383 107 322 107 q 487 143 444 107 q 529 258 529 180 l 529 488 q 487 603 529 566 q 383 639 444 639 q 280 603 322 639 q 237 488 237 566 l 237 258 m 102 258 l 102 488 q 186 683 102 600 q 383 760 264 760 q 529 702 473 760 l 529 990 l 658 1051 l 665 1051 l 665 258 q 581 63 665 146 q 383 -14 502 -14 q 186 63 266 -14 q 102 258 102 144 z "},"e":{"ha":766,"x_min":102,"x_max":665,"o":"m 665 300 l 665 258 q 581 63 665 146 q 383 -14 502 -14 q 186 63 266 -14 q 102 258 102 144 l 102 488 q 186 683 102 600 q 383 760 264 760 q 581 683 498 760 q 665 508 665 604 l 665 507 l 251 182 q 279 144 261 159 q 383 107 322 107 q 487 144 444 107 q 529 239 529 180 l 658 300 l 665 300 m 237 319 l 521 549 q 487 602 510 583 q 383 639 444 639 q 280 603 322 639 q 237 488 237 566 l 237 319 z "},"f":{"ha":576,"x_min":34,"x_max":509,"o":"m 136 -27 l 136 555 l 34 555 l 34 562 l 89 678 l 136 678 l 136 766 q 220 961 136 878 q 417 1038 298 1038 l 509 1038 l 509 1031 l 454 917 l 417 917 q 313 880 356 917 q 271 766 271 844 l 271 678 l 496 678 l 496 671 l 441 555 l 271 555 l 271 34 l 142 -27 l 136 -27 z "},"g":{"ha":787,"x_min":102,"x_max":665,"o":"m 237 258 q 280 143 237 180 q 383 107 322 107 q 487 143 444 107 q 529 258 529 180 l 529 488 q 487 603 529 566 q 383 639 444 639 q 280 603 322 639 q 237 488 237 566 l 237 258 m 102 258 l 102 488 q 186 683 102 600 q 383 760 264 760 q 581 683 502 760 q 665 488 665 601 l 665 -20 q 581 -215 665 -132 q 383 -292 502 -292 l 174 -292 l 174 -285 l 229 -171 l 383 -171 q 487 -135 444 -171 q 529 -20 529 -98 l 529 44 q 383 -14 477 -14 q 186 63 266 -14 q 102 258 102 144 z "},"h":{"ha":800,"x_min":136,"x_max":699,"o":"m 136 -27 l 136 990 l 264 1051 l 271 1051 l 271 702 q 417 760 322 760 q 614 683 534 760 q 699 488 699 602 l 699 34 l 570 -27 l 563 -27 l 563 488 q 520 603 563 566 q 417 639 478 639 q 314 603 356 639 q 271 488 271 566 l 271 34 l 142 -27 l 136 -27 z "},"i":{"ha":407,"x_min":122,"x_max":285,"o":"m 146 896 q 134 908 146 896 q 122 955 122 920 q 146 1013 122 989 q 203 1038 170 1038 q 261 1013 237 1038 q 285 955 285 989 q 261 896 285 920 q 203 871 237 871 q 146 896 170 871 m 136 -27 l 136 712 l 264 773 l 271 773 l 271 34 l 142 -27 l 136 -27 z "},"j":{"ha":407,"x_min":-10,"x_max":285,"o":"m 146 896 q 134 908 146 896 q 122 955 122 920 q 146 1013 122 989 q 203 1038 170 1038 q 261 1013 237 1038 q 285 955 285 989 q 261 896 285 920 q 203 871 237 871 q 146 896 170 871 m -10 -305 l -10 -298 l 47 -175 q 94 -148 73 -165 q 136 -34 136 -111 l 136 712 l 264 773 l 271 773 l 271 -34 q 187 -229 271 -146 q -10 -305 109 -305 z "},"k":{"ha":800,"x_min":136,"x_max":699,"o":"m 136 -27 l 136 990 l 264 1051 l 271 1051 l 271 486 l 555 773 l 562 773 l 681 717 l 456 510 q 614 447 552 497 q 699 252 699 378 l 699 34 l 570 -27 l 563 -27 l 563 252 q 520 367 563 330 q 417 403 478 403 q 313 366 356 403 q 271 252 271 330 l 271 34 l 142 -27 l 136 -27 z "},"l":{"ha":407,"x_min":136,"x_max":271,"o":"m 136 -27 l 136 990 l 264 1051 l 271 1051 l 271 34 l 142 -27 l 136 -27 z "},"m":{"ha":1194,"x_min":102,"x_max":1092,"o":"m 102 -27 l 102 488 q 186 683 102 600 q 383 760 264 760 q 570 681 491 760 q 597 646 585 666 q 624 680 609 665 q 810 760 709 760 q 1008 683 928 760 q 1092 488 1092 602 l 1092 34 l 963 -27 l 956 -27 l 956 488 q 914 603 956 566 q 810 639 871 639 q 707 603 749 639 q 665 488 665 566 l 665 34 l 536 -27 l 529 -27 l 529 488 q 487 603 529 566 q 383 639 444 639 q 280 603 322 639 q 237 488 237 566 l 237 34 l 109 -27 l 102 -27 z "},"n":{"ha":766,"x_min":102,"x_max":665,"o":"m 102 -27 l 102 488 q 186 683 102 600 q 383 760 264 760 q 581 683 500 760 q 665 488 665 602 l 665 34 l 536 -27 l 529 -27 l 529 488 q 487 603 529 566 q 383 639 444 639 q 280 603 322 639 q 237 488 237 566 l 237 34 l 109 -27 l 102 -27 z "},"o":{"ha":766,"x_min":102,"x_max":665,"o":"m 102 258 l 102 488 q 186 683 102 600 q 383 760 264 760 q 581 683 500 760 q 665 488 665 602 l 665 258 q 581 63 665 146 q 383 -14 502 -14 q 186 63 266 -14 q 102 258 102 144 m 237 258 q 280 143 237 180 q 383 107 322 107 q 487 143 444 107 q 529 258 529 180 l 529 488 q 487 603 529 566 q 383 639 444 639 q 280 603 322 639 q 237 488 237 566 l 237 258 z "},"p":{"ha":800,"x_min":136,"x_max":699,"o":"m 563 488 q 520 603 563 566 q 417 639 478 639 q 314 603 356 639 q 271 488 271 566 l 271 258 q 314 143 271 180 q 417 107 356 107 q 520 143 478 107 q 563 258 563 180 l 563 488 m 699 488 l 699 258 q 614 63 699 146 q 417 -14 536 -14 q 271 44 328 -14 l 271 -244 l 142 -305 l 136 -305 l 136 488 q 220 683 136 600 q 417 760 298 760 q 614 683 534 760 q 699 488 699 602 z "},"q":{"ha":800,"x_min":102,"x_max":665,"o":"m 665 488 l 665 -244 l 536 -305 l 529 -305 l 529 44 q 383 -14 477 -14 q 186 63 266 -14 q 102 258 102 144 l 102 488 q 186 683 102 600 q 383 760 264 760 q 581 683 500 760 q 665 488 665 602 m 529 488 q 487 603 529 566 q 383 639 444 639 q 280 603 322 639 q 237 488 237 566 l 237 258 q 280 143 237 180 q 383 107 322 107 q 487 143 444 107 q 529 258 529 180 l 529 488 z "},"r":{"ha":488,"x_min":102,"x_max":475,"o":"m 102 -27 l 102 488 q 186 683 102 600 q 383 760 264 760 l 475 760 l 475 753 l 420 639 l 383 639 q 280 603 322 639 q 237 488 237 566 q 237 34 237 488 l 109 -27 l 102 -27 z "},"s":{"ha":726,"x_min":81,"x_max":644,"o":"m 81 239 l 210 300 l 217 300 l 217 246 q 261 131 217 170 q 363 94 303 94 q 471 138 432 94 q 511 238 511 184 q 468 330 511 296 q 362 359 431 359 q 172 412 241 359 q 110 555 110 458 q 196 711 110 650 q 363 760 263 760 q 529 700 458 760 q 596 591 583 653 l 467 530 l 460 530 l 460 550 q 440 610 460 585 q 347 652 408 652 q 269 622 299 652 q 239 555 239 592 q 275 486 239 512 q 362 472 296 472 q 569 409 500 472 q 644 231 644 340 q 566 62 644 142 q 363 -14 492 -14 q 165 52 245 -14 q 81 239 81 120 z "},"t":{"ha":518,"x_min":17,"x_max":501,"o":"m 191 -27 l 191 623 l 17 623 l 17 629 l 72 746 l 191 746 l 191 990 l 320 1051 l 327 1051 l 327 746 l 501 746 l 501 739 l 446 623 l 327 623 l 327 34 l 198 -27 l 191 -27 z "},"u":{"ha":766,"x_min":102,"x_max":665,"o":"m 665 773 l 665 258 q 581 63 665 146 q 383 -14 502 -14 q 186 63 266 -14 q 102 258 102 144 l 102 712 l 231 773 l 237 773 l 237 258 q 280 143 237 180 q 383 107 322 107 q 487 143 444 107 q 529 258 529 180 l 529 712 l 658 773 l 665 773 z "},"v":{"ha":696,"x_min":34,"x_max":662,"o":"m 296 -27 l 34 718 l 151 773 l 158 773 l 350 208 l 538 773 l 545 773 l 662 718 l 420 28 l 302 -27 l 296 -27 z "},"w":{"ha":1194,"x_min":102,"x_max":1092,"o":"m 1092 773 l 1092 258 q 1008 63 1092 146 q 810 -14 929 -14 q 624 65 703 -14 q 597 100 609 80 q 570 66 585 81 q 383 -14 485 -14 q 186 63 266 -14 q 102 258 102 144 l 102 712 l 231 773 l 237 773 l 237 258 q 280 143 237 180 q 383 107 322 107 q 487 143 444 107 q 529 258 529 180 l 529 712 l 658 773 l 665 773 l 665 258 q 707 143 665 180 q 810 107 749 107 q 914 143 871 107 q 956 258 956 180 l 956 712 l 1085 773 l 1092 773 z "},"x":{"ha":688,"x_min":54,"x_max":634,"o":"m 179 -27 l 172 -27 l 54 28 l 264 373 l 54 717 l 173 773 l 180 773 l 345 484 l 509 773 l 515 773 l 634 717 l 424 373 l 634 28 l 516 -27 l 509 -27 l 345 263 l 179 -27 z "},"y":{"ha":800,"x_min":102,"x_max":665,"o":"m 102 258 l 102 712 l 231 773 l 237 773 l 237 258 q 280 143 237 180 q 383 107 322 107 q 487 143 444 107 q 529 258 529 180 l 529 712 l 658 773 l 665 773 l 665 -20 q 581 -215 665 -132 q 383 -292 502 -292 l 174 -292 l 174 -285 l 229 -171 l 383 -171 q 487 -134 444 -171 q 529 -20 529 -98 l 529 44 q 383 -14 479 -14 q 186 63 267 -14 q 102 258 102 143 z "},"z":{"ha":714,"x_min":68,"x_max":646,"o":"m 68 0 l 68 7 l 422 623 l 75 623 l 75 629 l 130 746 l 640 746 l 640 739 l 286 123 l 646 123 l 646 117 l 591 0 l 68 0 z "},"{":{"ha":559,"x_min":34,"x_max":526,"o":"m 526 -163 q 275 -64 371 -163 q 183 176 183 29 l 183 450 l 34 450 l 34 457 l 89 574 l 183 574 l 183 848 q 275 1088 183 995 q 526 1187 371 1187 l 526 1065 q 368 995 427 1064 q 319 848 319 937 l 319 176 q 368 29 319 87 q 526 -41 427 -40 l 526 -163 z "},"|":{"ha":452,"x_min":170,"x_max":282,"o":"m 170 -163 l 170 1137 l 275 1187 l 282 1187 l 282 -113 l 176 -163 l 170 -163 z "},"}":{"ha":559,"x_min":34,"x_max":526,"o":"m 34 -163 l 34 -41 q 192 29 133 -40 q 241 176 241 87 l 241 848 q 192 995 241 937 q 34 1065 133 1064 l 34 1187 q 285 1088 189 1187 q 376 848 376 995 l 376 574 l 526 574 l 526 567 l 471 450 l 376 450 l 376 176 q 285 -64 376 29 q 34 -163 189 -163 z "},"~":{"ha":772,"x_min":102,"x_max":670,"o":"m 102 395 q 262 640 102 640 q 414 572 353 640 q 500 515 463 515 q 549 585 549 515 l 663 640 l 670 640 q 509 395 670 395 q 358 464 418 395 q 271 520 309 520 q 222 450 222 520 l 109 395 l 102 395 z "}," ":{"ha":543,"x_min":0,"x_max":0,"o":""},"¡":{"ha":407,"x_min":122,"x_max":285,"o":"m 261 1013 q 273 1001 261 1013 q 285 955 285 989 q 261 896 285 920 q 203 871 237 871 q 146 896 170 871 q 122 955 122 920 q 146 1013 122 989 q 203 1038 170 1038 q 261 1013 237 1038 m 142 -27 l 136 -27 l 136 678 l 264 739 l 271 739 l 271 34 l 142 -27 z "},"¢":{"ha":766,"x_min":102,"x_max":665,"o":"m 665 300 l 665 258 q 581 63 665 145 q 422 -12 515 -1 l 422 -129 l 351 -163 l 344 -163 l 344 -12 q 186 63 252 -1 q 102 258 102 144 l 102 488 q 186 683 102 601 q 344 758 251 747 l 344 875 l 416 909 l 422 909 l 422 758 q 581 683 513 746 q 665 508 665 604 l 665 507 l 536 446 l 529 446 l 529 488 q 487 602 529 566 q 422 635 458 627 l 422 111 q 487 144 458 119 q 529 239 529 180 l 658 300 l 665 300 m 344 111 l 344 635 q 279 602 308 627 q 237 488 237 566 l 237 258 q 279 144 237 180 q 344 111 308 119 z "},"£":{"ha":905,"x_min":102,"x_max":804,"o":"m 102 0 l 102 7 l 157 123 l 203 123 l 203 406 l 102 406 l 102 412 l 157 529 l 203 529 l 203 771 q 288 972 203 905 q 485 1038 368 1038 q 682 972 597 1038 q 766 771 766 907 l 637 710 l 631 710 l 631 771 q 586 893 631 856 q 485 930 542 930 q 380 889 420 930 q 339 771 339 848 l 339 529 l 621 529 l 621 522 l 566 406 l 339 406 l 339 123 l 804 123 l 804 117 l 749 0 l 102 0 z "},"¤":{"ha":946,"x_min":102,"x_max":844,"o":"m 815 506 q 756 305 815 391 l 844 217 l 840 212 l 718 169 l 668 218 q 473 167 588 167 q 271 223 353 167 l 228 180 l 106 223 l 102 228 l 185 311 q 130 507 130 395 q 189 708 130 623 l 102 796 l 106 801 l 227 844 l 277 795 q 473 846 357 846 q 668 795 588 846 l 718 844 l 840 801 l 844 796 l 756 708 q 815 506 815 623 m 473 289 q 631 359 566 289 q 680 507 680 412 q 631 654 680 593 q 472 724 574 724 q 315 654 378 724 q 266 507 266 600 q 315 359 266 414 q 473 289 377 289 z "},"¥":{"ha":867,"x_min":68,"x_max":799,"o":"m 350 -27 l 350 292 l 123 292 l 123 298 l 178 415 l 328 415 l 283 515 l 123 515 l 123 522 l 178 639 l 228 639 l 68 995 l 186 1051 l 193 1051 l 375 639 l 530 639 l 721 1051 l 728 1051 l 799 1017 l 618 639 l 743 639 l 743 632 l 688 515 l 559 515 l 511 415 l 743 415 l 743 408 l 688 292 l 486 292 l 486 34 l 357 -27 l 350 -27 m 472 515 l 429 515 l 450 468 l 472 515 z "},"¦":{"ha":452,"x_min":170,"x_max":282,"o":"m 170 -163 l 170 398 l 275 448 l 282 448 l 282 -113 l 176 -163 l 170 -163 m 275 1187 l 282 1187 l 282 626 l 176 576 l 170 576 l 170 1137 l 275 1187 z "},"§":{"ha":766,"x_min":102,"x_max":665,"o":"m 150 155 l 279 216 l 286 216 l 286 196 q 306 136 286 161 q 399 94 338 94 q 477 124 447 94 q 507 191 507 154 q 471 260 507 234 q 384 274 450 274 q 177 337 246 274 q 102 515 102 406 q 151 650 102 585 l 259 587 q 235 508 235 550 q 278 416 235 450 q 384 387 315 387 q 574 334 505 387 q 636 191 636 288 q 550 35 636 96 q 383 -14 483 -14 q 217 46 288 -14 q 150 155 163 93 m 616 869 l 488 808 l 481 808 l 481 828 q 460 888 481 863 q 368 930 428 930 q 289 900 319 930 q 259 833 259 870 q 296 764 259 790 q 382 750 316 750 q 589 687 520 750 q 665 509 665 618 q 615 374 665 439 l 507 437 q 532 516 532 474 q 488 608 532 574 q 382 637 451 637 q 192 690 262 637 q 130 833 130 736 q 216 989 130 928 q 383 1038 283 1038 q 549 978 479 1038 q 616 869 604 931 z "},"¨":{"ha":570,"x_min":102,"x_max":468,"o":"m 329 896 q 317 908 329 896 q 305 955 305 920 q 329 1013 305 989 q 387 1038 353 1038 q 444 1013 420 1038 q 468 955 468 989 q 444 896 468 920 q 387 871 420 871 q 329 896 353 871 m 125 896 q 114 908 125 896 q 102 955 102 920 q 125 1013 102 989 q 183 1038 149 1038 q 241 1013 217 1038 q 264 955 264 989 q 241 896 264 920 q 183 871 217 871 q 125 896 149 871 z "},"©":{"ha":950,"x_min":102,"x_max":848,"o":"m 666 460 l 666 415 q 616 273 666 326 q 473 217 564 217 q 340 270 390 217 q 290 412 290 322 l 290 604 q 340 747 290 694 q 473 800 391 800 q 616 744 557 800 q 666 602 666 694 l 589 564 l 564 564 l 564 612 q 545 675 564 652 q 479 704 519 704 q 412 675 440 704 q 392 612 392 654 l 392 412 q 412 349 392 370 q 479 320 439 320 q 545 349 519 320 q 564 412 564 372 l 564 422 l 642 460 l 666 460 m 475 903 q 618 873 550 903 q 739 787 683 846 q 821 661 793 731 q 848 511 848 593 q 821 363 848 433 q 739 237 795 296 q 618 151 686 181 q 475 122 551 122 q 332 151 400 122 q 211 237 267 179 q 129 363 156 294 q 102 511 102 431 q 129 661 102 592 q 211 787 156 730 q 332 874 266 845 q 475 903 399 903 m 475 848 q 353 824 409 848 q 248 749 296 800 q 176 640 201 700 q 152 515 152 581 l 152 511 q 176 384 152 444 q 248 275 199 328 q 352 201 296 225 q 475 176 410 176 q 599 201 541 176 q 703 275 655 225 q 774 383 750 324 q 798 511 798 442 q 774 641 798 581 q 703 749 751 699 q 599 824 656 799 q 475 848 541 848 z "},"ª":{"ha":648,"x_min":102,"x_max":546,"o":"m 208 1002 q 319 1038 254 1038 q 431 1002 388 1038 q 478 890 478 963 l 478 646 l 403 610 l 383 610 l 383 624 q 328 610 361 610 q 217 646 260 610 q 171 758 171 684 q 220 869 171 827 q 319 905 263 905 q 382 880 357 905 q 366 940 382 925 q 324 956 349 956 q 272 931 294 956 l 208 1002 m 102 450 l 102 457 l 157 574 l 546 574 l 546 567 l 491 450 l 102 450 m 323 690 q 366 707 347 690 q 383 758 383 721 q 366 809 383 793 q 324 824 349 824 q 281 808 298 824 q 264 758 264 792 q 282 706 264 720 q 323 690 300 690 z "},"«":{"ha":819,"x_min":102,"x_max":684,"o":"m 559 206 l 363 537 l 559 871 l 566 871 l 684 815 l 519 539 l 684 262 l 566 206 l 559 206 m 298 206 l 102 537 l 298 871 l 304 871 l 422 815 l 258 539 l 422 262 l 304 206 l 298 206 z "},"¬":{"ha":823,"x_min":102,"x_max":722,"o":"m 435 273 l 532 450 l 102 450 l 102 457 l 157 574 l 722 574 l 722 567 l 581 273 l 435 273 z "},"­":{"ha":823,"x_min":102,"x_max":722,"o":"m 102 450 l 102 457 l 157 574 l 722 574 l 722 567 l 667 450 l 102 450 z "},"®":{"ha":950,"x_min":102,"x_max":848,"o":"m 475 848 q 353 824 409 848 q 248 749 296 800 q 176 640 201 700 q 152 515 152 581 l 152 511 q 176 384 152 444 q 248 275 199 328 q 352 201 296 225 q 475 176 410 176 q 599 201 541 176 q 703 275 655 225 q 774 383 750 324 q 798 511 798 442 q 774 641 798 581 q 703 749 751 699 q 599 824 656 799 q 475 848 541 848 m 475 903 q 618 873 550 903 q 739 787 683 846 q 821 661 793 731 q 848 511 848 593 q 821 363 848 433 q 739 237 795 296 q 618 151 686 181 q 475 122 551 122 q 332 151 400 122 q 211 237 267 179 q 129 363 156 294 q 102 511 102 431 q 129 661 102 593 q 211 787 156 730 q 332 874 267 845 q 475 903 398 903 m 404 503 l 476 503 q 543 532 517 504 q 563 595 563 553 q 543 658 563 637 q 476 687 515 687 l 404 687 l 404 503 m 302 244 l 302 748 l 379 783 l 481 783 q 615 730 564 783 q 665 587 665 677 q 615 453 665 505 q 576 423 597 435 l 688 281 l 607 244 l 591 244 l 465 400 l 404 400 l 404 279 l 326 244 l 302 244 z "},"¯":{"ha":823,"x_min":102,"x_max":722,"o":"m 102 901 l 102 907 l 157 1024 l 722 1024 l 722 1017 l 667 901 l 102 901 z "},"°":{"ha":766,"x_min":102,"x_max":665,"o":"m 102 766 q 186 961 102 878 q 383 1038 264 1038 q 581 961 500 1038 q 665 766 665 880 q 581 572 665 654 q 383 495 502 495 q 186 572 266 495 q 102 766 102 653 m 487 652 q 508 670 487 652 q 529 766 529 688 q 487 881 529 844 q 383 917 444 917 q 280 881 322 917 q 237 766 237 844 q 280 652 237 688 q 383 616 322 616 q 487 652 444 616 z "},"±":{"ha":823,"x_min":102,"x_max":722,"o":"m 102 165 l 102 172 l 157 288 l 722 288 l 722 281 l 667 165 l 102 165 m 473 938 l 473 690 l 722 690 l 722 683 l 667 566 l 473 566 l 473 373 l 357 318 l 350 318 l 350 566 l 102 566 l 102 573 l 157 690 l 350 690 l 350 883 l 467 938 l 473 938 z "},"²":{"ha":585,"x_min":102,"x_max":483,"o":"m 102 495 l 102 519 l 132 585 l 297 738 q 378 861 378 814 q 360 914 378 895 q 294 943 333 943 q 228 913 254 943 q 208 860 208 890 q 227 804 208 833 l 151 768 l 134 768 q 106 860 106 807 q 153 986 106 937 q 293 1038 203 1038 q 432 985 382 1038 q 482 860 482 932 q 380 686 482 770 l 262 590 l 483 590 l 483 566 l 449 495 l 102 495 z "},"³":{"ha":580,"x_min":102,"x_max":478,"o":"m 102 671 l 182 715 l 203 715 l 203 668 q 224 606 203 630 q 290 576 248 576 q 356 606 330 576 q 376 671 376 629 q 361 724 376 705 q 288 750 338 749 l 202 750 l 302 928 l 132 928 l 132 953 l 165 1024 l 463 1024 l 332 822 q 425 791 391 819 q 478 673 478 747 q 427 535 478 587 q 290 482 376 482 q 152 534 203 482 q 102 671 102 585 z "},"´":{"ha":439,"x_min":102,"x_max":338,"o":"m 212 1051 l 218 1051 l 338 994 l 188 780 l 181 780 l 102 817 l 212 1051 z "},"µ":{"ha":800,"x_min":136,"x_max":699,"o":"m 136 712 l 264 773 l 271 773 l 271 258 q 314 143 271 180 q 417 107 356 107 q 520 143 478 107 q 563 258 563 180 l 563 712 l 692 773 l 699 773 l 699 258 q 614 63 699 146 q 417 -14 536 -14 q 271 44 323 -14 l 271 -244 l 142 -305 l 136 -305 l 136 712 z "},"¶":{"ha":800,"x_min":102,"x_max":665,"o":"m 529 -27 l 529 410 q 383 376 461 376 q 186 441 266 376 q 102 642 102 510 l 102 771 q 186 972 102 903 q 383 1038 264 1038 q 581 972 498 1038 q 665 771 665 906 l 665 34 l 620 13 l 620 771 l 576 771 l 576 -8 l 536 -27 l 529 -27 z "},"·":{"ha":407,"x_min":122,"x_max":285,"o":"m 146 452 q 134 465 146 452 q 122 511 122 477 q 146 570 122 545 q 203 594 170 594 q 261 570 237 594 q 285 511 285 545 q 261 452 285 477 q 203 428 237 428 q 146 452 170 428 z "},"¸":{"ha":413,"x_min":102,"x_max":311,"o":"m 145 189 q 311 -28 311 101 q 237 -194 311 -121 l 231 -194 l 102 -133 q 193 8 193 -74 q 116 155 193 77 l 145 189 z "},"¹":{"ha":456,"x_min":102,"x_max":286,"o":"m 262 1051 l 286 1051 l 286 518 l 209 481 l 184 481 l 184 937 l 102 899 l 102 975 l 262 1051 z "},"º":{"ha":648,"x_min":102,"x_max":546,"o":"m 170 757 l 170 890 q 215 1001 170 965 q 324 1038 260 1038 q 431 1002 387 1038 q 478 890 478 964 l 478 757 q 431 646 478 685 q 324 610 389 610 q 215 646 260 610 q 170 757 170 682 m 264 757 q 281 707 264 724 q 325 691 296 691 q 366 706 349 691 q 383 757 383 722 l 383 890 q 366 941 383 926 q 325 956 349 956 q 281 940 296 956 q 264 890 264 923 l 264 757 m 102 450 l 102 457 l 157 574 l 546 574 l 546 567 l 491 450 l 102 450 z "},"»":{"ha":819,"x_min":136,"x_max":718,"o":"m 260 206 l 254 206 l 136 262 l 300 539 l 136 815 l 254 871 l 260 871 l 456 537 l 260 206 m 522 206 l 515 206 l 397 262 l 561 539 l 397 815 l 515 871 l 522 871 l 718 537 l 522 206 z "},"¼":{"ha":996,"x_min":102,"x_max":861,"o":"m 596 228 l 708 228 l 708 366 l 596 228 m 708 -27 l 708 132 l 460 132 l 460 157 l 490 220 l 714 509 l 785 543 l 810 543 l 810 228 l 861 228 l 861 203 l 827 132 l 810 132 l 810 9 l 732 -27 l 708 -27 m 262 1051 l 286 1051 l 286 518 l 209 481 l 184 481 l 184 937 l 102 899 l 102 975 l 262 1051 m 239 -27 l 143 19 l 624 1051 l 631 1051 l 726 1005 l 245 -27 l 239 -27 z "},"½":{"ha":1042,"x_min":102,"x_max":906,"o":"m 525 0 l 525 24 l 555 90 l 720 243 q 802 366 802 319 q 783 419 802 399 q 718 448 756 448 q 651 418 677 448 q 631 365 631 395 q 650 309 631 338 l 574 273 l 557 273 q 529 365 529 312 q 576 491 529 441 q 716 543 626 543 q 855 490 805 543 q 905 365 905 437 q 803 191 905 275 l 685 95 l 906 95 l 906 71 l 872 0 l 525 0 m 262 1051 l 286 1051 l 286 518 l 209 481 l 184 481 l 184 937 l 102 899 l 102 975 l 262 1051 m 239 -27 l 143 19 l 624 1051 l 631 1051 l 726 1005 l 245 -27 l 239 -27 z "},"¾":{"ha":1129,"x_min":102,"x_max":994,"o":"m 102 671 l 182 715 l 203 715 l 203 668 q 224 606 203 630 q 290 576 248 576 q 356 606 330 576 q 376 671 376 629 q 361 724 376 705 q 288 750 338 749 l 202 750 l 302 928 l 132 928 l 132 953 l 165 1024 l 463 1024 l 332 822 q 425 791 391 819 q 478 673 478 747 q 427 535 478 587 q 290 482 376 482 q 152 534 203 482 q 102 671 102 585 m 729 228 l 841 228 l 841 366 l 729 228 m 841 -27 l 841 132 l 593 132 l 593 157 l 623 220 l 847 509 l 918 543 l 943 543 l 943 228 l 994 228 l 994 203 l 960 132 l 943 132 l 943 9 l 865 -27 l 841 -27 m 372 -27 l 276 19 l 757 1051 l 764 1051 l 859 1005 l 378 -27 l 372 -27 z "},"¿":{"ha":882,"x_min":102,"x_max":780,"o":"m 502 1013 q 514 1001 502 1013 q 526 955 526 989 q 502 896 526 920 q 444 871 478 871 q 387 896 410 871 q 363 955 363 920 q 387 1013 363 989 q 444 1038 410 1038 q 502 1013 478 1038 m 739 459 q 780 298 780 386 q 688 85 780 182 q 437 -14 595 -14 q 186 85 277 -14 q 102 312 102 176 q 325 623 102 473 q 386 716 384 663 l 517 779 l 524 779 q 405 534 523 610 q 236 311 236 427 q 279 178 236 231 q 437 109 337 109 q 595 178 532 109 q 644 314 644 233 q 618 404 644 359 l 732 459 l 739 459 z "},"À":{"ha":956,"x_min":136,"x_max":821,"o":"m 404 1333 l 411 1333 l 521 1099 l 441 1062 l 435 1062 l 285 1276 l 404 1333 m 136 -27 l 136 699 q 227 939 136 845 q 478 1038 323 1038 q 729 939 630 1038 q 821 699 821 848 l 821 34 l 692 -27 l 685 -27 l 685 450 l 271 450 l 271 34 l 142 -27 l 136 -27 m 271 574 l 685 574 l 685 699 q 636 846 685 789 q 478 916 576 916 q 320 846 380 916 q 271 699 271 789 l 271 574 z "},"Á":{"ha":956,"x_min":136,"x_max":821,"o":"m 554 1333 l 561 1333 l 680 1276 l 530 1062 l 524 1062 l 444 1099 l 554 1333 m 136 -27 l 136 699 q 227 939 136 845 q 478 1038 323 1038 q 729 939 630 1038 q 821 699 821 848 l 821 34 l 692 -27 l 685 -27 l 685 450 l 271 450 l 271 34 l 142 -27 l 136 -27 m 271 574 l 685 574 l 685 699 q 636 846 685 789 q 478 916 576 916 q 320 846 380 916 q 271 699 271 789 l 271 574 z "},"Â":{"ha":956,"x_min":136,"x_max":821,"o":"m 294 1099 l 398 1276 l 517 1333 l 524 1333 l 669 1099 l 590 1062 l 583 1062 l 481 1203 l 381 1062 l 374 1062 l 294 1099 m 136 -27 l 136 699 q 227 939 136 845 q 478 1038 323 1038 q 729 939 630 1038 q 821 699 821 848 l 821 34 l 692 -27 l 685 -27 l 685 450 l 271 450 l 271 34 l 142 -27 l 136 -27 m 271 574 l 685 574 l 685 699 q 636 846 685 789 q 478 916 576 916 q 320 846 380 916 q 271 699 271 789 l 271 574 z "},"Ã":{"ha":956,"x_min":136,"x_max":821,"o":"m 319 1111 q 415 1305 319 1305 q 508 1257 458 1305 q 559 1224 543 1224 q 582 1273 582 1224 l 656 1305 l 661 1305 q 565 1111 661 1111 q 472 1158 522 1111 q 421 1192 437 1192 q 398 1143 398 1192 l 323 1111 l 319 1111 m 136 -27 l 136 699 q 227 939 136 845 q 478 1038 323 1038 q 729 939 630 1038 q 821 699 821 848 l 821 34 l 692 -27 l 685 -27 l 685 450 l 271 450 l 271 34 l 142 -27 l 136 -27 m 271 574 l 685 574 l 685 699 q 636 846 685 789 q 478 916 576 916 q 320 846 380 916 q 271 699 271 789 l 271 574 z "},"Ä":{"ha":956,"x_min":136,"x_max":821,"o":"m 527 1164 q 515 1176 527 1164 q 503 1222 503 1188 q 527 1281 503 1257 q 585 1305 551 1305 q 642 1281 618 1305 q 666 1222 666 1257 q 642 1164 666 1188 q 585 1139 618 1139 q 527 1164 551 1139 m 323 1164 q 312 1176 323 1164 q 300 1222 300 1188 q 323 1281 300 1257 q 381 1305 347 1305 q 439 1281 415 1305 q 463 1222 463 1257 q 439 1164 463 1188 q 381 1139 415 1139 q 323 1164 347 1139 m 136 -27 l 136 699 q 227 939 136 845 q 478 1038 323 1038 q 729 939 630 1038 q 821 699 821 848 l 821 34 l 692 -27 l 685 -27 l 685 450 l 271 450 l 271 34 l 142 -27 l 136 -27 m 271 574 l 685 574 l 685 699 q 636 846 685 789 q 478 916 576 916 q 320 846 380 916 q 271 699 271 789 l 271 574 z "},"Å":{"ha":956,"x_min":136,"x_max":821,"o":"m 570 1110 q 478 1077 532 1077 q 387 1110 424 1077 q 345 1205 345 1147 q 387 1300 345 1261 q 478 1333 422 1333 q 570 1300 532 1333 q 612 1205 612 1263 q 570 1110 612 1147 m 478 1263 q 441 1249 455 1263 q 428 1205 428 1234 q 442 1161 428 1174 q 477 1147 457 1147 q 513 1162 498 1147 q 527 1205 527 1175 q 512 1250 527 1236 q 478 1263 498 1263 m 136 -27 l 136 699 q 227 939 136 845 q 478 1038 323 1038 q 729 939 630 1038 q 821 699 821 848 l 821 34 l 692 -27 l 685 -27 l 685 450 l 271 450 l 271 34 l 142 -27 l 136 -27 m 271 574 l 685 574 l 685 699 q 636 846 685 789 q 478 916 576 916 q 320 846 380 916 q 271 699 271 789 l 271 574 z "},"Æ":{"ha":1334,"x_min":136,"x_max":1300,"o":"m 136 -27 l 136 699 q 227 939 136 845 q 478 1038 323 1038 q 685 956 621 1038 l 685 990 l 757 1024 l 1187 1024 l 1187 1017 l 1132 901 l 821 901 l 821 574 l 1187 574 l 1187 567 l 1132 450 l 821 450 l 821 123 l 1300 123 l 1300 117 l 1245 0 l 685 0 l 685 450 l 271 450 l 271 34 l 142 -27 l 136 -27 m 271 574 l 685 574 l 685 699 q 636 846 685 789 q 478 916 576 916 q 320 846 380 916 q 271 699 271 789 l 271 574 z "},"Ç":{"ha":956,"x_min":136,"x_max":821,"o":"m 821 373 l 821 326 q 729 85 821 178 q 526 -11 648 2 q 576 -140 576 -69 q 502 -305 576 -233 l 495 -305 l 366 -244 q 457 -103 457 -185 q 425 -10 457 -59 q 227 85 307 4 q 136 326 136 178 l 136 699 q 227 939 136 846 q 478 1038 323 1038 q 729 939 638 1038 q 821 712 821 841 l 692 651 l 685 651 l 685 699 q 636 846 685 789 q 478 916 576 916 q 320 846 380 916 q 271 699 271 789 l 271 326 q 320 178 271 235 q 478 109 380 109 q 636 178 576 109 q 685 312 685 235 l 814 373 l 821 373 z "},"È":{"ha":785,"x_min":136,"x_max":751,"o":"m 343 1333 l 350 1333 l 460 1099 l 380 1062 l 374 1062 l 224 1276 l 343 1333 m 136 0 l 136 990 l 208 1024 l 637 1024 l 637 1017 l 583 901 l 271 901 l 271 574 l 637 574 l 637 567 l 583 450 l 271 450 l 271 123 l 751 123 l 751 117 l 696 0 l 136 0 z "},"É":{"ha":785,"x_min":136,"x_max":751,"o":"m 464 1333 l 471 1333 l 590 1276 l 440 1062 l 433 1062 l 354 1099 l 464 1333 m 136 0 l 136 990 l 208 1024 l 637 1024 l 637 1017 l 583 901 l 271 901 l 271 574 l 637 574 l 637 567 l 583 450 l 271 450 l 271 123 l 751 123 l 751 117 l 696 0 l 136 0 z "},"Ê":{"ha":785,"x_min":136,"x_max":751,"o":"m 212 1099 l 316 1276 l 435 1333 l 442 1333 l 587 1099 l 508 1062 l 501 1062 l 399 1203 l 299 1062 l 292 1062 l 212 1099 m 136 0 l 136 990 l 208 1024 l 637 1024 l 637 1017 l 583 901 l 271 901 l 271 574 l 637 574 l 637 567 l 583 450 l 271 450 l 271 123 l 751 123 l 751 117 l 696 0 l 136 0 z "},"Ë":{"ha":785,"x_min":136,"x_max":751,"o":"m 442 1164 q 430 1176 442 1164 q 418 1222 418 1188 q 442 1281 418 1257 q 500 1305 466 1305 q 557 1281 534 1305 q 581 1222 581 1257 q 557 1164 581 1188 q 500 1139 534 1139 q 442 1164 466 1139 m 239 1164 q 227 1176 239 1164 q 215 1222 215 1188 q 239 1281 215 1257 q 296 1305 262 1305 q 354 1281 330 1305 q 378 1222 378 1257 q 354 1164 378 1188 q 296 1139 330 1139 q 239 1164 262 1139 m 136 0 l 136 990 l 208 1024 l 637 1024 l 637 1017 l 583 901 l 271 901 l 271 574 l 637 574 l 637 567 l 583 450 l 271 450 l 271 123 l 751 123 l 751 117 l 696 0 l 136 0 z "},"Ì":{"ha":407,"x_min":45,"x_max":281,"o":"m 164 1333 l 171 1333 l 281 1099 l 201 1062 l 195 1062 l 45 1276 l 164 1333 m 136 -27 l 136 990 l 264 1051 l 271 1051 l 271 34 l 142 -27 l 136 -27 z "},"Í":{"ha":407,"x_min":126,"x_max":362,"o":"m 236 1333 l 243 1333 l 362 1276 l 212 1062 l 205 1062 l 126 1099 l 236 1333 m 136 -27 l 136 990 l 264 1051 l 271 1051 l 271 34 l 142 -27 l 136 -27 z "},"Î":{"ha":407,"x_min":16,"x_max":391,"o":"m 136 -27 l 136 990 l 264 1051 l 271 1051 l 271 34 l 142 -27 l 136 -27 m 16 1099 l 119 1276 l 239 1333 l 245 1333 l 391 1099 l 311 1062 l 304 1062 l 203 1203 l 102 1062 l 96 1062 l 16 1099 z "},"Ï":{"ha":407,"x_min":20,"x_max":387,"o":"m 136 -27 l 136 990 l 264 1051 l 271 1051 l 271 34 l 142 -27 l 136 -27 m 248 1164 q 236 1176 248 1164 q 224 1222 224 1188 q 248 1281 224 1257 q 305 1305 271 1305 q 363 1281 339 1305 q 387 1222 387 1257 q 363 1164 387 1188 q 305 1139 339 1139 q 248 1164 271 1139 m 44 1164 q 32 1176 44 1164 q 20 1222 20 1188 q 44 1281 20 1257 q 102 1305 68 1305 q 159 1281 136 1305 q 183 1222 183 1257 q 159 1164 183 1188 q 102 1139 136 1139 q 44 1164 68 1139 z "},"Ð":{"ha":943,"x_min":34,"x_max":807,"o":"m 271 122 l 465 122 q 623 192 562 122 q 671 339 671 248 l 671 685 q 623 832 671 776 q 465 902 562 902 l 271 902 l 271 574 l 553 574 l 553 567 l 498 450 l 271 450 l 271 122 m 136 0 l 136 450 l 34 450 l 34 457 l 89 574 l 136 574 l 136 990 l 208 1024 l 465 1024 q 715 926 619 1024 q 807 685 807 833 l 807 339 q 715 98 807 192 q 465 0 619 0 l 136 0 z "},"Ñ":{"ha":956,"x_min":136,"x_max":821,"o":"m 319 1111 q 415 1305 319 1305 q 508 1257 458 1305 q 559 1224 543 1224 q 582 1273 582 1224 l 656 1305 l 661 1305 q 565 1111 661 1111 q 472 1158 522 1111 q 421 1192 437 1192 q 398 1143 398 1192 l 323 1111 l 319 1111 m 136 -27 l 136 699 q 227 939 136 845 q 478 1038 323 1038 q 729 939 631 1038 q 821 699 821 848 l 821 34 l 692 -27 l 685 -27 l 685 699 q 636 846 685 789 q 478 916 576 916 q 320 846 380 916 q 271 699 271 789 l 271 34 l 142 -27 l 136 -27 z "},"Ò":{"ha":956,"x_min":136,"x_max":821,"o":"m 404 1333 l 411 1333 l 521 1099 l 441 1062 l 435 1062 l 285 1276 l 404 1333 m 271 326 q 320 178 271 235 q 478 109 380 109 q 636 178 576 109 q 685 326 685 235 l 685 699 q 636 846 685 789 q 478 916 576 916 q 320 846 380 916 q 271 699 271 789 l 271 326 m 136 326 l 136 699 q 227 939 136 846 q 478 1038 323 1038 q 729 939 633 1038 q 821 699 821 846 l 821 326 q 729 85 821 178 q 478 -14 633 -14 q 227 85 323 -14 q 136 326 136 178 z "},"Ó":{"ha":956,"x_min":136,"x_max":821,"o":"m 554 1333 l 561 1333 l 680 1276 l 530 1062 l 524 1062 l 444 1099 l 554 1333 m 271 326 q 320 178 271 235 q 478 109 380 109 q 636 178 576 109 q 685 326 685 235 l 685 699 q 636 846 685 789 q 478 916 576 916 q 320 846 380 916 q 271 699 271 789 l 271 326 m 136 326 l 136 699 q 227 939 136 846 q 478 1038 323 1038 q 729 939 633 1038 q 821 699 821 846 l 821 326 q 729 85 821 178 q 478 -14 633 -14 q 227 85 323 -14 q 136 326 136 178 z "},"Ô":{"ha":956,"x_min":136,"x_max":821,"o":"m 294 1099 l 398 1276 l 517 1333 l 524 1333 l 669 1099 l 590 1062 l 583 1062 l 481 1203 l 381 1062 l 374 1062 l 294 1099 m 271 326 q 320 178 271 235 q 478 109 380 109 q 636 178 576 109 q 685 326 685 235 l 685 699 q 636 846 685 789 q 478 916 576 916 q 320 846 380 916 q 271 699 271 789 l 271 326 m 136 326 l 136 699 q 227 939 136 846 q 478 1038 323 1038 q 729 939 633 1038 q 821 699 821 846 l 821 326 q 729 85 821 178 q 478 -14 633 -14 q 227 85 323 -14 q 136 326 136 178 z "},"Õ":{"ha":956,"x_min":136,"x_max":821,"o":"m 319 1111 q 415 1305 319 1305 q 508 1257 458 1305 q 559 1224 543 1224 q 582 1273 582 1224 l 656 1305 l 661 1305 q 565 1111 661 1111 q 472 1158 522 1111 q 421 1192 437 1192 q 398 1143 398 1192 l 323 1111 l 319 1111 m 271 326 q 320 178 271 235 q 478 109 380 109 q 636 178 576 109 q 685 326 685 235 l 685 699 q 636 846 685 789 q 478 916 576 916 q 320 846 380 916 q 271 699 271 789 l 271 326 m 136 326 l 136 699 q 227 939 136 846 q 478 1038 323 1038 q 729 939 633 1038 q 821 699 821 846 l 821 326 q 729 85 821 178 q 478 -14 633 -14 q 227 85 323 -14 q 136 326 136 178 z "},"Ö":{"ha":956,"x_min":136,"x_max":821,"o":"m 527 1164 q 515 1176 527 1164 q 503 1222 503 1188 q 527 1281 503 1257 q 585 1305 551 1305 q 642 1281 618 1305 q 666 1222 666 1257 q 642 1164 666 1188 q 585 1139 618 1139 q 527 1164 551 1139 m 323 1164 q 312 1176 323 1164 q 300 1222 300 1188 q 323 1281 300 1257 q 381 1305 347 1305 q 439 1281 415 1305 q 463 1222 463 1257 q 439 1164 463 1188 q 381 1139 415 1139 q 323 1164 347 1139 m 271 326 q 320 178 271 235 q 478 109 380 109 q 636 178 576 109 q 685 326 685 235 l 685 699 q 636 846 685 789 q 478 916 576 916 q 320 846 380 916 q 271 699 271 789 l 271 326 m 136 326 l 136 699 q 227 939 136 846 q 478 1038 323 1038 q 729 939 633 1038 q 821 699 821 846 l 821 326 q 729 85 821 178 q 478 -14 633 -14 q 227 85 323 -14 q 136 326 136 178 z "},"×":{"ha":729,"x_min":102,"x_max":627,"o":"m 102 688 l 106 692 l 228 736 l 364 600 l 501 736 l 623 692 l 627 688 l 452 512 l 627 336 l 623 332 l 501 288 l 364 425 l 228 288 l 106 332 l 102 336 l 277 512 l 102 688 z "},"Ø":{"ha":956,"x_min":136,"x_max":821,"o":"m 274 -27 l 267 -27 l 197 7 l 231 81 q 136 326 136 174 l 136 699 q 227 939 136 846 q 478 1038 323 1038 q 656 995 580 1038 l 682 1051 l 689 1051 l 760 1017 l 726 943 q 821 699 821 846 l 821 326 q 729 85 821 178 q 478 -14 633 -14 q 300 29 376 -14 l 274 -27 m 602 878 q 478 916 550 916 q 320 846 380 916 q 271 699 271 789 l 271 326 q 294 217 271 263 l 602 878 m 662 807 l 355 146 q 478 109 406 109 q 636 178 576 109 q 685 326 685 235 l 685 699 q 662 807 685 761 z "},"Ù":{"ha":956,"x_min":136,"x_max":821,"o":"m 404 1333 l 411 1333 l 521 1099 l 441 1062 l 435 1062 l 285 1276 l 404 1333 m 821 1051 l 821 326 q 729 85 821 179 q 478 -14 633 -14 q 227 85 326 -14 q 136 326 136 176 l 136 990 l 264 1051 l 271 1051 l 271 326 q 320 178 271 235 q 478 109 380 109 q 636 178 576 109 q 685 326 685 235 l 685 990 l 814 1051 l 821 1051 z "},"Ú":{"ha":956,"x_min":136,"x_max":821,"o":"m 554 1333 l 561 1333 l 680 1276 l 530 1062 l 524 1062 l 444 1099 l 554 1333 m 821 1051 l 821 326 q 729 85 821 179 q 478 -14 633 -14 q 227 85 326 -14 q 136 326 136 176 l 136 990 l 264 1051 l 271 1051 l 271 326 q 320 178 271 235 q 478 109 380 109 q 636 178 576 109 q 685 326 685 235 l 685 990 l 814 1051 l 821 1051 z "},"Û":{"ha":956,"x_min":136,"x_max":821,"o":"m 294 1099 l 398 1276 l 517 1333 l 524 1333 l 669 1099 l 590 1062 l 583 1062 l 481 1203 l 381 1062 l 374 1062 l 294 1099 m 821 1051 l 821 326 q 729 85 821 179 q 478 -14 633 -14 q 227 85 326 -14 q 136 326 136 176 l 136 990 l 264 1051 l 271 1051 l 271 326 q 320 178 271 235 q 478 109 380 109 q 636 178 576 109 q 685 326 685 235 l 685 990 l 814 1051 l 821 1051 z "},"Ü":{"ha":956,"x_min":136,"x_max":821,"o":"m 527 1164 q 515 1176 527 1164 q 503 1222 503 1188 q 527 1281 503 1257 q 585 1305 551 1305 q 642 1281 618 1305 q 666 1222 666 1257 q 642 1164 666 1188 q 585 1139 618 1139 q 527 1164 551 1139 m 323 1164 q 312 1176 323 1164 q 300 1222 300 1188 q 323 1281 300 1257 q 381 1305 347 1305 q 439 1281 415 1305 q 463 1222 463 1257 q 439 1164 463 1188 q 381 1139 415 1139 q 323 1164 347 1139 m 821 1051 l 821 326 q 729 85 821 179 q 478 -14 633 -14 q 227 85 326 -14 q 136 326 136 176 l 136 990 l 264 1051 l 271 1051 l 271 326 q 320 178 271 235 q 478 109 380 109 q 636 178 576 109 q 685 326 685 235 l 685 990 l 814 1051 l 821 1051 z "},"Ý":{"ha":888,"x_min":102,"x_max":787,"o":"m 554 1333 l 561 1333 l 680 1276 l 530 1062 l 524 1062 l 444 1099 l 554 1333 m 376 -27 l 376 328 q 193 421 270 346 q 102 662 102 511 l 102 990 l 231 1051 l 237 1051 l 237 662 q 286 515 237 571 q 444 445 347 445 q 602 515 547 445 q 651 662 651 577 l 651 990 l 780 1051 l 787 1051 l 787 662 q 695 421 787 515 q 512 328 621 345 l 512 34 l 383 -27 l 376 -27 z "},"Þ":{"ha":909,"x_min":136,"x_max":807,"o":"m 136 -27 l 136 990 l 264 1051 l 271 1051 l 271 861 l 465 861 q 715 763 619 861 q 807 522 807 669 q 715 281 807 374 q 465 183 618 183 l 271 183 l 271 34 l 142 -27 l 136 -27 m 271 305 l 465 305 q 623 375 553 305 q 671 522 671 425 q 623 669 671 613 q 465 739 562 739 l 271 739 l 271 305 z "},"ß":{"ha":861,"x_min":136,"x_max":759,"o":"m 136 -27 l 136 768 q 220 972 136 904 q 417 1038 300 1038 q 614 972 534 1038 q 699 778 699 904 q 604 585 699 673 q 667 545 638 572 q 759 320 759 463 q 668 85 759 182 q 417 -14 575 -14 l 363 -14 l 363 -7 l 417 109 q 575 178 514 109 q 623 319 623 233 q 584 446 623 399 q 417 509 530 509 l 362 509 l 362 516 l 417 631 q 532 677 492 631 q 563 778 563 711 q 523 889 563 848 q 417 930 483 930 q 311 889 351 930 q 271 778 271 848 l 271 34 l 142 -27 l 136 -27 z "},"à":{"ha":719,"x_min":68,"x_max":617,"o":"m 617 34 l 488 -27 l 481 -27 l 481 44 q 336 -14 427 -14 q 138 63 209 -14 q 68 244 68 140 q 144 429 68 353 q 336 502 218 502 q 481 444 419 502 q 439 602 481 564 q 336 639 399 639 l 171 639 l 171 646 l 225 760 l 336 760 q 533 683 454 760 q 617 488 617 601 l 617 34 m 201 244 q 237 144 201 184 q 336 106 273 106 q 439 145 403 106 q 480 243 480 189 q 438 342 480 304 q 337 380 396 380 q 238 340 275 380 q 201 244 201 300 m 292 1062 l 299 1062 l 409 828 l 330 791 l 323 791 l 173 1005 l 292 1062 z "},"á":{"ha":719,"x_min":68,"x_max":617,"o":"m 617 34 l 488 -27 l 481 -27 l 481 44 q 336 -14 427 -14 q 138 63 209 -14 q 68 244 68 140 q 144 429 68 353 q 336 502 218 502 q 481 444 419 502 q 439 602 481 564 q 336 639 399 639 l 171 639 l 171 646 l 225 760 l 336 760 q 533 683 454 760 q 617 488 617 601 l 617 34 m 201 244 q 237 144 201 184 q 336 106 273 106 q 439 145 403 106 q 480 243 480 189 q 438 342 480 304 q 337 380 396 380 q 238 340 275 380 q 201 244 201 300 m 450 1062 l 456 1062 l 576 1005 l 426 791 l 419 791 l 340 828 l 450 1062 z "},"â":{"ha":719,"x_min":68,"x_max":617,"o":"m 617 34 l 488 -27 l 481 -27 l 481 44 q 336 -14 427 -14 q 138 63 209 -14 q 68 244 68 140 q 144 429 68 353 q 336 502 218 502 q 481 444 419 502 q 439 602 481 564 q 336 639 399 639 l 171 639 l 171 646 l 225 760 l 336 760 q 533 683 454 760 q 617 488 617 601 l 617 34 m 201 244 q 237 144 201 184 q 336 106 273 106 q 439 145 403 106 q 480 243 480 189 q 438 342 480 304 q 337 380 396 380 q 238 340 275 380 q 201 244 201 300 m 186 828 l 290 1005 l 409 1062 l 416 1062 l 560 828 l 481 791 l 475 791 l 373 932 l 273 791 l 266 791 l 186 828 z "},"ã":{"ha":719,"x_min":68,"x_max":617,"o":"m 617 34 l 488 -27 l 481 -27 l 481 44 q 336 -14 427 -14 q 138 63 209 -14 q 68 244 68 140 q 144 429 68 353 q 336 502 218 502 q 481 444 419 502 q 439 602 481 564 q 336 639 399 639 l 171 639 l 171 646 l 225 760 l 336 760 q 533 683 454 760 q 617 488 617 601 l 617 34 m 201 244 q 237 144 201 184 q 336 106 273 106 q 439 145 403 106 q 480 243 480 189 q 438 342 480 304 q 337 380 396 380 q 238 340 275 380 q 201 244 201 300 m 218 836 q 314 1029 218 1029 q 407 982 357 1029 q 458 949 441 949 q 481 998 481 949 l 555 1029 l 559 1029 q 464 836 559 836 q 371 883 420 836 q 320 916 336 916 q 297 867 297 916 l 222 836 l 218 836 z "},"ä":{"ha":719,"x_min":68,"x_max":617,"o":"m 617 34 l 488 -27 l 481 -27 l 481 44 q 336 -14 427 -14 q 138 63 209 -14 q 68 244 68 140 q 144 429 68 353 q 336 502 218 502 q 481 444 419 502 q 439 602 481 564 q 336 639 399 639 l 171 639 l 171 646 l 225 760 l 336 760 q 533 683 454 760 q 617 488 617 601 l 617 34 m 201 244 q 237 144 201 184 q 336 106 273 106 q 439 145 403 106 q 480 243 480 189 q 438 342 480 304 q 337 380 396 380 q 238 340 275 380 q 201 244 201 300 m 415 896 q 403 908 415 896 q 391 955 391 920 q 415 1013 391 989 q 473 1038 439 1038 q 530 1013 507 1038 q 554 955 554 989 q 530 896 554 920 q 473 871 507 871 q 415 896 439 871 m 212 896 q 200 908 212 896 q 188 955 188 920 q 212 1013 188 989 q 269 1038 235 1038 q 327 1013 303 1038 q 351 955 351 989 q 327 896 351 920 q 269 871 303 871 q 212 896 235 871 z "},"å":{"ha":719,"x_min":68,"x_max":617,"o":"m 617 34 l 488 -27 l 481 -27 l 481 44 q 336 -14 427 -14 q 138 63 209 -14 q 68 244 68 140 q 144 429 68 353 q 336 502 218 502 q 481 444 419 502 q 439 602 481 564 q 336 639 399 639 l 171 639 l 171 646 l 225 760 l 336 760 q 533 683 454 760 q 617 488 617 601 l 617 34 m 201 244 q 237 144 201 184 q 336 106 273 106 q 439 145 403 106 q 480 243 480 189 q 438 342 480 304 q 337 380 396 380 q 238 340 275 380 q 201 244 201 300 m 465 839 q 373 806 427 806 q 281 839 319 806 q 239 934 239 876 q 281 1029 239 990 q 373 1062 317 1062 q 465 1029 427 1062 q 507 934 507 991 q 465 839 507 876 m 373 991 q 336 977 350 991 q 323 934 323 963 q 337 890 323 903 q 372 876 352 876 q 408 891 393 876 q 422 934 422 904 q 407 979 422 964 q 373 991 393 991 z "},"æ":{"ha":1146,"x_min":68,"x_max":1044,"o":"m 1044 300 l 1044 258 q 960 63 1044 146 q 763 -14 882 -14 q 613 38 670 -14 l 488 -27 l 481 -27 l 481 44 q 336 -14 427 -14 q 138 63 209 -14 q 68 244 68 140 q 144 429 68 353 q 336 502 218 502 q 481 444 425 502 q 439 602 481 564 q 336 639 399 639 l 171 639 l 171 646 l 225 760 l 336 760 q 522 681 444 760 q 549 646 537 666 q 576 680 562 665 q 763 760 661 760 q 960 683 878 760 q 1044 508 1044 604 l 1044 507 l 631 182 q 659 144 641 159 q 763 107 702 107 q 866 144 824 107 q 909 239 909 180 l 1038 300 l 1044 300 m 201 244 q 237 144 201 184 q 336 106 273 106 q 439 145 403 106 q 480 243 480 189 q 438 342 480 304 q 337 380 396 380 q 238 340 275 380 q 201 244 201 300 m 617 319 l 901 549 q 867 602 890 583 q 763 639 824 639 q 660 603 702 639 q 617 488 617 566 l 617 319 z "},"ç":{"ha":766,"x_min":102,"x_max":665,"o":"m 665 300 l 665 258 q 581 63 665 145 q 430 -10 518 2 q 480 -140 480 -68 q 406 -305 480 -233 l 399 -305 l 271 -244 q 361 -103 361 -185 q 328 -9 361 -58 q 186 63 246 5 q 102 258 102 144 l 102 488 q 186 683 102 601 q 383 760 264 760 q 581 683 499 760 q 665 508 665 604 l 665 507 l 536 446 l 529 446 l 529 488 q 487 603 529 566 q 383 639 444 639 q 280 603 322 639 q 237 488 237 566 l 237 258 q 280 143 237 180 q 383 107 322 107 q 487 144 444 107 q 529 239 529 180 l 658 300 l 665 300 z "},"è":{"ha":766,"x_min":102,"x_max":665,"o":"m 306 1062 l 313 1062 l 422 828 l 343 791 l 336 791 l 186 1005 l 306 1062 m 665 300 l 665 258 q 581 63 665 146 q 383 -14 502 -14 q 186 63 266 -14 q 102 258 102 144 l 102 488 q 186 683 102 600 q 383 760 264 760 q 581 683 498 760 q 665 508 665 604 l 665 507 l 251 182 q 279 144 261 159 q 383 107 322 107 q 487 144 444 107 q 529 239 529 180 l 658 300 l 665 300 m 237 319 l 521 549 q 487 602 510 583 q 383 639 444 639 q 280 603 322 639 q 237 488 237 566 l 237 319 z "},"é":{"ha":766,"x_min":102,"x_max":665,"o":"m 463 1062 l 470 1062 l 589 1005 l 439 791 l 433 791 l 353 828 l 463 1062 m 665 300 l 665 258 q 581 63 665 146 q 383 -14 502 -14 q 186 63 266 -14 q 102 258 102 144 l 102 488 q 186 683 102 600 q 383 760 264 760 q 581 683 498 760 q 665 508 665 604 l 665 507 l 251 182 q 279 144 261 159 q 383 107 322 107 q 487 144 444 107 q 529 239 529 180 l 658 300 l 665 300 m 237 319 l 521 549 q 487 602 510 583 q 383 639 444 639 q 280 603 322 639 q 237 488 237 566 l 237 319 z "},"ê":{"ha":766,"x_min":102,"x_max":665,"o":"m 199 828 l 303 1005 l 422 1062 l 429 1062 l 574 828 l 495 791 l 488 791 l 387 932 l 286 791 l 279 791 l 199 828 m 665 300 l 665 258 q 581 63 665 146 q 383 -14 502 -14 q 186 63 266 -14 q 102 258 102 144 l 102 488 q 186 683 102 600 q 383 760 264 760 q 581 683 498 760 q 665 508 665 604 l 665 507 l 251 182 q 279 144 261 159 q 383 107 322 107 q 487 144 444 107 q 529 239 529 180 l 658 300 l 665 300 m 237 319 l 521 549 q 487 602 510 583 q 383 639 444 639 q 280 603 322 639 q 237 488 237 566 l 237 319 z "},"ë":{"ha":766,"x_min":102,"x_max":665,"o":"m 429 896 q 417 908 429 896 q 405 955 405 920 q 429 1013 405 989 q 486 1038 452 1038 q 544 1013 520 1038 q 568 955 568 989 q 544 896 568 920 q 486 871 520 871 q 429 896 452 871 m 225 896 q 213 908 225 896 q 201 955 201 920 q 225 1013 201 989 q 283 1038 249 1038 q 340 1013 317 1038 q 364 955 364 989 q 340 896 364 920 q 283 871 317 871 q 225 896 249 871 m 665 300 l 665 258 q 581 63 665 146 q 383 -14 502 -14 q 186 63 266 -14 q 102 258 102 144 l 102 488 q 186 683 102 600 q 383 760 264 760 q 581 683 498 760 q 665 508 665 604 l 665 507 l 251 182 q 279 144 261 159 q 383 107 322 107 q 487 144 444 107 q 529 239 529 180 l 658 300 l 665 300 m 237 319 l 521 549 q 487 602 510 583 q 383 639 444 639 q 280 603 322 639 q 237 488 237 566 l 237 319 z "},"ì":{"ha":407,"x_min":45,"x_max":281,"o":"m 136 -27 l 136 712 l 264 773 l 271 773 l 271 34 l 142 -27 l 136 -27 m 164 1062 l 171 1062 l 281 828 l 201 791 l 195 791 l 45 1005 l 164 1062 z "},"í":{"ha":407,"x_min":126,"x_max":362,"o":"m 236 1062 l 243 1062 l 362 1005 l 212 791 l 205 791 l 126 828 l 236 1062 m 136 -27 l 136 712 l 264 773 l 271 773 l 271 34 l 142 -27 l 136 -27 z "},"î":{"ha":407,"x_min":16,"x_max":391,"o":"m 16 828 l 120 1005 l 239 1062 l 246 1062 l 391 828 l 312 791 l 305 791 l 203 932 l 103 791 l 96 791 l 16 828 m 136 -27 l 136 712 l 264 773 l 271 773 l 271 34 l 142 -27 l 136 -27 z "},"ï":{"ha":407,"x_min":20,"x_max":387,"o":"m 136 -27 l 136 712 l 264 773 l 271 773 l 271 34 l 142 -27 l 136 -27 m 248 896 q 236 908 248 896 q 224 955 224 920 q 248 1013 224 989 q 305 1038 271 1038 q 363 1013 339 1038 q 387 955 387 989 q 363 896 387 920 q 305 871 339 871 q 248 896 271 871 m 44 896 q 32 908 44 896 q 20 955 20 920 q 44 1013 20 989 q 102 1038 68 1038 q 159 1013 136 1038 q 183 955 183 989 q 159 896 183 920 q 102 871 136 871 q 44 896 68 871 z "},"ð":{"ha":800,"x_min":102,"x_max":760,"o":"m 237 258 q 279 144 237 180 q 383 107 322 107 q 487 144 441 107 q 529 258 529 178 l 529 351 q 487 465 529 429 q 383 502 444 502 q 279 465 326 502 q 237 351 237 431 l 237 258 m 102 258 l 102 351 q 186 546 102 463 q 383 623 264 623 q 529 586 467 623 l 529 712 q 524 765 529 740 l 439 701 l 433 701 l 326 747 l 480 863 q 322 929 412 918 l 322 1051 q 587 942 481 1051 l 647 987 l 654 987 l 760 941 l 640 851 q 665 712 665 789 l 665 258 q 581 63 665 146 q 383 -14 502 -14 q 186 63 266 -14 q 102 258 102 144 z "},"ñ":{"ha":766,"x_min":102,"x_max":665,"o":"m 232 836 q 328 1029 232 1029 q 420 982 371 1029 q 471 949 455 949 q 494 998 494 949 l 569 1029 l 573 1029 q 477 836 573 836 q 385 883 434 836 q 334 916 350 916 q 311 867 311 916 l 236 836 l 232 836 m 102 -27 l 102 488 q 186 683 102 600 q 383 760 264 760 q 581 683 500 760 q 665 488 665 602 l 665 34 l 536 -27 l 529 -27 l 529 488 q 487 603 529 566 q 383 639 444 639 q 280 603 322 639 q 237 488 237 566 l 237 34 l 109 -27 l 102 -27 z "},"ò":{"ha":766,"x_min":102,"x_max":665,"o":"m 306 1062 l 313 1062 l 422 828 l 343 791 l 336 791 l 186 1005 l 306 1062 m 102 258 l 102 488 q 186 683 102 600 q 383 760 264 760 q 581 683 500 760 q 665 488 665 602 l 665 258 q 581 63 665 146 q 383 -14 502 -14 q 186 63 266 -14 q 102 258 102 144 m 237 258 q 280 143 237 180 q 383 107 322 107 q 487 143 444 107 q 529 258 529 180 l 529 488 q 487 603 529 566 q 383 639 444 639 q 280 603 322 639 q 237 488 237 566 l 237 258 z "},"ó":{"ha":766,"x_min":102,"x_max":665,"o":"m 463 1062 l 470 1062 l 589 1005 l 439 791 l 433 791 l 353 828 l 463 1062 m 102 258 l 102 488 q 186 683 102 600 q 383 760 264 760 q 581 683 500 760 q 665 488 665 602 l 665 258 q 581 63 665 146 q 383 -14 502 -14 q 186 63 266 -14 q 102 258 102 144 m 237 258 q 280 143 237 180 q 383 107 322 107 q 487 143 444 107 q 529 258 529 180 l 529 488 q 487 603 529 566 q 383 639 444 639 q 280 603 322 639 q 237 488 237 566 l 237 258 z "},"ô":{"ha":766,"x_min":102,"x_max":665,"o":"m 199 828 l 303 1005 l 422 1062 l 429 1062 l 574 828 l 495 791 l 488 791 l 387 932 l 286 791 l 279 791 l 199 828 m 102 258 l 102 488 q 186 683 102 600 q 383 760 264 760 q 581 683 500 760 q 665 488 665 602 l 665 258 q 581 63 665 146 q 383 -14 502 -14 q 186 63 266 -14 q 102 258 102 144 m 237 258 q 280 143 237 180 q 383 107 322 107 q 487 143 444 107 q 529 258 529 180 l 529 488 q 487 603 529 566 q 383 639 444 639 q 280 603 322 639 q 237 488 237 566 l 237 258 z "},"õ":{"ha":766,"x_min":102,"x_max":665,"o":"m 232 836 q 328 1029 232 1029 q 420 982 371 1029 q 471 949 455 949 q 494 998 494 949 l 569 1029 l 573 1029 q 477 836 573 836 q 385 883 434 836 q 334 916 350 916 q 311 867 311 916 l 236 836 l 232 836 m 102 258 l 102 488 q 186 683 102 600 q 383 760 264 760 q 581 683 500 760 q 665 488 665 602 l 665 258 q 581 63 665 146 q 383 -14 502 -14 q 186 63 266 -14 q 102 258 102 144 m 237 258 q 280 143 237 180 q 383 107 322 107 q 487 143 444 107 q 529 258 529 180 l 529 488 q 487 603 529 566 q 383 639 444 639 q 280 603 322 639 q 237 488 237 566 l 237 258 z "},"ö":{"ha":766,"x_min":102,"x_max":665,"o":"m 429 896 q 417 908 429 896 q 405 955 405 920 q 429 1013 405 989 q 486 1038 452 1038 q 544 1013 520 1038 q 568 955 568 989 q 544 896 568 920 q 486 871 520 871 q 429 896 452 871 m 225 896 q 213 908 225 896 q 201 955 201 920 q 225 1013 201 989 q 283 1038 249 1038 q 340 1013 317 1038 q 364 955 364 989 q 340 896 364 920 q 283 871 317 871 q 225 896 249 871 m 102 258 l 102 488 q 186 683 102 600 q 383 760 264 760 q 581 683 500 760 q 665 488 665 602 l 665 258 q 581 63 665 146 q 383 -14 502 -14 q 186 63 266 -14 q 102 258 102 144 m 237 258 q 280 143 237 180 q 383 107 322 107 q 487 143 444 107 q 529 258 529 180 l 529 488 q 487 603 529 566 q 383 639 444 639 q 280 603 322 639 q 237 488 237 566 l 237 258 z "},"÷":{"ha":823,"x_min":102,"x_max":722,"o":"m 355 679 q 343 691 355 679 q 331 738 331 703 q 355 796 331 772 q 412 821 378 821 q 470 796 446 821 q 494 738 494 772 q 470 679 494 703 q 412 654 446 654 q 355 679 378 654 m 355 231 q 343 243 355 231 q 331 290 331 256 q 355 349 331 324 q 412 373 378 373 q 470 349 446 373 q 494 290 494 324 q 470 231 494 256 q 412 207 446 207 q 355 231 378 207 m 102 450 l 102 457 l 157 574 l 722 574 l 722 567 l 667 450 l 102 450 z "},"ø":{"ha":766,"x_min":102,"x_max":665,"o":"m 243 -27 l 237 -27 l 166 7 l 191 59 q 102 258 102 140 l 102 488 q 186 683 102 600 q 383 760 264 760 q 505 735 450 760 l 522 773 l 529 773 l 600 739 l 576 687 q 665 488 665 602 l 665 258 q 581 63 665 146 q 383 -14 502 -14 q 261 12 316 -14 l 243 -27 m 453 625 q 383 639 422 639 q 280 603 322 639 q 237 488 237 566 l 237 258 q 250 186 237 216 l 453 625 m 517 559 l 313 122 q 383 107 345 107 q 487 143 444 107 q 529 258 529 180 l 529 488 q 517 559 529 530 z "},"ù":{"ha":766,"x_min":102,"x_max":665,"o":"m 306 1062 l 313 1062 l 422 828 l 343 791 l 336 791 l 186 1005 l 306 1062 m 665 773 l 665 258 q 581 63 665 146 q 383 -14 502 -14 q 186 63 266 -14 q 102 258 102 144 l 102 712 l 231 773 l 237 773 l 237 258 q 280 143 237 180 q 383 107 322 107 q 487 143 444 107 q 529 258 529 180 l 529 712 l 658 773 l 665 773 z "},"ú":{"ha":766,"x_min":102,"x_max":665,"o":"m 463 1062 l 470 1062 l 589 1005 l 439 791 l 433 791 l 353 828 l 463 1062 m 665 773 l 665 258 q 581 63 665 146 q 383 -14 502 -14 q 186 63 266 -14 q 102 258 102 144 l 102 712 l 231 773 l 237 773 l 237 258 q 280 143 237 180 q 383 107 322 107 q 487 143 444 107 q 529 258 529 180 l 529 712 l 658 773 l 665 773 z "},"û":{"ha":766,"x_min":102,"x_max":665,"o":"m 199 828 l 303 1005 l 422 1062 l 429 1062 l 574 828 l 495 791 l 488 791 l 387 932 l 286 791 l 279 791 l 199 828 m 665 773 l 665 258 q 581 63 665 146 q 383 -14 502 -14 q 186 63 266 -14 q 102 258 102 144 l 102 712 l 231 773 l 237 773 l 237 258 q 280 143 237 180 q 383 107 322 107 q 487 143 444 107 q 529 258 529 180 l 529 712 l 658 773 l 665 773 z "},"ü":{"ha":766,"x_min":102,"x_max":665,"o":"m 429 896 q 417 908 429 896 q 405 955 405 920 q 429 1013 405 989 q 486 1038 452 1038 q 544 1013 520 1038 q 568 955 568 989 q 544 896 568 920 q 486 871 520 871 q 429 896 452 871 m 225 896 q 213 908 225 896 q 201 955 201 920 q 225 1013 201 989 q 283 1038 249 1038 q 340 1013 317 1038 q 364 955 364 989 q 340 896 364 920 q 283 871 317 871 q 225 896 249 871 m 665 773 l 665 258 q 581 63 665 146 q 383 -14 502 -14 q 186 63 266 -14 q 102 258 102 144 l 102 712 l 231 773 l 237 773 l 237 258 q 280 143 237 180 q 383 107 322 107 q 487 143 444 107 q 529 258 529 180 l 529 712 l 658 773 l 665 773 z "},"ý":{"ha":800,"x_min":102,"x_max":665,"o":"m 102 258 l 102 712 l 231 773 l 237 773 l 237 258 q 280 143 237 180 q 383 107 322 107 q 487 143 444 107 q 529 258 529 180 l 529 712 l 658 773 l 665 773 l 665 -20 q 581 -215 665 -132 q 383 -292 502 -292 l 174 -292 l 174 -285 l 229 -171 l 383 -171 q 487 -134 444 -171 q 529 -20 529 -98 l 529 44 q 383 -14 479 -14 q 186 63 267 -14 q 102 258 102 143 m 463 1062 l 470 1062 l 589 1005 l 439 791 l 433 791 l 353 828 l 463 1062 z "},"þ":{"ha":800,"x_min":136,"x_max":699,"o":"m 136 990 l 264 1051 l 271 1051 l 271 702 q 417 760 328 760 q 614 683 534 760 q 699 488 699 602 l 699 258 q 614 63 699 146 q 417 -14 536 -14 q 271 44 335 -14 l 271 -244 l 142 -305 l 136 -305 l 136 990 m 563 488 q 520 603 563 566 q 417 639 478 639 q 314 603 356 639 q 271 488 271 566 l 271 258 q 314 143 271 180 q 417 107 356 107 q 520 143 478 107 q 563 258 563 180 l 563 488 z "},"ÿ":{"ha":800,"x_min":102,"x_max":665,"o":"m 102 258 l 102 712 l 231 773 l 237 773 l 237 258 q 280 143 237 180 q 383 107 322 107 q 487 143 444 107 q 529 258 529 180 l 529 712 l 658 773 l 665 773 l 665 -20 q 581 -215 665 -132 q 383 -292 502 -292 l 174 -292 l 174 -285 l 229 -171 l 383 -171 q 487 -134 444 -171 q 529 -20 529 -98 l 529 44 q 383 -14 479 -14 q 186 63 267 -14 q 102 258 102 143 m 429 896 q 417 908 429 896 q 405 955 405 920 q 429 1013 405 989 q 486 1038 452 1038 q 544 1013 520 1038 q 568 955 568 989 q 544 896 568 920 q 486 871 520 871 q 429 896 452 871 m 225 896 q 213 908 225 896 q 201 955 201 920 q 225 1013 201 989 q 283 1038 249 1038 q 340 1013 317 1038 q 364 955 364 989 q 340 896 364 920 q 283 871 317 871 q 225 896 249 871 z "},"Ā":{"ha":956,"x_min":136,"x_max":821,"o":"m 317 1111 l 317 1118 l 372 1234 l 682 1234 l 682 1227 l 627 1111 l 317 1111 m 136 -27 l 136 699 q 227 939 136 845 q 478 1038 323 1038 q 729 939 630 1038 q 821 699 821 848 l 821 34 l 692 -27 l 685 -27 l 685 450 l 271 450 l 271 34 l 142 -27 l 136 -27 m 271 574 l 685 574 l 685 699 q 636 846 685 789 q 478 916 576 916 q 320 846 380 916 q 271 699 271 789 l 271 574 z "},"ā":{"ha":719,"x_min":68,"x_max":617,"o":"m 617 34 l 488 -27 l 481 -27 l 481 44 q 336 -14 427 -14 q 138 63 209 -14 q 68 244 68 140 q 144 429 68 353 q 336 502 218 502 q 481 444 419 502 q 439 602 481 564 q 336 639 399 639 l 171 639 l 171 646 l 225 760 l 336 760 q 533 683 454 760 q 617 488 617 601 l 617 34 m 201 244 q 237 144 201 184 q 336 106 273 106 q 439 145 403 106 q 480 243 480 189 q 438 342 480 304 q 337 380 396 380 q 238 340 275 380 q 201 244 201 300 m 203 836 l 203 842 l 258 959 l 569 959 l 569 952 l 514 836 l 203 836 z "},"Ă":{"ha":956,"x_min":136,"x_max":821,"o":"m 317 1213 l 317 1219 l 368 1320 q 484 1230 416 1230 q 601 1320 552 1230 l 652 1219 l 652 1213 q 483 1111 583 1111 q 317 1213 378 1111 m 136 -27 l 136 699 q 227 939 136 845 q 478 1038 323 1038 q 729 939 630 1038 q 821 699 821 848 l 821 34 l 692 -27 l 685 -27 l 685 450 l 271 450 l 271 34 l 142 -27 l 136 -27 m 271 574 l 685 574 l 685 699 q 636 846 685 789 q 478 916 576 916 q 320 846 380 916 q 271 699 271 789 l 271 574 z "},"ă":{"ha":719,"x_min":68,"x_max":617,"o":"m 617 34 l 488 -27 l 481 -27 l 481 44 q 336 -14 427 -14 q 138 63 209 -14 q 68 244 68 140 q 144 429 68 353 q 336 502 218 502 q 481 444 419 502 q 439 602 481 564 q 336 639 399 639 l 171 639 l 171 646 l 225 760 l 336 760 q 533 683 454 760 q 617 488 617 601 l 617 34 m 201 244 q 237 144 201 184 q 336 106 273 106 q 439 145 403 106 q 480 243 480 189 q 438 342 480 304 q 337 380 396 380 q 238 340 275 380 q 201 244 201 300 m 203 937 l 203 944 l 254 1045 q 370 954 302 954 q 487 1045 438 954 l 538 944 l 538 937 q 369 836 469 836 q 203 937 264 836 z "},"Ą":{"ha":956,"x_min":136,"x_max":821,"o":"m 271 574 l 685 574 l 685 699 q 636 846 685 789 q 478 916 576 916 q 320 846 380 916 q 271 699 271 789 l 271 574 m 136 -27 l 136 699 q 227 939 136 845 q 478 1038 323 1038 q 729 939 630 1038 q 821 699 821 848 l 821 34 l 699 -24 q 675 -103 675 -64 q 766 -244 675 -185 l 637 -305 l 631 -305 q 557 -140 557 -233 q 685 56 557 -26 l 685 450 l 271 450 l 271 34 l 142 -27 l 136 -27 z "},"ą":{"ha":719,"x_min":68,"x_max":629,"o":"m 201 244 q 237 144 201 184 q 336 106 273 106 q 439 145 403 106 q 480 243 480 189 q 438 342 480 304 q 337 380 396 380 q 238 340 275 380 q 201 244 201 300 m 617 34 l 597 24 q 538 -103 538 -43 q 629 -244 538 -185 l 500 -305 l 494 -305 q 420 -140 420 -233 q 481 3 420 -61 l 481 44 q 336 -14 427 -14 q 138 63 209 -14 q 68 244 68 140 q 144 429 68 353 q 336 502 218 502 q 481 444 419 502 q 439 602 481 564 q 336 639 399 639 l 171 639 l 171 646 l 225 760 l 336 760 q 533 683 454 760 q 617 488 617 601 l 617 34 z "},"Ć":{"ha":956,"x_min":136,"x_max":821,"o":"m 554 1333 l 561 1333 l 680 1276 l 530 1062 l 524 1062 l 444 1099 l 554 1333 m 821 373 l 821 326 q 729 85 821 178 q 478 -14 633 -14 q 227 85 323 -14 q 136 326 136 178 l 136 699 q 227 939 136 846 q 478 1038 323 1038 q 729 939 638 1038 q 821 712 821 841 l 692 651 l 685 651 l 685 699 q 636 846 685 789 q 478 916 576 916 q 320 846 380 916 q 271 699 271 789 l 271 326 q 320 178 271 235 q 478 109 380 109 q 636 178 576 109 q 685 312 685 235 l 814 373 l 821 373 z "},"ć":{"ha":766,"x_min":102,"x_max":665,"o":"m 463 1062 l 470 1062 l 589 1005 l 439 791 l 433 791 l 353 828 l 463 1062 m 665 300 l 665 258 q 581 63 665 146 q 383 -14 502 -14 q 186 63 266 -14 q 102 258 102 144 l 102 488 q 186 683 102 601 q 383 760 264 760 q 581 683 499 760 q 665 508 665 604 l 665 507 l 536 446 l 529 446 l 529 488 q 487 603 529 566 q 383 639 444 639 q 280 603 322 639 q 237 488 237 566 l 237 258 q 280 143 237 180 q 383 107 322 107 q 487 144 444 107 q 529 239 529 180 l 658 300 l 665 300 z "},"Ĉ":{"ha":956,"x_min":136,"x_max":821,"o":"m 294 1099 l 398 1276 l 517 1333 l 524 1333 l 669 1099 l 590 1062 l 583 1062 l 481 1203 l 381 1062 l 374 1062 l 294 1099 m 821 373 l 821 326 q 729 85 821 178 q 478 -14 633 -14 q 227 85 323 -14 q 136 326 136 178 l 136 699 q 227 939 136 846 q 478 1038 323 1038 q 729 939 638 1038 q 821 712 821 841 l 692 651 l 685 651 l 685 699 q 636 846 685 789 q 478 916 576 916 q 320 846 380 916 q 271 699 271 789 l 271 326 q 320 178 271 235 q 478 109 380 109 q 636 178 576 109 q 685 312 685 235 l 814 373 l 821 373 z "},"ĉ":{"ha":766,"x_min":102,"x_max":665,"o":"m 199 828 l 303 1005 l 422 1062 l 429 1062 l 574 828 l 495 791 l 488 791 l 387 932 l 286 791 l 279 791 l 199 828 m 665 300 l 665 258 q 581 63 665 146 q 383 -14 502 -14 q 186 63 266 -14 q 102 258 102 144 l 102 488 q 186 683 102 601 q 383 760 264 760 q 581 683 499 760 q 665 508 665 604 l 665 507 l 536 446 l 529 446 l 529 488 q 487 603 529 566 q 383 639 444 639 q 280 603 322 639 q 237 488 237 566 l 237 258 q 280 143 237 180 q 383 107 322 107 q 487 144 444 107 q 529 239 529 180 l 658 300 l 665 300 z "},"Ċ":{"ha":956,"x_min":136,"x_max":821,"o":"m 420 1164 q 409 1176 420 1164 q 397 1222 397 1188 q 420 1281 397 1257 q 478 1305 444 1305 q 536 1281 512 1305 q 559 1222 559 1257 q 536 1164 559 1188 q 478 1139 512 1139 q 420 1164 444 1139 m 821 373 l 821 326 q 729 85 821 178 q 478 -14 633 -14 q 227 85 323 -14 q 136 326 136 178 l 136 699 q 227 939 136 846 q 478 1038 323 1038 q 729 939 638 1038 q 821 712 821 841 l 692 651 l 685 651 l 685 699 q 636 846 685 789 q 478 916 576 916 q 320 846 380 916 q 271 699 271 789 l 271 326 q 320 178 271 235 q 478 109 380 109 q 636 178 576 109 q 685 312 685 235 l 814 373 l 821 373 z "},"ċ":{"ha":766,"x_min":102,"x_max":665,"o":"m 326 896 q 314 908 326 896 q 302 955 302 920 q 326 1013 302 989 q 383 1038 349 1038 q 441 1013 417 1038 q 465 955 465 989 q 441 896 465 920 q 383 871 417 871 q 326 896 349 871 m 665 300 l 665 258 q 581 63 665 146 q 383 -14 502 -14 q 186 63 266 -14 q 102 258 102 144 l 102 488 q 186 683 102 601 q 383 760 264 760 q 581 683 499 760 q 665 508 665 604 l 665 507 l 536 446 l 529 446 l 529 488 q 487 603 529 566 q 383 639 444 639 q 280 603 322 639 q 237 488 237 566 l 237 258 q 280 143 237 180 q 383 107 322 107 q 487 144 444 107 q 529 239 529 180 l 658 300 l 665 300 z "},"Č":{"ha":956,"x_min":136,"x_max":821,"o":"m 439 1062 l 294 1296 l 373 1333 l 380 1333 l 481 1192 l 582 1333 l 589 1333 l 669 1296 l 565 1119 l 446 1062 l 439 1062 m 821 373 l 821 326 q 729 85 821 178 q 478 -14 633 -14 q 227 85 323 -14 q 136 326 136 178 l 136 699 q 227 939 136 846 q 478 1038 323 1038 q 729 939 638 1038 q 821 712 821 841 l 692 651 l 685 651 l 685 699 q 636 846 685 789 q 478 916 576 916 q 320 846 380 916 q 271 699 271 789 l 271 326 q 320 178 271 235 q 478 109 380 109 q 636 178 576 109 q 685 312 685 235 l 814 373 l 821 373 z "},"č":{"ha":766,"x_min":102,"x_max":665,"o":"m 326 791 l 181 1025 l 260 1062 l 267 1062 l 368 921 l 469 1062 l 475 1062 l 555 1025 l 452 848 l 332 791 l 326 791 m 665 300 l 665 258 q 581 63 665 146 q 383 -14 502 -14 q 186 63 266 -14 q 102 258 102 144 l 102 488 q 186 683 102 601 q 383 760 264 760 q 581 683 499 760 q 665 508 665 604 l 665 507 l 536 446 l 529 446 l 529 488 q 487 603 529 566 q 383 639 444 639 q 280 603 322 639 q 237 488 237 566 l 237 258 q 280 143 237 180 q 383 107 322 107 q 487 144 444 107 q 529 239 529 180 l 658 300 l 665 300 z "},"Ď":{"ha":943,"x_min":136,"x_max":807,"o":"m 392 1062 l 248 1296 l 326 1333 l 333 1333 l 435 1192 l 535 1333 l 542 1333 l 622 1296 l 518 1119 l 399 1062 l 392 1062 m 136 0 l 136 990 l 208 1024 l 465 1024 q 715 926 619 1024 q 807 685 807 833 l 807 339 q 715 98 807 192 q 465 0 619 0 l 136 0 m 271 122 l 465 122 q 623 192 562 122 q 671 339 671 248 l 671 685 q 623 832 671 776 q 465 902 562 902 l 271 902 l 271 122 z "},"ď":{"ha":821,"x_min":102,"x_max":922,"o":"m 237 258 q 280 143 237 180 q 383 107 322 107 q 487 143 444 107 q 529 258 529 180 l 529 488 q 487 603 529 566 q 383 639 444 639 q 280 603 322 639 q 237 488 237 566 l 237 258 m 102 258 l 102 488 q 186 683 102 600 q 383 760 264 760 q 529 702 473 760 l 529 990 l 658 1051 l 665 1051 l 665 258 q 581 63 665 146 q 383 -14 502 -14 q 186 63 266 -14 q 102 258 102 144 m 796 1062 l 803 1062 l 922 1005 l 772 791 l 766 791 l 686 828 l 796 1062 z "},"Đ":{"ha":943,"x_min":34,"x_max":807,"o":"m 271 122 l 465 122 q 623 192 562 122 q 671 339 671 248 l 671 685 q 623 832 671 776 q 465 902 562 902 l 271 902 l 271 574 l 553 574 l 553 567 l 498 450 l 271 450 l 271 122 m 136 0 l 136 450 l 34 450 l 34 457 l 89 574 l 136 574 l 136 990 l 208 1024 l 465 1024 q 715 926 619 1024 q 807 685 807 833 l 807 339 q 715 98 807 192 q 465 0 619 0 l 136 0 z "},"đ":{"ha":800,"x_min":102,"x_max":766,"o":"m 102 258 l 102 488 q 186 683 102 600 q 383 760 264 760 q 529 702 472 760 l 529 826 l 351 826 l 351 833 l 406 949 l 529 949 l 529 990 l 658 1051 l 665 1051 l 665 949 l 766 949 l 766 943 l 711 826 l 665 826 l 665 258 q 581 63 665 146 q 383 -14 502 -14 q 186 63 266 -14 q 102 258 102 144 m 237 258 q 280 143 237 180 q 383 107 322 107 q 487 143 444 107 q 529 258 529 180 l 529 488 q 487 603 529 566 q 383 639 444 639 q 280 603 322 639 q 237 488 237 566 l 237 258 z "},"Ē":{"ha":785,"x_min":136,"x_max":751,"o":"m 235 1111 l 235 1118 l 290 1234 l 600 1234 l 600 1227 l 545 1111 l 235 1111 m 136 0 l 136 990 l 208 1024 l 637 1024 l 637 1017 l 583 901 l 271 901 l 271 574 l 637 574 l 637 567 l 583 450 l 271 450 l 271 123 l 751 123 l 751 117 l 696 0 l 136 0 z "},"ē":{"ha":766,"x_min":102,"x_max":665,"o":"m 217 836 l 217 842 l 272 959 l 583 959 l 583 952 l 528 836 l 217 836 m 665 300 l 665 258 q 581 63 665 146 q 383 -14 502 -14 q 186 63 266 -14 q 102 258 102 144 l 102 488 q 186 683 102 600 q 383 760 264 760 q 581 683 498 760 q 665 508 665 604 l 665 507 l 251 182 q 279 144 261 159 q 383 107 322 107 q 487 144 444 107 q 529 239 529 180 l 658 300 l 665 300 m 237 319 l 521 549 q 487 602 510 583 q 383 639 444 639 q 280 603 322 639 q 237 488 237 566 l 237 319 z "},"Ĕ":{"ha":785,"x_min":136,"x_max":751,"o":"m 229 1213 l 229 1219 l 279 1320 q 396 1230 328 1230 q 513 1320 464 1230 l 564 1219 l 564 1213 q 395 1111 495 1111 q 229 1213 290 1111 m 136 0 l 136 990 l 208 1024 l 637 1024 l 637 1017 l 583 901 l 271 901 l 271 574 l 637 574 l 637 567 l 583 450 l 271 450 l 271 123 l 751 123 l 751 117 l 696 0 l 136 0 z "},"ĕ":{"ha":766,"x_min":102,"x_max":665,"o":"m 217 937 l 217 944 l 267 1045 q 384 954 316 954 q 500 1045 452 954 l 552 944 l 552 937 q 382 836 483 836 q 217 937 278 836 m 665 300 l 665 258 q 581 63 665 146 q 383 -14 502 -14 q 186 63 266 -14 q 102 258 102 144 l 102 488 q 186 683 102 600 q 383 760 264 760 q 581 683 498 760 q 665 508 665 604 l 665 507 l 251 182 q 279 144 261 159 q 383 107 322 107 q 487 144 444 107 q 529 239 529 180 l 658 300 l 665 300 m 237 319 l 521 549 q 487 602 510 583 q 383 639 444 639 q 280 603 322 639 q 237 488 237 566 l 237 319 z "},"Ė":{"ha":785,"x_min":136,"x_max":751,"o":"m 340 1164 q 328 1176 340 1164 q 316 1222 316 1188 q 340 1281 316 1257 q 397 1305 363 1305 q 455 1281 431 1305 q 479 1222 479 1257 q 455 1164 479 1188 q 397 1139 431 1139 q 340 1164 363 1139 m 136 0 l 136 990 l 208 1024 l 637 1024 l 637 1017 l 583 901 l 271 901 l 271 574 l 637 574 l 637 567 l 583 450 l 271 450 l 271 123 l 751 123 l 751 117 l 696 0 l 136 0 z "},"ė":{"ha":766,"x_min":102,"x_max":665,"o":"m 326 896 q 314 908 326 896 q 302 955 302 920 q 326 1013 302 989 q 383 1038 349 1038 q 441 1013 417 1038 q 465 955 465 989 q 441 896 465 920 q 383 871 417 871 q 326 896 349 871 m 665 300 l 665 258 q 581 63 665 146 q 383 -14 502 -14 q 186 63 266 -14 q 102 258 102 144 l 102 488 q 186 683 102 600 q 383 760 264 760 q 581 683 498 760 q 665 508 665 604 l 665 507 l 251 182 q 279 144 261 159 q 383 107 322 107 q 487 144 444 107 q 529 239 529 180 l 658 300 l 665 300 m 237 319 l 521 549 q 487 602 510 583 q 383 639 444 639 q 280 603 322 639 q 237 488 237 566 l 237 319 z "},"Ę":{"ha":785,"x_min":136,"x_max":751,"o":"m 136 0 l 136 990 l 208 1024 l 637 1024 l 637 1017 l 583 901 l 271 901 l 271 574 l 637 574 l 637 567 l 583 450 l 271 450 l 271 123 l 751 123 l 751 117 l 696 0 l 675 0 q 635 -103 635 -54 q 726 -244 635 -185 l 597 -305 l 591 -305 q 517 -140 517 -233 q 576 0 517 -62 l 136 0 z "},"ę":{"ha":766,"x_min":102,"x_max":665,"o":"m 237 319 l 521 549 q 487 602 510 583 q 383 639 444 639 q 280 603 322 639 q 237 488 237 566 l 237 319 m 665 300 l 665 258 q 581 63 665 142 q 555 41 568 52 q 481 -103 481 -35 q 572 -244 481 -185 l 443 -305 l 436 -305 q 362 -140 362 -233 q 410 -12 362 -70 q 383 -14 397 -14 q 186 63 266 -14 q 102 258 102 144 l 102 488 q 186 683 102 600 q 383 760 264 760 q 581 683 498 760 q 665 508 665 604 l 665 507 l 251 182 q 279 144 261 159 q 383 107 322 107 q 487 144 444 107 q 529 239 529 180 l 658 300 l 665 300 z "},"Ě":{"ha":785,"x_min":136,"x_max":751,"o":"m 361 1062 l 217 1296 l 296 1333 l 302 1333 l 404 1192 l 505 1333 l 511 1333 l 591 1296 l 488 1119 l 368 1062 l 361 1062 m 136 0 l 136 990 l 208 1024 l 637 1024 l 637 1017 l 583 901 l 271 901 l 271 574 l 637 574 l 637 567 l 583 450 l 271 450 l 271 123 l 751 123 l 751 117 l 696 0 l 136 0 z "},"ě":{"ha":766,"x_min":102,"x_max":665,"o":"m 326 791 l 181 1025 l 260 1062 l 267 1062 l 368 921 l 469 1062 l 475 1062 l 555 1025 l 452 848 l 332 791 l 326 791 m 665 300 l 665 258 q 581 63 665 146 q 383 -14 502 -14 q 186 63 266 -14 q 102 258 102 144 l 102 488 q 186 683 102 600 q 383 760 264 760 q 581 683 498 760 q 665 508 665 604 l 665 507 l 251 182 q 279 144 261 159 q 383 107 322 107 q 487 144 444 107 q 529 239 529 180 l 658 300 l 665 300 m 237 319 l 521 549 q 487 602 510 583 q 383 639 444 639 q 280 603 322 639 q 237 488 237 566 l 237 319 z "},"Ĝ":{"ha":956,"x_min":136,"x_max":821,"o":"m 294 1099 l 398 1276 l 517 1333 l 524 1333 l 669 1099 l 590 1062 l 583 1062 l 481 1203 l 381 1062 l 374 1062 l 294 1099 m 821 574 l 821 326 q 729 85 821 178 q 478 -14 633 -14 q 227 85 323 -14 q 136 326 136 178 l 136 699 q 227 939 136 846 q 478 1038 323 1038 q 729 939 638 1038 q 821 712 821 841 l 692 651 l 685 651 l 685 699 q 636 846 685 789 q 478 916 576 916 q 320 846 380 916 q 271 699 271 789 l 271 326 q 320 178 271 235 q 478 109 380 109 q 636 178 576 109 q 685 312 685 235 l 685 450 l 449 450 l 449 457 l 504 574 l 821 574 z "},"ĝ":{"ha":787,"x_min":102,"x_max":665,"o":"m 237 258 q 280 143 237 180 q 383 107 322 107 q 487 143 444 107 q 529 258 529 180 l 529 488 q 487 603 529 566 q 383 639 444 639 q 280 603 322 639 q 237 488 237 566 l 237 258 m 102 258 l 102 488 q 186 683 102 600 q 383 760 264 760 q 581 683 502 760 q 665 488 665 601 l 665 -20 q 581 -215 665 -132 q 383 -292 502 -292 l 174 -292 l 174 -285 l 229 -171 l 383 -171 q 487 -135 444 -171 q 529 -20 529 -98 l 529 44 q 383 -14 477 -14 q 186 63 266 -14 q 102 258 102 144 m 199 828 l 303 1005 l 422 1062 l 429 1062 l 574 828 l 495 791 l 488 791 l 387 932 l 286 791 l 279 791 l 199 828 z "},"Ğ":{"ha":956,"x_min":136,"x_max":821,"o":"m 317 1213 l 317 1219 l 368 1320 q 484 1230 416 1230 q 601 1320 552 1230 l 652 1219 l 652 1213 q 483 1111 583 1111 q 317 1213 378 1111 m 821 574 l 821 326 q 729 85 821 178 q 478 -14 633 -14 q 227 85 323 -14 q 136 326 136 178 l 136 699 q 227 939 136 846 q 478 1038 323 1038 q 729 939 638 1038 q 821 712 821 841 l 692 651 l 685 651 l 685 699 q 636 846 685 789 q 478 916 576 916 q 320 846 380 916 q 271 699 271 789 l 271 326 q 320 178 271 235 q 478 109 380 109 q 636 178 576 109 q 685 312 685 235 l 685 450 l 449 450 l 449 457 l 504 574 l 821 574 z "},"ğ":{"ha":787,"x_min":102,"x_max":665,"o":"m 237 258 q 280 143 237 180 q 383 107 322 107 q 487 143 444 107 q 529 258 529 180 l 529 488 q 487 603 529 566 q 383 639 444 639 q 280 603 322 639 q 237 488 237 566 l 237 258 m 102 258 l 102 488 q 186 683 102 600 q 383 760 264 760 q 581 683 502 760 q 665 488 665 601 l 665 -20 q 581 -215 665 -132 q 383 -292 502 -292 l 174 -292 l 174 -285 l 229 -171 l 383 -171 q 487 -135 444 -171 q 529 -20 529 -98 l 529 44 q 383 -14 477 -14 q 186 63 266 -14 q 102 258 102 144 m 217 937 l 217 944 l 267 1045 q 384 954 316 954 q 500 1045 452 954 l 552 944 l 552 937 q 382 836 483 836 q 217 937 278 836 z "},"Ġ":{"ha":956,"x_min":136,"x_max":821,"o":"m 420 1164 q 409 1176 420 1164 q 397 1222 397 1188 q 420 1281 397 1257 q 478 1305 444 1305 q 536 1281 512 1305 q 559 1222 559 1257 q 536 1164 559 1188 q 478 1139 512 1139 q 420 1164 444 1139 m 821 574 l 821 326 q 729 85 821 178 q 478 -14 633 -14 q 227 85 323 -14 q 136 326 136 178 l 136 699 q 227 939 136 846 q 478 1038 323 1038 q 729 939 638 1038 q 821 712 821 841 l 692 651 l 685 651 l 685 699 q 636 846 685 789 q 478 916 576 916 q 320 846 380 916 q 271 699 271 789 l 271 326 q 320 178 271 235 q 478 109 380 109 q 636 178 576 109 q 685 312 685 235 l 685 450 l 449 450 l 449 457 l 504 574 l 821 574 z "},"ġ":{"ha":787,"x_min":102,"x_max":665,"o":"m 237 258 q 280 143 237 180 q 383 107 322 107 q 487 143 444 107 q 529 258 529 180 l 529 488 q 487 603 529 566 q 383 639 444 639 q 280 603 322 639 q 237 488 237 566 l 237 258 m 102 258 l 102 488 q 186 683 102 600 q 383 760 264 760 q 581 683 502 760 q 665 488 665 601 l 665 -20 q 581 -215 665 -132 q 383 -292 502 -292 l 174 -292 l 174 -285 l 229 -171 l 383 -171 q 487 -135 444 -171 q 529 -20 529 -98 l 529 44 q 383 -14 477 -14 q 186 63 266 -14 q 102 258 102 144 m 326 896 q 314 908 326 896 q 302 955 302 920 q 326 1013 302 989 q 383 1038 349 1038 q 441 1013 417 1038 q 465 955 465 989 q 441 896 465 920 q 383 871 417 871 q 326 896 349 871 z "},"Ģ":{"ha":956,"x_min":136,"x_max":821,"o":"m 404 -305 l 397 -305 l 278 -248 l 428 -34 l 435 -34 l 514 -71 l 404 -305 m 821 574 l 821 326 q 729 85 821 178 q 478 -14 633 -14 q 227 85 323 -14 q 136 326 136 178 l 136 699 q 227 939 136 846 q 478 1038 323 1038 q 729 939 638 1038 q 821 712 821 841 l 692 651 l 685 651 l 685 699 q 636 846 685 789 q 478 916 576 916 q 320 846 380 916 q 271 699 271 789 l 271 326 q 320 178 271 235 q 478 109 380 109 q 636 178 576 109 q 685 312 685 235 l 685 450 l 449 450 l 449 457 l 504 574 l 821 574 z "},"ģ":{"ha":787,"x_min":102,"x_max":665,"o":"m 237 258 q 280 143 237 180 q 383 107 322 107 q 487 143 444 107 q 529 258 529 180 l 529 488 q 487 603 529 566 q 383 639 444 639 q 280 603 322 639 q 237 488 237 566 l 237 258 m 102 258 l 102 488 q 186 683 102 600 q 383 760 264 760 q 581 683 502 760 q 665 488 665 601 l 665 -20 q 581 -215 665 -132 q 383 -292 502 -292 l 174 -292 l 174 -285 l 229 -171 l 383 -171 q 487 -135 444 -171 q 529 -20 529 -98 l 529 44 q 383 -14 477 -14 q 186 63 266 -14 q 102 258 102 144 m 463 1062 l 470 1062 l 589 1005 l 439 791 l 433 791 l 353 828 l 463 1062 z "},"Ĥ":{"ha":943,"x_min":136,"x_max":807,"o":"m 294 1099 l 398 1276 l 517 1333 l 524 1333 l 669 1099 l 590 1062 l 583 1062 l 481 1203 l 381 1062 l 374 1062 l 294 1099 m 136 -27 l 136 990 l 264 1051 l 271 1051 l 271 574 l 671 574 l 671 990 l 800 1051 l 807 1051 l 807 34 l 678 -27 l 671 -27 l 671 450 l 271 450 l 271 34 l 142 -27 l 136 -27 z "},"ĥ":{"ha":800,"x_min":136,"x_max":699,"o":"m 136 -27 l 136 990 l 264 1051 l 271 1051 l 271 702 q 417 760 322 760 q 614 683 534 760 q 699 488 699 602 l 699 34 l 570 -27 l 563 -27 l 563 488 q 520 603 563 566 q 417 639 478 639 q 314 603 356 639 q 271 488 271 566 l 271 34 l 142 -27 l 136 -27 m 245 1099 l 349 1276 l 468 1333 l 475 1333 l 619 1099 l 541 1062 l 534 1062 l 432 1203 l 332 1062 l 325 1062 l 245 1099 z "},"Ħ":{"ha":943,"x_min":34,"x_max":909,"o":"m 136 -27 l 136 826 l 34 826 l 34 833 l 89 949 l 136 949 l 136 990 l 264 1051 l 271 1051 l 271 949 l 671 949 l 671 990 l 800 1051 l 807 1051 l 807 949 l 909 949 l 909 943 l 854 826 l 807 826 l 807 34 l 678 -27 l 671 -27 l 671 450 l 271 450 l 271 34 l 142 -27 l 136 -27 m 671 826 l 271 826 l 271 574 l 671 574 l 671 826 z "},"ħ":{"ha":800,"x_min":34,"x_max":699,"o":"m 136 -27 l 136 826 l 34 826 l 34 833 l 89 949 l 136 949 l 136 990 l 264 1051 l 271 1051 l 271 949 l 449 949 l 449 943 l 394 826 l 271 826 l 271 702 q 417 760 323 760 q 614 683 534 760 q 699 488 699 602 l 699 34 l 570 -27 l 563 -27 l 563 488 q 520 603 563 566 q 417 639 478 639 q 314 603 356 639 q 271 488 271 566 l 271 34 l 142 -27 l 136 -27 z "},"Ĩ":{"ha":407,"x_min":33,"x_max":374,"o":"m 136 -27 l 136 990 l 264 1051 l 271 1051 l 271 34 l 142 -27 l 136 -27 m 33 1111 q 128 1305 33 1305 q 221 1257 172 1305 q 272 1224 256 1224 q 295 1273 295 1224 l 370 1305 l 374 1305 q 278 1111 374 1111 q 185 1158 235 1111 q 134 1192 151 1192 q 111 1143 111 1192 l 37 1111 l 33 1111 z "},"ĩ":{"ha":407,"x_min":33,"x_max":374,"o":"m 136 -27 l 136 712 l 264 773 l 271 773 l 271 34 l 142 -27 l 136 -27 m 33 836 q 128 1029 33 1029 q 221 982 172 1029 q 272 949 256 949 q 295 998 295 949 l 370 1029 l 374 1029 q 278 836 374 836 q 185 883 235 836 q 134 916 151 916 q 111 867 111 916 l 37 836 l 33 836 z "},"Ī":{"ha":407,"x_min":20,"x_max":386,"o":"m 136 -27 l 136 990 l 264 1051 l 271 1051 l 271 34 l 142 -27 l 136 -27 m 20 1111 l 20 1118 l 75 1234 l 386 1234 l 386 1227 l 331 1111 l 20 1111 z "},"ī":{"ha":407,"x_min":20,"x_max":386,"o":"m 136 -27 l 136 712 l 264 773 l 271 773 l 271 34 l 142 -27 l 136 -27 m 20 836 l 20 842 l 75 959 l 386 959 l 386 952 l 331 836 l 20 836 z "},"Ĭ":{"ha":407,"x_min":36,"x_max":371,"o":"m 136 -27 l 136 990 l 264 1051 l 271 1051 l 271 34 l 142 -27 l 136 -27 m 36 1213 l 36 1219 l 86 1320 q 203 1230 135 1230 q 319 1320 271 1230 l 371 1219 l 371 1213 q 201 1111 302 1111 q 36 1213 97 1111 z "},"ĭ":{"ha":407,"x_min":36,"x_max":371,"o":"m 136 -27 l 136 712 l 264 773 l 271 773 l 271 34 l 142 -27 l 136 -27 m 36 937 l 36 944 l 86 1045 q 203 954 135 954 q 319 1045 271 954 l 371 944 l 371 937 q 201 836 302 836 q 36 937 97 836 z "},"Į":{"ha":407,"x_min":70,"x_max":279,"o":"m 136 7 l 136 990 l 264 1051 l 271 1051 l 271 34 l 245 22 q 189 -103 189 -44 q 279 -244 189 -185 l 151 -305 l 144 -305 q 70 -140 70 -233 q 136 7 70 -58 z "},"į":{"ha":407,"x_min":70,"x_max":285,"o":"m 146 896 q 134 908 146 896 q 122 955 122 920 q 146 1013 122 989 q 203 1038 170 1038 q 261 1013 237 1038 q 285 955 285 989 q 261 896 285 920 q 203 871 237 871 q 146 896 170 871 m 136 7 l 136 712 l 264 773 l 271 773 l 271 34 l 245 22 q 189 -103 189 -44 q 279 -244 189 -185 l 151 -305 l 144 -305 q 70 -140 70 -233 q 136 7 70 -58 z "},"İ":{"ha":407,"x_min":122,"x_max":285,"o":"m 136 -27 l 136 990 l 264 1051 l 271 1051 l 271 34 l 142 -27 l 136 -27 m 146 1164 q 134 1176 146 1164 q 122 1222 122 1188 q 146 1281 122 1257 q 203 1305 170 1305 q 261 1281 237 1305 q 285 1222 285 1257 q 261 1164 285 1188 q 203 1139 237 1139 q 146 1164 170 1139 z "},"ı":{"ha":407,"x_min":136,"x_max":271,"o":"m 136 -27 l 136 712 l 264 773 l 271 773 l 271 34 l 142 -27 l 136 -27 z "},"Ĳ":{"ha":1202,"x_min":136,"x_max":1067,"o":"m 382 312 l 511 373 l 517 373 l 517 326 q 566 178 517 235 q 724 109 627 109 q 882 178 822 109 q 931 326 931 235 l 931 901 l 543 901 l 543 907 l 597 1024 l 1067 1024 l 1067 326 q 975 85 1067 179 q 724 -14 879 -14 q 473 85 572 -14 q 382 312 382 176 m 136 -27 l 136 990 l 264 1051 l 271 1051 l 271 34 l 142 -27 l 136 -27 z "},"ĳ":{"ha":746,"x_min":122,"x_max":624,"o":"m 485 896 q 473 908 485 896 q 461 955 461 920 q 485 1013 461 989 q 543 1038 509 1038 q 600 1013 576 1038 q 624 955 624 989 q 600 896 624 920 q 543 871 576 871 q 485 896 509 871 m 329 -305 l 329 -298 l 387 -175 q 433 -148 412 -165 q 475 -34 475 -111 l 475 712 l 604 773 l 610 773 l 610 -34 q 526 -229 610 -146 q 329 -305 448 -305 m 146 896 q 134 908 146 896 q 122 955 122 920 q 146 1013 122 989 q 203 1038 170 1038 q 261 1013 237 1038 q 285 955 285 989 q 261 896 285 920 q 203 871 237 871 q 146 896 170 871 m 136 -27 l 136 712 l 264 773 l 271 773 l 271 34 l 142 -27 l 136 -27 z "},"Ĵ":{"ha":875,"x_min":54,"x_max":739,"o":"m 317 1099 l 421 1276 l 541 1333 l 547 1333 l 692 1099 l 613 1062 l 606 1062 l 505 1203 l 404 1062 l 397 1062 l 317 1099 m 54 312 l 183 373 l 190 373 l 190 326 q 239 178 190 235 q 397 109 299 109 q 555 178 494 109 q 604 326 604 235 l 604 901 l 215 901 l 215 907 l 270 1024 l 739 1024 l 739 326 q 648 85 739 179 q 397 -14 551 -14 q 146 85 244 -14 q 54 312 54 176 z "},"ĵ":{"ha":407,"x_min":-10,"x_max":391,"o":"m 16 828 l 120 1005 l 239 1062 l 246 1062 l 391 828 l 312 791 l 305 791 l 203 932 l 103 791 l 96 791 l 16 828 m -10 -305 l -10 -298 l 47 -175 q 94 -148 73 -165 q 136 -34 136 -111 l 136 712 l 264 773 l 271 773 l 271 -34 q 187 -229 271 -146 q -10 -305 109 -305 z "},"Ķ":{"ha":922,"x_min":136,"x_max":800,"o":"m 136 -27 l 136 990 l 264 1051 l 271 1051 l 271 541 l 640 1051 l 646 1051 l 766 995 l 463 592 q 709 501 619 589 q 800 260 800 412 l 800 34 l 671 -27 l 665 -27 l 665 260 q 616 408 665 351 q 468 477 555 477 q 320 408 379 477 q 271 260 271 350 l 271 34 l 142 -27 l 136 -27 m 404 -305 l 397 -305 l 278 -248 l 428 -34 l 435 -34 l 514 -71 l 404 -305 z "},"ķ":{"ha":800,"x_min":136,"x_max":699,"o":"m 136 -27 l 136 990 l 264 1051 l 271 1051 l 271 486 l 555 773 l 562 773 l 681 717 l 456 510 q 614 447 552 497 q 699 252 699 378 l 699 34 l 570 -27 l 563 -27 l 563 252 q 520 367 563 330 q 417 403 478 403 q 313 366 356 403 q 271 252 271 330 l 271 34 l 142 -27 l 136 -27 m 348 -305 l 341 -305 l 222 -248 l 372 -34 l 378 -34 l 458 -71 l 348 -305 z "},"ĸ":{"ha":800,"x_min":136,"x_max":699,"o":"m 136 -27 l 136 712 l 264 773 l 271 773 l 271 486 l 555 773 l 562 773 l 681 717 l 456 510 q 614 447 553 497 q 699 252 699 378 l 699 34 l 570 -27 l 563 -27 l 563 252 q 520 367 563 330 q 417 403 478 403 q 313 366 356 403 q 271 252 271 330 l 271 34 l 142 -27 l 136 -27 z "},"Ĺ":{"ha":739,"x_min":126,"x_max":736,"o":"m 236 1333 l 243 1333 l 362 1276 l 212 1062 l 205 1062 l 126 1099 l 236 1333 m 136 0 l 136 990 l 264 1051 l 271 1051 l 271 123 l 736 123 l 736 117 l 681 0 l 136 0 z "},"ĺ":{"ha":407,"x_min":126,"x_max":362,"o":"m 236 1333 l 243 1333 l 362 1276 l 212 1062 l 205 1062 l 126 1099 l 236 1333 m 136 -27 l 136 990 l 264 1051 l 271 1051 l 271 34 l 142 -27 l 136 -27 z "},"Ļ":{"ha":739,"x_min":136,"x_max":736,"o":"m 372 -305 l 365 -305 l 245 -248 l 395 -34 l 402 -34 l 481 -71 l 372 -305 m 136 0 l 136 990 l 264 1051 l 271 1051 l 271 123 l 736 123 l 736 117 l 681 0 l 136 0 z "},"ļ":{"ha":407,"x_min":45,"x_max":281,"o":"m 171 -305 l 164 -305 l 45 -248 l 195 -34 l 201 -34 l 281 -71 l 171 -305 m 136 -27 l 136 990 l 264 1051 l 271 1051 l 271 34 l 142 -27 l 136 -27 z "},"Ľ":{"ha":739,"x_min":136,"x_max":736,"o":"m 403 1062 l 410 1062 l 529 1005 l 379 791 l 372 791 l 293 828 l 403 1062 m 136 0 l 136 990 l 264 1051 l 271 1051 l 271 123 l 736 123 l 736 117 l 681 0 l 136 0 z "},"ľ":{"ha":427,"x_min":136,"x_max":529,"o":"m 403 1062 l 410 1062 l 529 1005 l 379 791 l 372 791 l 293 828 l 403 1062 m 136 -27 l 136 990 l 264 1051 l 271 1051 l 271 34 l 142 -27 l 136 -27 z "},"Ŀ":{"ha":739,"x_min":136,"x_max":736,"o":"m 366 618 q 354 630 366 618 q 342 676 342 642 q 366 735 342 711 q 424 760 390 760 q 481 735 458 760 q 505 676 505 711 q 481 618 505 642 q 424 593 458 593 q 366 618 390 593 m 136 0 l 136 990 l 264 1051 l 271 1051 l 271 123 l 736 123 l 736 117 l 681 0 l 136 0 z "},"ŀ":{"ha":451,"x_min":136,"x_max":505,"o":"m 366 618 q 354 630 366 618 q 342 676 342 642 q 366 735 342 711 q 424 760 390 760 q 481 735 458 760 q 505 676 505 711 q 481 618 505 642 q 424 593 458 593 q 366 618 390 593 m 136 -27 l 136 990 l 264 1051 l 271 1051 l 271 34 l 142 -27 l 136 -27 z "},"Ł":{"ha":739,"x_min":136,"x_max":736,"o":"m 136 0 l 136 990 l 264 1051 l 271 1051 l 271 486 l 486 773 l 493 773 l 600 719 l 271 311 l 271 123 l 736 123 l 736 117 l 681 0 l 136 0 z "},"ł":{"ha":491,"x_min":14,"x_max":477,"o":"m 178 -27 l 178 367 l 127 284 l 121 284 l 14 339 l 178 543 l 178 990 l 307 1051 l 313 1051 l 313 690 l 363 773 l 370 773 l 477 719 l 313 515 l 313 34 l 184 -27 l 178 -27 z "},"Ń":{"ha":956,"x_min":136,"x_max":821,"o":"m 554 1333 l 561 1333 l 680 1276 l 530 1062 l 524 1062 l 444 1099 l 554 1333 m 136 -27 l 136 699 q 227 939 136 845 q 478 1038 323 1038 q 729 939 631 1038 q 821 699 821 848 l 821 34 l 692 -27 l 685 -27 l 685 699 q 636 846 685 789 q 478 916 576 916 q 320 846 380 916 q 271 699 271 789 l 271 34 l 142 -27 l 136 -27 z "},"ń":{"ha":766,"x_min":102,"x_max":665,"o":"m 463 1062 l 470 1062 l 589 1005 l 439 791 l 433 791 l 353 828 l 463 1062 m 102 -27 l 102 488 q 186 683 102 600 q 383 760 264 760 q 581 683 500 760 q 665 488 665 602 l 665 34 l 536 -27 l 529 -27 l 529 488 q 487 603 529 566 q 383 639 444 639 q 280 603 322 639 q 237 488 237 566 l 237 34 l 109 -27 l 102 -27 z "},"Ņ":{"ha":956,"x_min":136,"x_max":821,"o":"m 404 -305 l 397 -305 l 278 -248 l 428 -34 l 435 -34 l 514 -71 l 404 -305 m 136 -27 l 136 699 q 227 939 136 845 q 478 1038 323 1038 q 729 939 631 1038 q 821 699 821 848 l 821 34 l 692 -27 l 685 -27 l 685 699 q 636 846 685 789 q 478 916 576 916 q 320 846 380 916 q 271 699 271 789 l 271 34 l 142 -27 l 136 -27 z "},"ņ":{"ha":766,"x_min":102,"x_max":665,"o":"m 319 -305 l 313 -305 l 193 -248 l 343 -34 l 350 -34 l 429 -71 l 319 -305 m 102 -27 l 102 488 q 186 683 102 600 q 383 760 264 760 q 581 683 500 760 q 665 488 665 602 l 665 34 l 536 -27 l 529 -27 l 529 488 q 487 603 529 566 q 383 639 444 639 q 280 603 322 639 q 237 488 237 566 l 237 34 l 109 -27 l 102 -27 z "},"Ň":{"ha":956,"x_min":136,"x_max":821,"o":"m 439 1062 l 294 1296 l 373 1333 l 380 1333 l 481 1192 l 582 1333 l 589 1333 l 669 1296 l 565 1119 l 446 1062 l 439 1062 m 136 -27 l 136 699 q 227 939 136 845 q 478 1038 323 1038 q 729 939 631 1038 q 821 699 821 848 l 821 34 l 692 -27 l 685 -27 l 685 699 q 636 846 685 789 q 478 916 576 916 q 320 846 380 916 q 271 699 271 789 l 271 34 l 142 -27 l 136 -27 z "},"ň":{"ha":766,"x_min":102,"x_max":665,"o":"m 326 791 l 181 1025 l 260 1062 l 267 1062 l 368 921 l 469 1062 l 475 1062 l 555 1025 l 452 848 l 332 791 l 326 791 m 102 -27 l 102 488 q 186 683 102 600 q 383 760 264 760 q 581 683 500 760 q 665 488 665 602 l 665 34 l 536 -27 l 529 -27 l 529 488 q 487 603 529 566 q 383 639 444 639 q 280 603 322 639 q 237 488 237 566 l 237 34 l 109 -27 l 102 -27 z "},"ŉ":{"ha":766,"x_min":33,"x_max":665,"o":"m 142 986 l 149 986 l 269 929 l 119 715 l 112 715 l 33 752 l 142 986 m 102 -27 l 102 488 q 186 683 102 600 q 383 760 264 760 q 581 683 500 760 q 665 488 665 602 l 665 34 l 536 -27 l 529 -27 l 529 488 q 487 603 529 566 q 383 639 444 639 q 280 603 322 639 q 237 488 237 566 l 237 34 l 109 -27 l 102 -27 z "},"Ŋ":{"ha":956,"x_min":136,"x_max":821,"o":"m 136 -27 l 136 699 q 227 939 136 845 q 478 1038 323 1038 q 729 939 630 1038 q 821 699 821 848 l 821 -34 q 736 -229 821 -146 q 539 -305 658 -305 l 539 -298 l 597 -175 q 643 -148 623 -165 q 685 -34 685 -111 l 685 699 q 636 846 685 789 q 478 916 576 916 q 320 846 380 916 q 271 699 271 789 l 271 34 l 142 -27 l 136 -27 z "},"ŋ":{"ha":766,"x_min":102,"x_max":665,"o":"m 102 -27 l 102 488 q 186 683 102 600 q 383 760 264 760 q 581 683 500 760 q 665 488 665 602 l 665 -34 q 581 -229 665 -146 q 383 -305 502 -305 l 383 -298 l 441 -175 q 487 -148 467 -165 q 529 -34 529 -111 l 529 488 q 487 603 529 566 q 383 639 444 639 q 280 603 322 639 q 237 488 237 566 l 237 34 l 109 -27 l 102 -27 z "},"Ō":{"ha":956,"x_min":136,"x_max":821,"o":"m 317 1111 l 317 1118 l 372 1234 l 682 1234 l 682 1227 l 627 1111 l 317 1111 m 271 326 q 320 178 271 235 q 478 109 380 109 q 636 178 576 109 q 685 326 685 235 l 685 699 q 636 846 685 789 q 478 916 576 916 q 320 846 380 916 q 271 699 271 789 l 271 326 m 136 326 l 136 699 q 227 939 136 846 q 478 1038 323 1038 q 729 939 633 1038 q 821 699 821 846 l 821 326 q 729 85 821 178 q 478 -14 633 -14 q 227 85 323 -14 q 136 326 136 178 z "},"ō":{"ha":766,"x_min":102,"x_max":665,"o":"m 217 836 l 217 842 l 272 959 l 583 959 l 583 952 l 528 836 l 217 836 m 102 258 l 102 488 q 186 683 102 600 q 383 760 264 760 q 581 683 500 760 q 665 488 665 602 l 665 258 q 581 63 665 146 q 383 -14 502 -14 q 186 63 266 -14 q 102 258 102 144 m 237 258 q 280 143 237 180 q 383 107 322 107 q 487 143 444 107 q 529 258 529 180 l 529 488 q 487 603 529 566 q 383 639 444 639 q 280 603 322 639 q 237 488 237 566 l 237 258 z "},"Ŏ":{"ha":956,"x_min":136,"x_max":821,"o":"m 317 1213 l 317 1219 l 368 1320 q 484 1230 416 1230 q 601 1320 552 1230 l 652 1219 l 652 1213 q 483 1111 583 1111 q 317 1213 378 1111 m 271 326 q 320 178 271 235 q 478 109 380 109 q 636 178 576 109 q 685 326 685 235 l 685 699 q 636 846 685 789 q 478 916 576 916 q 320 846 380 916 q 271 699 271 789 l 271 326 m 136 326 l 136 699 q 227 939 136 846 q 478 1038 323 1038 q 729 939 633 1038 q 821 699 821 846 l 821 326 q 729 85 821 178 q 478 -14 633 -14 q 227 85 323 -14 q 136 326 136 178 z "},"ŏ":{"ha":766,"x_min":102,"x_max":665,"o":"m 217 937 l 217 944 l 267 1045 q 384 954 316 954 q 500 1045 452 954 l 552 944 l 552 937 q 382 836 483 836 q 217 937 278 836 m 102 258 l 102 488 q 186 683 102 600 q 383 760 264 760 q 581 683 500 760 q 665 488 665 602 l 665 258 q 581 63 665 146 q 383 -14 502 -14 q 186 63 266 -14 q 102 258 102 144 m 237 258 q 280 143 237 180 q 383 107 322 107 q 487 143 444 107 q 529 258 529 180 l 529 488 q 487 603 529 566 q 383 639 444 639 q 280 603 322 639 q 237 488 237 566 l 237 258 z "},"Ő":{"ha":956,"x_min":136,"x_max":821,"o":"m 633 1333 l 640 1333 l 759 1276 l 609 1062 l 602 1062 l 523 1099 l 633 1333 m 445 1333 l 452 1333 l 571 1276 l 421 1062 l 414 1062 l 335 1099 l 445 1333 m 271 326 q 320 178 271 235 q 478 109 380 109 q 636 178 576 109 q 685 326 685 235 l 685 699 q 636 846 685 789 q 478 916 576 916 q 320 846 380 916 q 271 699 271 789 l 271 326 m 136 326 l 136 699 q 227 939 136 846 q 478 1038 323 1038 q 729 939 633 1038 q 821 699 821 846 l 821 326 q 729 85 821 178 q 478 -14 633 -14 q 227 85 323 -14 q 136 326 136 178 z "},"ő":{"ha":766,"x_min":102,"x_max":665,"o":"m 522 1062 l 529 1062 l 648 1005 l 498 791 l 492 791 l 412 828 l 522 1062 m 334 1062 l 341 1062 l 460 1005 l 311 791 l 304 791 l 224 828 l 334 1062 m 102 258 l 102 488 q 186 683 102 600 q 383 760 264 760 q 581 683 500 760 q 665 488 665 602 l 665 258 q 581 63 665 146 q 383 -14 502 -14 q 186 63 266 -14 q 102 258 102 144 m 237 258 q 280 143 237 180 q 383 107 322 107 q 487 143 444 107 q 529 258 529 180 l 529 488 q 487 603 529 566 q 383 639 444 639 q 280 603 322 639 q 237 488 237 566 l 237 258 z "},"Œ":{"ha":1334,"x_min":136,"x_max":1300,"o":"m 136 326 l 136 699 q 227 939 136 846 q 478 1038 323 1038 q 685 957 605 1038 q 685 990 685 957 l 757 1024 l 1187 1024 l 1187 1017 l 1132 901 l 821 901 l 821 574 l 1187 574 l 1187 567 l 1132 450 l 821 450 l 821 123 l 1300 123 l 1300 117 l 1245 0 l 685 0 l 685 67 q 478 -14 603 -14 q 227 85 323 -14 q 136 326 136 178 m 271 326 q 320 178 271 235 q 478 109 380 109 q 636 178 576 109 q 685 326 685 235 l 685 699 q 636 846 685 789 q 478 916 576 916 q 320 846 380 916 q 271 699 271 789 l 271 326 z "},"œ":{"ha":1194,"x_min":102,"x_max":1092,"o":"m 102 258 l 102 488 q 186 683 102 600 q 383 760 264 760 q 570 681 491 760 q 597 646 585 666 q 624 680 609 665 q 810 760 709 760 q 1008 683 926 760 q 1092 508 1092 604 l 1092 507 l 678 182 q 707 144 688 159 q 810 107 749 107 q 914 144 871 107 q 956 239 956 180 l 1085 300 l 1092 300 l 1092 258 q 1008 63 1092 145 q 810 -14 929 -14 q 624 65 703 -14 q 597 100 609 80 q 570 66 585 81 q 383 -14 485 -14 q 186 63 266 -14 q 102 258 102 144 m 237 258 q 280 143 237 180 q 383 107 322 107 q 487 143 444 107 q 529 258 529 180 l 529 488 q 487 603 529 566 q 383 639 444 639 q 280 603 322 639 q 237 488 237 566 l 237 258 m 665 319 l 948 549 q 914 602 937 583 q 810 639 871 639 q 707 603 749 639 q 665 488 665 566 l 665 319 z "},"Ŕ":{"ha":925,"x_min":136,"x_max":823,"o":"m 136 -27 l 136 990 l 208 1024 l 465 1024 q 715 926 619 1024 q 807 685 807 832 q 715 444 807 537 q 589 365 661 389 l 823 29 l 704 -27 l 697 -27 l 436 346 l 271 346 l 271 34 l 142 -27 l 136 -27 m 271 468 l 465 468 q 623 538 553 468 q 671 685 671 587 q 623 832 671 776 q 465 902 562 902 l 271 902 l 271 468 m 475 1333 l 481 1333 l 601 1276 l 451 1062 l 444 1062 l 365 1099 l 475 1333 z "},"ŕ":{"ha":488,"x_min":102,"x_max":475,"o":"m 321 1062 l 328 1062 l 447 1005 l 297 791 l 290 791 l 211 828 l 321 1062 m 102 -27 l 102 488 q 186 683 102 600 q 383 760 264 760 l 475 760 l 475 753 l 420 639 l 383 639 q 280 603 322 639 q 237 488 237 566 l 237 34 l 109 -27 l 102 -27 z "},"Ŗ":{"ha":925,"x_min":136,"x_max":823,"o":"m 404 -305 l 397 -305 l 278 -248 l 428 -34 l 435 -34 l 514 -71 l 404 -305 m 136 -27 l 136 990 l 208 1024 l 465 1024 q 715 926 619 1024 q 807 685 807 832 q 715 444 807 537 q 589 365 661 389 l 823 29 l 704 -27 l 697 -27 l 436 346 l 271 346 l 271 34 l 142 -27 l 136 -27 m 271 468 l 465 468 q 623 538 553 468 q 671 685 671 587 q 623 832 671 776 q 465 902 562 902 l 271 902 l 271 468 z "},"ŗ":{"ha":488,"x_min":16,"x_max":475,"o":"m 142 -305 l 136 -305 l 16 -248 l 166 -34 l 173 -34 l 252 -71 l 142 -305 m 102 -27 l 102 488 q 186 683 102 600 q 383 760 264 760 l 475 760 l 475 753 l 420 639 l 383 639 q 280 603 322 639 q 237 488 237 566 l 237 34 l 109 -27 l 102 -27 z "},"Ř":{"ha":925,"x_min":136,"x_max":823,"o":"m 398 1062 l 254 1296 l 332 1333 l 339 1333 l 441 1192 l 541 1333 l 548 1333 l 628 1296 l 524 1119 l 405 1062 l 398 1062 m 136 -27 l 136 990 l 208 1024 l 465 1024 q 715 926 619 1024 q 807 685 807 832 q 715 444 807 537 q 589 365 661 389 l 823 29 l 704 -27 l 697 -27 l 436 346 l 271 346 l 271 34 l 142 -27 l 136 -27 m 271 468 l 465 468 q 623 538 553 468 q 671 685 671 587 q 623 832 671 776 q 465 902 562 902 l 271 902 l 271 468 z "},"ř":{"ha":488,"x_min":77,"x_max":475,"o":"m 222 791 l 77 1025 l 156 1062 l 163 1062 l 264 921 l 365 1062 l 372 1062 l 452 1025 l 348 848 l 229 791 l 222 791 m 102 -27 l 102 488 q 186 683 102 600 q 383 760 264 760 l 475 760 l 475 753 l 420 639 l 383 639 q 280 603 322 639 q 237 488 237 566 l 237 34 l 109 -27 l 102 -27 z "},"Ś":{"ha":902,"x_min":109,"x_max":793,"o":"m 530 1333 l 536 1333 l 656 1276 l 506 1062 l 499 1062 l 420 1099 l 530 1333 m 793 320 q 702 85 793 182 q 451 -14 609 -14 q 200 85 293 -14 q 109 312 109 182 l 237 373 l 244 373 l 244 317 q 293 178 244 235 q 451 109 353 109 q 609 178 548 109 q 657 319 657 233 q 618 446 657 399 q 451 509 564 509 q 237 591 328 509 q 170 768 170 652 q 254 972 170 904 q 451 1038 334 1038 q 648 972 568 1038 q 732 785 732 904 l 604 724 l 597 724 l 597 778 q 553 893 597 855 q 451 930 510 930 q 345 889 385 930 q 305 778 305 848 q 336 677 305 711 q 451 631 376 631 q 702 554 615 631 q 793 320 793 473 z "},"ś":{"ha":726,"x_min":81,"x_max":644,"o":"m 441 1062 l 448 1062 l 568 1005 l 418 791 l 411 791 l 332 828 l 441 1062 m 81 239 l 210 300 l 217 300 l 217 246 q 261 131 217 170 q 363 94 303 94 q 471 138 432 94 q 511 238 511 184 q 468 330 511 296 q 362 359 431 359 q 172 412 241 359 q 110 555 110 458 q 196 711 110 650 q 363 760 263 760 q 529 700 458 760 q 596 591 583 653 l 467 530 l 460 530 l 460 550 q 440 610 460 585 q 347 652 408 652 q 269 622 299 652 q 239 555 239 592 q 275 486 239 512 q 362 472 296 472 q 569 409 500 472 q 644 231 644 340 q 566 62 644 142 q 363 -14 492 -14 q 165 52 245 -14 q 81 239 81 120 z "},"Ŝ":{"ha":902,"x_min":109,"x_max":793,"o":"m 264 1099 l 368 1276 l 488 1333 l 494 1333 l 639 1099 l 560 1062 l 553 1062 l 452 1203 l 351 1062 l 345 1062 l 264 1099 m 793 320 q 702 85 793 182 q 451 -14 609 -14 q 200 85 293 -14 q 109 312 109 182 l 237 373 l 244 373 l 244 317 q 293 178 244 235 q 451 109 353 109 q 609 178 548 109 q 657 319 657 233 q 618 446 657 399 q 451 509 564 509 q 237 591 328 509 q 170 768 170 652 q 254 972 170 904 q 451 1038 334 1038 q 648 972 568 1038 q 732 785 732 904 l 604 724 l 597 724 l 597 778 q 553 893 597 855 q 451 930 510 930 q 345 889 385 930 q 305 778 305 848 q 336 677 305 711 q 451 631 376 631 q 702 554 615 631 q 793 320 793 473 z "},"ŝ":{"ha":726,"x_min":81,"x_max":644,"o":"m 179 828 l 283 1005 l 402 1062 l 409 1062 l 553 828 l 475 791 l 468 791 l 366 932 l 266 791 l 259 791 l 179 828 m 81 239 l 210 300 l 217 300 l 217 246 q 261 131 217 170 q 363 94 303 94 q 471 138 432 94 q 511 238 511 184 q 468 330 511 296 q 362 359 431 359 q 172 412 241 359 q 110 555 110 458 q 196 711 110 650 q 363 760 263 760 q 529 700 458 760 q 596 591 583 653 l 467 530 l 460 530 l 460 550 q 440 610 460 585 q 347 652 408 652 q 269 622 299 652 q 239 555 239 592 q 275 486 239 512 q 362 472 296 472 q 569 409 500 472 q 644 231 644 340 q 566 62 644 142 q 363 -14 492 -14 q 165 52 245 -14 q 81 239 81 120 z "},"Ş":{"ha":902,"x_min":109,"x_max":793,"o":"m 109 312 l 237 373 l 244 373 l 244 317 q 293 178 244 235 q 451 109 353 109 q 609 178 548 109 q 657 319 657 233 q 618 446 657 399 q 451 509 564 509 q 237 591 328 509 q 170 768 170 652 q 254 972 170 904 q 451 1038 334 1038 q 648 972 568 1038 q 732 785 732 904 l 604 724 l 597 724 l 597 778 q 553 893 597 855 q 451 930 510 930 q 345 889 385 930 q 305 778 305 848 q 336 677 305 711 q 451 631 376 631 q 702 554 615 631 q 793 320 793 473 q 702 85 793 181 q 498 -12 623 1 q 547 -140 547 -69 q 473 -305 547 -233 l 466 -305 l 337 -244 q 428 -103 428 -185 q 396 -10 428 -59 q 200 85 276 4 q 109 312 109 182 z "},"ş":{"ha":726,"x_min":81,"x_max":644,"o":"m 81 239 l 210 300 l 217 300 l 217 246 q 261 131 217 170 q 363 94 303 94 q 471 138 432 94 q 511 238 511 184 q 468 330 511 296 q 362 359 431 359 q 172 412 242 359 q 110 555 110 458 q 196 711 110 650 q 363 760 263 760 q 529 700 458 760 q 596 591 583 653 l 467 530 l 460 530 l 460 550 q 440 610 460 585 q 347 652 408 652 q 269 622 299 652 q 239 555 239 592 q 275 486 239 512 q 362 472 296 472 q 569 409 500 472 q 644 231 644 340 q 566 62 644 142 q 411 -11 507 1 q 460 -140 460 -69 q 387 -305 460 -233 l 380 -305 l 251 -244 q 342 -103 342 -185 q 309 -10 342 -58 q 165 52 227 2 q 81 239 81 120 z "},"Š":{"ha":902,"x_min":109,"x_max":793,"o":"m 385 1062 l 241 1296 l 319 1333 l 326 1333 l 428 1192 l 528 1333 l 535 1333 l 615 1296 l 511 1119 l 392 1062 l 385 1062 m 793 320 q 702 85 793 182 q 451 -14 609 -14 q 200 85 293 -14 q 109 312 109 182 l 237 373 l 244 373 l 244 317 q 293 178 244 235 q 451 109 353 109 q 609 178 548 109 q 657 319 657 233 q 618 446 657 399 q 451 509 564 509 q 237 591 328 509 q 170 768 170 652 q 254 972 170 904 q 451 1038 334 1038 q 648 972 568 1038 q 732 785 732 904 l 604 724 l 597 724 l 597 778 q 553 893 597 855 q 451 930 510 930 q 345 889 385 930 q 305 778 305 848 q 336 677 305 711 q 451 631 376 631 q 702 554 615 631 q 793 320 793 473 z "},"š":{"ha":726,"x_min":81,"x_max":644,"o":"m 292 791 l 148 1025 l 227 1062 l 233 1062 l 335 921 l 435 1062 l 442 1062 l 522 1025 l 418 848 l 299 791 l 292 791 m 81 239 l 210 300 l 217 300 l 217 246 q 261 131 217 170 q 363 94 303 94 q 471 138 432 94 q 511 238 511 184 q 468 330 511 296 q 362 359 431 359 q 172 412 241 359 q 110 555 110 458 q 196 711 110 650 q 363 760 263 760 q 529 700 458 760 q 596 591 583 653 l 467 530 l 460 530 l 460 550 q 440 610 460 585 q 347 652 408 652 q 269 622 299 652 q 239 555 239 592 q 275 486 239 512 q 362 472 296 472 q 569 409 500 472 q 644 231 644 340 q 566 62 644 142 q 363 -14 492 -14 q 165 52 245 -14 q 81 239 81 120 z "},"Ţ":{"ha":723,"x_min":3,"x_max":720,"o":"m 294 -27 l 294 901 l 3 901 l 3 907 l 58 1024 l 720 1024 l 720 1017 l 665 901 l 429 901 l 429 35 q 528 -140 528 -40 q 454 -305 528 -233 l 448 -305 l 319 -244 q 410 -103 410 -185 q 367 4 410 -52 l 300 -27 l 294 -27 z "},"ţ":{"ha":518,"x_min":17,"x_max":501,"o":"m 191 -27 l 191 623 l 17 623 l 17 629 l 72 746 l 191 746 l 191 990 l 320 1051 l 327 1051 l 327 746 l 501 746 l 501 739 l 446 623 l 327 623 l 327 35 q 426 -140 426 -40 q 352 -305 426 -233 l 345 -305 l 216 -244 q 307 -103 307 -185 q 264 4 307 -52 l 198 -27 l 191 -27 z "},"Ť":{"ha":723,"x_min":3,"x_max":720,"o":"m 304 1062 l 159 1296 l 238 1333 l 245 1333 l 347 1192 l 447 1333 l 454 1333 l 534 1296 l 430 1119 l 311 1062 l 304 1062 m 294 -27 l 294 901 l 3 901 l 3 907 l 58 1024 l 720 1024 l 720 1017 l 665 901 l 429 901 l 429 34 l 300 -27 l 294 -27 z "},"ť":{"ha":518,"x_min":17,"x_max":589,"o":"m 463 1062 l 470 1062 l 589 1005 l 439 791 l 433 791 l 353 828 l 463 1062 m 191 -27 l 191 623 l 17 623 l 17 629 l 72 746 l 191 746 l 191 990 l 320 1051 l 327 1051 l 327 746 l 501 746 l 501 739 l 446 623 l 327 623 l 327 34 l 198 -27 l 191 -27 z "},"Ŧ":{"ha":723,"x_min":3,"x_max":720,"o":"m 294 -27 l 294 450 l 154 450 l 154 457 l 209 574 l 294 574 l 294 901 l 3 901 l 3 907 l 58 1024 l 720 1024 l 720 1017 l 665 901 l 429 901 l 429 574 l 569 574 l 569 567 l 514 450 l 429 450 l 429 34 l 300 -27 l 294 -27 z "},"ŧ":{"ha":518,"x_min":17,"x_max":501,"o":"m 191 -27 l 191 383 l 52 383 l 52 390 l 106 507 l 191 507 l 191 623 l 17 623 l 17 629 l 72 746 l 191 746 l 191 990 l 320 1051 l 327 1051 l 327 746 l 501 746 l 501 739 l 446 623 l 327 623 l 327 507 l 467 507 l 467 500 l 412 383 l 327 383 l 327 34 l 198 -27 l 191 -27 z "},"Ũ":{"ha":956,"x_min":136,"x_max":821,"o":"m 319 1111 q 415 1305 319 1305 q 508 1257 458 1305 q 559 1224 543 1224 q 582 1273 582 1224 l 656 1305 l 661 1305 q 565 1111 661 1111 q 472 1158 522 1111 q 421 1192 437 1192 q 398 1143 398 1192 l 323 1111 l 319 1111 m 821 1051 l 821 326 q 729 85 821 179 q 478 -14 633 -14 q 227 85 326 -14 q 136 326 136 176 l 136 990 l 264 1051 l 271 1051 l 271 326 q 320 178 271 235 q 478 109 380 109 q 636 178 576 109 q 685 326 685 235 l 685 990 l 814 1051 l 821 1051 z "},"ũ":{"ha":766,"x_min":102,"x_max":665,"o":"m 232 836 q 328 1029 232 1029 q 420 982 371 1029 q 471 949 455 949 q 494 998 494 949 l 569 1029 l 573 1029 q 477 836 573 836 q 385 883 434 836 q 334 916 350 916 q 311 867 311 916 l 236 836 l 232 836 m 665 773 l 665 258 q 581 63 665 146 q 383 -14 502 -14 q 186 63 266 -14 q 102 258 102 144 l 102 712 l 231 773 l 237 773 l 237 258 q 280 143 237 180 q 383 107 322 107 q 487 143 444 107 q 529 258 529 180 l 529 712 l 658 773 l 665 773 z "},"Ū":{"ha":956,"x_min":136,"x_max":821,"o":"m 317 1111 l 317 1118 l 372 1234 l 682 1234 l 682 1227 l 627 1111 l 317 1111 m 821 1051 l 821 326 q 729 85 821 179 q 478 -14 633 -14 q 227 85 326 -14 q 136 326 136 176 l 136 990 l 264 1051 l 271 1051 l 271 326 q 320 178 271 235 q 478 109 380 109 q 636 178 576 109 q 685 326 685 235 l 685 990 l 814 1051 l 821 1051 z "},"ū":{"ha":766,"x_min":102,"x_max":665,"o":"m 217 836 l 217 842 l 272 959 l 583 959 l 583 952 l 528 836 l 217 836 m 665 773 l 665 258 q 581 63 665 146 q 383 -14 502 -14 q 186 63 266 -14 q 102 258 102 144 l 102 712 l 231 773 l 237 773 l 237 258 q 280 143 237 180 q 383 107 322 107 q 487 143 444 107 q 529 258 529 180 l 529 712 l 658 773 l 665 773 z "},"Ŭ":{"ha":956,"x_min":136,"x_max":821,"o":"m 317 1213 l 317 1219 l 368 1320 q 484 1230 416 1230 q 601 1320 552 1230 l 652 1219 l 652 1213 q 483 1111 583 1111 q 317 1213 378 1111 m 821 1051 l 821 326 q 729 85 821 179 q 478 -14 633 -14 q 227 85 326 -14 q 136 326 136 176 l 136 990 l 264 1051 l 271 1051 l 271 326 q 320 178 271 235 q 478 109 380 109 q 636 178 576 109 q 685 326 685 235 l 685 990 l 814 1051 l 821 1051 z "},"ŭ":{"ha":766,"x_min":102,"x_max":665,"o":"m 217 937 l 217 944 l 267 1045 q 384 954 316 954 q 500 1045 452 954 l 552 944 l 552 937 q 382 836 483 836 q 217 937 278 836 m 665 773 l 665 258 q 581 63 665 146 q 383 -14 502 -14 q 186 63 266 -14 q 102 258 102 144 l 102 712 l 231 773 l 237 773 l 237 258 q 280 143 237 180 q 383 107 322 107 q 487 143 444 107 q 529 258 529 180 l 529 712 l 658 773 l 665 773 z "},"Ů":{"ha":956,"x_min":136,"x_max":821,"o":"m 570 1110 q 478 1077 532 1077 q 387 1110 424 1077 q 345 1205 345 1147 q 387 1300 345 1261 q 478 1333 422 1333 q 570 1300 532 1333 q 612 1205 612 1263 q 570 1110 612 1147 m 478 1263 q 441 1249 455 1263 q 428 1205 428 1234 q 442 1161 428 1174 q 477 1147 457 1147 q 513 1162 498 1147 q 527 1205 527 1175 q 512 1250 527 1236 q 478 1263 498 1263 m 821 1051 l 821 326 q 729 85 821 179 q 478 -14 633 -14 q 227 85 326 -14 q 136 326 136 176 l 136 990 l 264 1051 l 271 1051 l 271 326 q 320 178 271 235 q 478 109 380 109 q 636 178 576 109 q 685 326 685 235 l 685 990 l 814 1051 l 821 1051 z "},"ů":{"ha":766,"x_min":102,"x_max":665,"o":"m 475 839 q 384 806 438 806 q 292 839 330 806 q 250 934 250 876 q 292 1029 250 990 q 384 1062 328 1062 q 475 1029 438 1062 q 517 934 517 991 q 475 839 517 876 m 384 991 q 347 977 361 991 q 334 934 334 963 q 348 890 334 903 q 383 876 363 876 q 419 891 404 876 q 433 934 433 904 q 418 979 433 964 q 384 991 404 991 m 665 773 l 665 258 q 581 63 665 146 q 383 -14 502 -14 q 186 63 266 -14 q 102 258 102 144 l 102 712 l 231 773 l 237 773 l 237 258 q 280 143 237 180 q 383 107 322 107 q 487 143 444 107 q 529 258 529 180 l 529 712 l 658 773 l 665 773 z "},"Ű":{"ha":956,"x_min":136,"x_max":821,"o":"m 633 1333 l 640 1333 l 759 1276 l 609 1062 l 602 1062 l 523 1099 l 633 1333 m 445 1333 l 452 1333 l 571 1276 l 421 1062 l 414 1062 l 335 1099 l 445 1333 m 821 1051 l 821 326 q 729 85 821 179 q 478 -14 633 -14 q 227 85 326 -14 q 136 326 136 176 l 136 990 l 264 1051 l 271 1051 l 271 326 q 320 178 271 235 q 478 109 380 109 q 636 178 576 109 q 685 326 685 235 l 685 990 l 814 1051 l 821 1051 z "},"ű":{"ha":766,"x_min":102,"x_max":665,"o":"m 522 1062 l 529 1062 l 648 1005 l 498 791 l 492 791 l 412 828 l 522 1062 m 334 1062 l 341 1062 l 460 1005 l 311 791 l 304 791 l 224 828 l 334 1062 m 665 773 l 665 258 q 581 63 665 146 q 383 -14 502 -14 q 186 63 266 -14 q 102 258 102 144 l 102 712 l 231 773 l 237 773 l 237 258 q 280 143 237 180 q 383 107 322 107 q 487 143 444 107 q 529 258 529 180 l 529 712 l 658 773 l 665 773 z "},"Ų":{"ha":956,"x_min":136,"x_max":821,"o":"m 821 1051 l 821 326 q 729 85 821 176 q 677 42 705 60 q 602 -103 602 -35 q 693 -244 602 -185 l 564 -305 l 557 -305 q 484 -140 484 -233 q 534 -10 484 -68 q 478 -14 507 -14 q 227 85 326 -14 q 136 326 136 176 l 136 990 l 264 1051 l 271 1051 l 271 326 q 320 178 271 235 q 478 109 380 109 q 636 178 576 109 q 685 326 685 235 l 685 990 l 814 1051 l 821 1051 z "},"ų":{"ha":766,"x_min":102,"x_max":665,"o":"m 665 773 l 665 258 q 581 63 665 147 q 553 39 568 50 q 480 -103 480 -37 q 571 -244 480 -185 l 442 -305 l 435 -305 q 361 -140 361 -233 q 410 -13 361 -70 q 383 -14 397 -14 q 186 63 266 -14 q 102 258 102 144 l 102 712 l 231 773 l 237 773 l 237 258 q 280 143 237 180 q 383 107 322 107 q 487 143 444 107 q 529 258 529 180 l 529 712 l 658 773 l 665 773 z "},"Ŵ":{"ha":1506,"x_min":136,"x_max":1370,"o":"m 1370 1051 l 1370 326 q 1278 85 1370 179 q 1027 -14 1182 -14 q 789 85 888 -14 q 753 132 765 109 q 715 87 737 109 q 478 -14 612 -14 q 227 85 326 -14 q 136 326 136 176 l 136 990 l 264 1051 l 271 1051 l 271 326 q 320 178 271 235 q 478 109 380 109 q 636 178 576 109 q 685 326 685 235 l 685 990 l 814 1051 l 821 1051 l 821 326 q 869 178 821 235 q 1027 109 930 109 q 1185 178 1125 109 q 1234 326 1234 235 l 1234 990 l 1363 1051 l 1370 1051 m 558 1099 l 662 1276 l 781 1333 l 788 1333 l 932 1099 l 854 1062 l 847 1062 l 745 1203 l 645 1062 l 638 1062 l 558 1099 z "},"ŵ":{"ha":1194,"x_min":102,"x_max":1092,"o":"m 1092 773 l 1092 258 q 1008 63 1092 146 q 810 -14 929 -14 q 624 65 703 -14 q 597 100 609 80 q 570 66 585 81 q 383 -14 485 -14 q 186 63 266 -14 q 102 258 102 144 l 102 712 l 231 773 l 237 773 l 237 258 q 280 143 237 180 q 383 107 322 107 q 487 143 444 107 q 529 258 529 180 l 529 712 l 658 773 l 665 773 l 665 258 q 707 143 665 180 q 810 107 749 107 q 914 143 871 107 q 956 258 956 180 l 956 712 l 1085 773 l 1092 773 m 406 828 l 509 1005 l 629 1062 l 635 1062 l 780 828 l 701 791 l 694 791 l 593 932 l 492 791 l 486 791 l 406 828 z "},"Ŷ":{"ha":888,"x_min":102,"x_max":787,"o":"m 264 1099 l 368 1276 l 488 1333 l 494 1333 l 639 1099 l 560 1062 l 553 1062 l 452 1203 l 351 1062 l 345 1062 l 264 1099 m 376 -27 l 376 328 q 193 421 270 346 q 102 662 102 511 l 102 990 l 231 1051 l 237 1051 l 237 662 q 286 515 237 571 q 444 445 347 445 q 602 515 547 445 q 651 662 651 577 l 651 990 l 780 1051 l 787 1051 l 787 662 q 695 421 787 515 q 512 328 621 345 l 512 34 l 383 -27 l 376 -27 z "},"ŷ":{"ha":800,"x_min":102,"x_max":665,"o":"m 102 258 l 102 712 l 231 773 l 237 773 l 237 258 q 280 143 237 180 q 383 107 322 107 q 487 143 444 107 q 529 258 529 180 l 529 712 l 658 773 l 665 773 l 665 -20 q 581 -215 665 -132 q 383 -292 502 -292 l 174 -292 l 174 -285 l 229 -171 l 383 -171 q 487 -134 444 -171 q 529 -20 529 -98 l 529 44 q 383 -14 479 -14 q 186 63 267 -14 q 102 258 102 143 m 199 828 l 303 1005 l 422 1062 l 429 1062 l 574 828 l 495 791 l 488 791 l 387 932 l 286 791 l 279 791 l 199 828 z "},"Ÿ":{"ha":888,"x_min":102,"x_max":787,"o":"m 490 1164 q 478 1176 490 1164 q 467 1222 467 1188 q 490 1281 467 1257 q 548 1305 514 1305 q 606 1281 582 1305 q 629 1222 629 1257 q 606 1164 629 1188 q 548 1139 582 1139 q 490 1164 514 1139 m 287 1164 q 275 1176 287 1164 q 263 1222 263 1188 q 287 1281 263 1257 q 345 1305 311 1305 q 402 1281 378 1305 q 426 1222 426 1257 q 402 1164 426 1188 q 345 1139 378 1139 q 287 1164 311 1139 m 376 -27 l 376 328 q 193 421 270 346 q 102 662 102 511 l 102 990 l 231 1051 l 237 1051 l 237 662 q 286 515 237 571 q 444 445 347 445 q 602 515 547 445 q 651 662 651 577 l 651 990 l 780 1051 l 787 1051 l 787 662 q 695 421 787 515 q 512 328 621 345 l 512 34 l 383 -27 l 376 -27 z "},"Ź":{"ha":859,"x_min":102,"x_max":758,"o":"m 474 1333 l 481 1333 l 600 1276 l 450 1062 l 444 1062 l 364 1099 l 474 1333 m 102 0 l 102 7 l 541 901 l 109 901 l 109 907 l 163 1024 l 751 1024 l 751 1017 l 310 123 l 758 123 l 758 117 l 703 0 l 102 0 z "},"ź":{"ha":714,"x_min":68,"x_max":646,"o":"m 408 1062 l 415 1062 l 534 1005 l 385 791 l 378 791 l 298 828 l 408 1062 m 68 0 l 68 7 l 422 623 l 75 623 l 75 629 l 130 746 l 640 746 l 640 739 l 286 123 l 646 123 l 646 117 l 591 0 l 68 0 z "},"Ż":{"ha":859,"x_min":102,"x_max":758,"o":"m 381 1164 q 369 1176 381 1164 q 357 1222 357 1188 q 381 1281 357 1257 q 439 1305 405 1305 q 496 1281 473 1305 q 520 1222 520 1257 q 496 1164 520 1188 q 439 1139 473 1139 q 381 1164 405 1139 m 102 0 l 102 7 l 541 901 l 109 901 l 109 907 l 163 1024 l 751 1024 l 751 1017 l 310 123 l 758 123 l 758 117 l 703 0 l 102 0 z "},"ż":{"ha":714,"x_min":68,"x_max":646,"o":"m 307 896 q 295 908 307 896 q 283 955 283 920 q 307 1013 283 989 q 365 1038 331 1038 q 422 1013 399 1038 q 446 955 446 989 q 422 896 446 920 q 365 871 399 871 q 307 896 331 871 m 68 0 l 68 7 l 422 623 l 75 623 l 75 629 l 130 746 l 640 746 l 640 739 l 286 123 l 646 123 l 646 117 l 591 0 l 68 0 z "},"Ž":{"ha":859,"x_min":102,"x_max":758,"o":"m 386 1062 l 241 1296 l 320 1333 l 327 1333 l 429 1192 l 529 1333 l 536 1333 l 616 1296 l 512 1119 l 393 1062 l 386 1062 m 102 0 l 102 7 l 541 901 l 109 901 l 109 907 l 163 1024 l 751 1024 l 751 1017 l 310 123 l 758 123 l 758 117 l 703 0 l 102 0 z "},"ž":{"ha":714,"x_min":68,"x_max":646,"o":"m 326 791 l 181 1025 l 260 1062 l 267 1062 l 368 921 l 469 1062 l 475 1062 l 555 1025 l 452 848 l 332 791 l 326 791 m 68 0 l 68 7 l 422 623 l 75 623 l 75 629 l 130 746 l 640 746 l 640 739 l 286 123 l 646 123 l 646 117 l 591 0 l 68 0 z "},"ſ":{"ha":576,"x_min":34,"x_max":543,"o":"m 305 34 l 176 -27 l 170 -27 l 170 555 l 34 555 l 34 562 l 89 678 l 170 678 l 170 766 q 254 961 170 878 q 451 1038 332 1038 l 543 1038 l 543 1031 l 488 917 l 451 917 q 347 880 389 917 q 305 766 305 842 l 305 34 z "},"Ƒ":{"ha":760,"x_min":-10,"x_max":637,"o":"m -10 -305 l -10 -298 l 47 -175 q 94 -148 73 -165 q 136 -34 136 -111 l 136 990 l 208 1024 l 637 1024 l 637 1017 l 583 901 l 271 901 l 271 574 l 637 574 l 637 567 l 583 450 l 271 450 l 271 -34 q 187 -229 271 -146 q -10 -305 109 -305 z "},"ƒ":{"ha":576,"x_min":-10,"x_max":509,"o":"m -10 -305 l -10 -298 l 47 -175 q 94 -148 73 -165 q 136 -34 136 -111 l 136 555 l 34 555 l 34 562 l 89 678 l 136 678 l 136 766 q 220 961 136 878 q 417 1038 298 1038 l 509 1038 l 509 1031 l 454 917 l 417 917 q 313 880 356 917 q 271 766 271 844 l 271 678 l 496 678 l 496 671 l 441 555 l 271 555 l 271 -34 q 187 -229 271 -146 q -10 -305 109 -305 z "},"Ǥ":{"ha":956,"x_min":136,"x_max":922,"o":"m 821 574 l 821 361 l 922 361 l 922 354 l 867 237 l 811 237 q 729 85 791 149 q 478 -14 633 -14 q 227 85 323 -14 q 136 326 136 178 l 136 699 q 227 939 136 846 q 478 1038 323 1038 q 729 939 638 1038 q 821 712 821 841 l 692 651 l 685 651 l 685 699 q 636 846 685 789 q 478 916 576 916 q 320 846 380 916 q 271 699 271 789 l 271 326 q 320 178 271 235 q 478 109 380 109 q 636 178 575 109 q 672 237 660 205 l 507 237 l 507 244 l 562 361 l 685 361 l 685 450 l 449 450 l 449 457 l 504 574 l 821 574 z "},"ǥ":{"ha":787,"x_min":102,"x_max":753,"o":"m 102 258 l 102 488 q 186 683 102 600 q 383 760 264 760 q 581 683 502 760 q 665 488 665 601 l 665 439 l 753 439 l 753 433 l 698 316 l 665 316 l 665 -20 q 581 -215 665 -132 q 383 -292 502 -292 l 174 -292 l 174 -285 l 229 -171 l 383 -171 q 487 -135 444 -171 q 529 -20 529 -98 l 529 44 q 383 -14 477 -14 q 186 63 264 -14 q 102 258 102 144 m 237 258 q 280 143 237 180 q 383 107 322 107 q 487 143 444 107 q 529 258 529 180 l 529 316 l 338 316 l 338 323 l 393 439 l 529 439 l 529 488 q 487 603 529 566 q 383 639 444 639 q 280 603 322 639 q 237 488 237 566 l 237 258 z "},"Ǽ":{"ha":1334,"x_min":136,"x_max":1300,"o":"m 136 -27 l 136 699 q 227 939 136 845 q 478 1038 323 1038 q 685 956 621 1038 l 685 990 l 757 1024 l 1187 1024 l 1187 1017 l 1132 901 l 821 901 l 821 574 l 1187 574 l 1187 567 l 1132 450 l 821 450 l 821 123 l 1300 123 l 1300 117 l 1245 0 l 685 0 l 685 450 l 271 450 l 271 34 l 142 -27 l 136 -27 m 271 574 l 685 574 l 685 699 q 636 846 685 789 q 478 916 576 916 q 320 846 380 916 q 271 699 271 789 l 271 574 m 729 1333 l 736 1333 l 855 1276 l 705 1062 l 699 1062 l 619 1099 l 729 1333 z "},"ǽ":{"ha":1146,"x_min":68,"x_max":1044,"o":"m 1044 300 l 1044 258 q 960 63 1044 146 q 763 -14 882 -14 q 613 38 670 -14 l 488 -27 l 481 -27 l 481 44 q 336 -14 427 -14 q 138 63 209 -14 q 68 244 68 140 q 144 429 68 353 q 336 502 218 502 q 481 444 425 502 q 439 602 481 564 q 336 639 399 639 l 171 639 l 171 646 l 225 760 l 336 760 q 522 681 444 760 q 549 646 537 666 q 576 680 562 665 q 763 760 661 760 q 960 683 878 760 q 1044 508 1044 604 l 1044 507 l 631 182 q 659 144 641 159 q 763 107 702 107 q 866 144 824 107 q 909 239 909 180 l 1038 300 l 1044 300 m 201 244 q 237 144 201 184 q 336 106 273 106 q 439 145 403 106 q 480 243 480 189 q 438 342 480 304 q 337 380 396 380 q 238 340 275 380 q 201 244 201 300 m 617 319 l 901 549 q 867 602 890 583 q 763 639 824 639 q 660 603 702 639 q 617 488 617 566 l 617 319 m 617 1062 l 624 1062 l 743 1005 l 593 791 l 587 791 l 507 828 l 617 1062 z "},"Ǿ":{"ha":956,"x_min":136,"x_max":821,"o":"m 554 1333 l 561 1333 l 680 1276 l 530 1062 l 524 1062 l 444 1099 l 554 1333 m 274 -27 l 267 -27 l 197 7 l 231 81 q 136 326 136 174 l 136 699 q 227 939 136 846 q 478 1038 323 1038 q 656 995 580 1038 l 682 1051 l 689 1051 l 760 1017 l 726 943 q 821 699 821 846 l 821 326 q 729 85 821 178 q 478 -14 633 -14 q 300 29 376 -14 l 274 -27 m 602 878 q 478 916 550 916 q 320 846 380 916 q 271 699 271 789 l 271 326 q 294 217 271 263 l 602 878 m 662 807 l 355 146 q 478 109 406 109 q 636 178 576 109 q 685 326 685 235 l 685 699 q 662 807 685 761 z "},"ǿ":{"ha":766,"x_min":102,"x_max":665,"o":"m 463 1062 l 470 1062 l 589 1005 l 439 791 l 433 791 l 353 828 l 463 1062 m 243 -27 l 237 -27 l 166 7 l 191 59 q 102 258 102 140 l 102 488 q 186 683 102 600 q 383 760 264 760 q 505 735 450 760 l 522 773 l 529 773 l 600 739 l 576 687 q 665 488 665 602 l 665 258 q 581 63 665 146 q 383 -14 502 -14 q 261 12 316 -14 l 243 -27 m 453 625 q 383 639 422 639 q 280 603 322 639 q 237 488 237 566 l 237 258 q 250 186 237 216 l 453 625 m 517 559 l 313 122 q 383 107 345 107 q 487 143 444 107 q 529 258 529 180 l 529 488 q 517 559 529 530 z "},"Ș":{"ha":902,"x_min":109,"x_max":793,"o":"m 380 -305 l 374 -305 l 254 -248 l 404 -34 l 411 -34 l 490 -71 l 380 -305 m 793 320 q 702 85 793 182 q 451 -14 609 -14 q 200 85 293 -14 q 109 312 109 182 l 237 373 l 244 373 l 244 317 q 293 178 244 235 q 451 109 353 109 q 609 178 548 109 q 657 319 657 233 q 618 446 657 399 q 451 509 564 509 q 237 591 328 509 q 170 768 170 652 q 254 972 170 904 q 451 1038 334 1038 q 648 972 568 1038 q 732 785 732 904 l 604 724 l 597 724 l 597 778 q 553 893 597 855 q 451 930 510 930 q 345 889 385 930 q 305 778 305 848 q 336 677 305 711 q 451 631 376 631 q 702 554 615 631 q 793 320 793 473 z "},"ș":{"ha":726,"x_min":81,"x_max":644,"o":"m 288 -305 l 281 -305 l 161 -248 l 311 -34 l 318 -34 l 397 -71 l 288 -305 m 81 239 l 210 300 l 217 300 l 217 246 q 261 131 217 170 q 363 94 303 94 q 471 138 432 94 q 511 238 511 184 q 468 330 511 296 q 362 359 431 359 q 172 412 241 359 q 110 555 110 458 q 196 711 110 650 q 363 760 263 760 q 529 700 458 760 q 596 591 583 653 l 467 530 l 460 530 l 460 550 q 440 610 460 585 q 347 652 408 652 q 269 622 299 652 q 239 555 239 592 q 275 486 239 512 q 362 472 296 472 q 569 409 500 472 q 644 231 644 340 q 566 62 644 142 q 363 -14 492 -14 q 165 52 245 -14 q 81 239 81 120 z "},"Ț":{"ha":723,"x_min":3,"x_max":720,"o":"m 323 -305 l 317 -305 l 197 -248 l 347 -34 l 354 -34 l 433 -71 l 323 -305 m 294 -27 l 294 901 l 3 901 l 3 907 l 58 1024 l 720 1024 l 720 1017 l 665 901 l 429 901 l 429 34 l 300 -27 l 294 -27 z "},"ț":{"ha":518,"x_min":17,"x_max":501,"o":"m 240 -305 l 233 -305 l 114 -248 l 264 -34 l 271 -34 l 350 -71 l 240 -305 m 191 -27 l 191 623 l 17 623 l 17 629 l 72 746 l 191 746 l 191 990 l 320 1051 l 327 1051 l 327 746 l 501 746 l 501 739 l 446 623 l 327 623 l 327 34 l 198 -27 l 191 -27 z "},"ȷ":{"ha":407,"x_min":-10,"x_max":271,"o":"m -10 -305 l -10 -298 l 47 -175 q 94 -148 73 -165 q 136 -34 136 -111 l 136 712 l 264 773 l 271 773 l 271 -34 q 187 -229 271 -146 q -10 -305 109 -305 z "},"Δ":{"ha":808,"x_min":3,"x_max":804,"o":"m 3 0 l 334 996 l 452 1051 l 458 1051 l 804 0 l 3 0 m 186 123 l 621 123 l 406 824 l 186 123 z "},"Π":{"ha":943,"x_min":136,"x_max":807,"o":"m 142 -27 l 136 -27 l 136 990 l 208 1024 l 807 1024 l 807 34 l 678 -27 l 671 -27 l 671 901 l 271 901 l 271 34 l 142 -27 z "},"Σ":{"ha":816,"x_min":68,"x_max":714,"o":"m 68 0 l 410 525 l 68 990 l 140 1024 l 652 1024 l 652 1017 l 597 901 l 282 901 l 568 525 l 292 123 l 714 123 l 714 117 l 659 0 l 68 0 z "},"Ω":{"ha":956,"x_min":102,"x_max":854,"o":"m 102 0 l 102 7 l 157 123 l 302 123 l 302 168 q 227 217 260 186 q 136 458 136 304 l 136 699 q 227 939 136 846 q 478 1038 323 1038 q 729 939 629 1038 q 821 699 821 848 l 821 458 q 729 217 821 307 q 654 168 700 189 l 654 123 l 854 123 l 854 117 l 800 0 l 544 0 l 544 250 q 636 311 597 266 q 685 458 685 367 l 685 699 q 636 846 685 789 q 478 916 576 916 q 320 846 380 916 q 271 699 271 789 l 271 458 q 320 311 271 365 q 412 249 362 264 l 412 0 l 102 0 z "},"μ":{"ha":800,"x_min":136,"x_max":699,"o":"m 136 712 l 264 773 l 271 773 l 271 258 q 314 143 271 180 q 417 107 356 107 q 520 143 478 107 q 563 258 563 180 l 563 712 l 692 773 l 699 773 l 699 258 q 614 63 699 146 q 417 -14 536 -14 q 271 44 323 -14 l 271 -244 l 142 -305 l 136 -305 l 136 712 z "},"π":{"ha":795,"x_min":136,"x_max":660,"o":"m 142 -27 l 136 -27 l 136 712 l 208 746 l 660 746 l 660 34 l 531 -27 l 524 -27 l 524 623 l 271 623 l 271 34 l 142 -27 z "},"Ḃ":{"ha":929,"x_min":136,"x_max":807,"o":"m 271 122 l 465 122 q 627 186 567 122 q 671 310 671 233 q 625 444 671 389 q 465 506 574 506 l 271 506 l 271 122 m 271 628 l 465 628 q 574 672 532 628 q 610 774 610 711 q 566 867 610 826 q 465 902 527 902 l 271 902 l 271 628 m 136 0 l 136 990 l 208 1024 l 465 1024 q 655 962 579 1024 q 745 774 745 888 q 642 580 745 657 q 708 537 675 566 q 807 313 807 447 q 720 93 807 179 q 465 0 627 0 l 136 0 m 345 1164 q 333 1176 345 1164 q 321 1222 321 1188 q 345 1281 321 1257 q 403 1305 369 1305 q 460 1281 437 1305 q 484 1222 484 1257 q 460 1164 484 1188 q 403 1139 437 1139 q 345 1164 369 1139 z "},"ḃ":{"ha":800,"x_min":136,"x_max":699,"o":"m 136 258 l 136 990 l 264 1051 l 271 1051 l 271 702 q 417 760 323 760 q 614 683 534 760 q 699 488 699 602 l 699 258 q 614 63 699 146 q 417 -14 536 -14 q 220 63 300 -14 q 136 258 136 144 m 271 258 q 314 143 271 180 q 417 107 356 107 q 520 143 478 107 q 563 258 563 180 l 563 488 q 520 603 563 566 q 417 639 478 639 q 314 603 356 639 q 271 488 271 566 l 271 258 m 403 896 q 391 908 403 896 q 379 955 379 920 q 403 1013 379 989 q 460 1038 427 1038 q 518 1013 494 1038 q 542 955 542 989 q 518 896 542 920 q 460 871 494 871 q 403 896 427 871 z "},"Ḋ":{"ha":943,"x_min":136,"x_max":807,"o":"m 359 1164 q 348 1176 359 1164 q 336 1222 336 1188 q 359 1281 336 1257 q 417 1305 383 1305 q 475 1281 451 1305 q 498 1222 498 1257 q 475 1164 498 1188 q 417 1139 451 1139 q 359 1164 383 1139 m 136 0 l 136 990 l 208 1024 l 465 1024 q 715 926 619 1024 q 807 685 807 833 l 807 339 q 715 98 807 192 q 465 0 619 0 l 136 0 m 271 122 l 465 122 q 623 192 562 122 q 671 339 671 248 l 671 685 q 623 832 671 776 q 465 902 562 902 l 271 902 l 271 122 z "},"ḋ":{"ha":800,"x_min":102,"x_max":665,"o":"m 237 258 q 280 143 237 180 q 383 107 322 107 q 487 143 444 107 q 529 258 529 180 l 529 488 q 487 603 529 566 q 383 639 444 639 q 280 603 322 639 q 237 488 237 566 l 237 258 m 102 258 l 102 488 q 186 683 102 600 q 383 760 264 760 q 529 702 473 760 l 529 990 l 658 1051 l 665 1051 l 665 258 q 581 63 665 146 q 383 -14 502 -14 q 186 63 266 -14 q 102 258 102 144 m 258 896 q 247 908 258 896 q 235 955 235 920 q 258 1013 235 989 q 316 1038 282 1038 q 374 1013 350 1038 q 397 955 397 989 q 374 896 397 920 q 316 871 350 871 q 258 896 282 871 z "},"Ḟ":{"ha":760,"x_min":136,"x_max":637,"o":"m 342 1164 q 331 1176 342 1164 q 319 1222 319 1188 q 342 1281 319 1257 q 400 1305 366 1305 q 458 1281 434 1305 q 481 1222 481 1257 q 458 1164 481 1188 q 400 1139 434 1139 q 342 1164 366 1139 m 136 -27 l 136 990 l 208 1024 l 637 1024 l 637 1017 l 583 901 l 271 901 l 271 574 l 637 574 l 637 567 l 583 450 l 271 450 l 271 34 l 142 -27 l 136 -27 z "},"ḟ":{"ha":576,"x_min":34,"x_max":509,"o":"m 254 1164 q 242 1176 254 1164 q 231 1222 231 1188 q 254 1281 231 1257 q 312 1305 278 1305 q 370 1281 346 1305 q 393 1222 393 1257 q 370 1164 393 1188 q 312 1139 346 1139 q 254 1164 278 1139 m 136 -27 l 136 555 l 34 555 l 34 562 l 89 678 l 136 678 l 136 766 q 220 961 136 878 q 417 1038 298 1038 l 509 1038 l 509 1031 l 454 917 l 417 917 q 313 880 356 917 q 271 766 271 844 l 271 678 l 496 678 l 496 671 l 441 555 l 271 555 l 271 34 l 142 -27 l 136 -27 z "},"Ṁ":{"ha":1506,"x_min":136,"x_max":1370,"o":"m 136 -27 l 136 699 q 227 939 136 845 q 478 1038 323 1038 q 716 939 618 1038 q 753 892 741 915 q 791 937 768 916 q 1027 1038 893 1038 q 1278 939 1179 1038 q 1370 699 1370 848 l 1370 34 l 1241 -27 l 1234 -27 l 1234 699 q 1185 846 1234 789 q 1027 916 1125 916 q 869 846 930 916 q 821 699 821 789 l 821 34 l 692 -27 l 685 -27 l 685 699 q 636 846 685 789 q 478 916 576 916 q 320 846 380 916 q 271 699 271 789 l 271 34 l 142 -27 l 136 -27 m 692 1164 q 681 1176 692 1164 q 669 1222 669 1188 q 692 1281 669 1257 q 750 1305 716 1305 q 808 1281 784 1305 q 831 1222 831 1257 q 808 1164 831 1188 q 750 1139 784 1139 q 692 1164 716 1139 z "},"ṁ":{"ha":1194,"x_min":102,"x_max":1092,"o":"m 102 -27 l 102 488 q 186 683 102 600 q 383 760 264 760 q 570 681 491 760 q 597 646 585 666 q 624 680 609 665 q 810 760 709 760 q 1008 683 928 760 q 1092 488 1092 602 l 1092 34 l 963 -27 l 956 -27 l 956 488 q 914 603 956 566 q 810 639 871 639 q 707 603 749 639 q 665 488 665 566 l 665 34 l 536 -27 l 529 -27 l 529 488 q 487 603 529 566 q 383 639 444 639 q 280 603 322 639 q 237 488 237 566 l 237 34 l 109 -27 l 102 -27 m 546 896 q 534 908 546 896 q 522 955 522 920 q 546 1013 522 989 q 604 1038 570 1038 q 661 1013 637 1038 q 685 955 685 989 q 661 896 685 920 q 604 871 637 871 q 546 896 570 871 z "},"Ṗ":{"ha":909,"x_min":136,"x_max":807,"o":"m 359 1164 q 348 1176 359 1164 q 336 1222 336 1188 q 359 1281 336 1257 q 417 1305 383 1305 q 475 1281 451 1305 q 498 1222 498 1257 q 475 1164 498 1188 q 417 1139 451 1139 q 359 1164 383 1139 m 271 468 l 465 468 q 623 538 553 468 q 671 685 671 587 q 623 832 671 776 q 465 902 562 902 l 271 902 l 271 468 m 136 -27 l 136 990 l 208 1024 l 465 1024 q 715 926 619 1024 q 807 685 807 832 q 715 444 807 537 q 465 346 618 346 l 271 346 l 271 34 l 142 -27 l 136 -27 z "},"ṗ":{"ha":800,"x_min":136,"x_max":699,"o":"m 563 488 q 520 603 563 566 q 417 639 478 639 q 314 603 356 639 q 271 488 271 566 l 271 258 q 314 143 271 180 q 417 107 356 107 q 520 143 478 107 q 563 258 563 180 l 563 488 m 699 488 l 699 258 q 614 63 699 146 q 417 -14 536 -14 q 271 44 328 -14 l 271 -244 l 142 -305 l 136 -305 l 136 488 q 220 683 136 600 q 417 760 298 760 q 614 683 534 760 q 699 488 699 602 m 363 896 q 351 908 363 896 q 339 955 339 920 q 363 1013 339 989 q 420 1038 387 1038 q 478 1013 454 1038 q 502 955 502 989 q 478 896 502 920 q 420 871 454 871 q 363 896 387 871 z "},"Ṡ":{"ha":902,"x_min":109,"x_max":793,"o":"m 394 1164 q 382 1176 394 1164 q 370 1222 370 1188 q 394 1281 370 1257 q 452 1305 418 1305 q 509 1281 486 1305 q 533 1222 533 1257 q 509 1164 533 1188 q 452 1139 486 1139 q 394 1164 418 1139 m 793 320 q 702 85 793 182 q 451 -14 609 -14 q 200 85 293 -14 q 109 312 109 182 l 237 373 l 244 373 l 244 317 q 293 178 244 235 q 451 109 353 109 q 609 178 548 109 q 657 319 657 233 q 618 446 657 399 q 451 509 564 509 q 237 591 328 509 q 170 768 170 652 q 254 972 170 904 q 451 1038 334 1038 q 648 972 568 1038 q 732 785 732 904 l 604 724 l 597 724 l 597 778 q 553 893 597 855 q 451 930 510 930 q 345 889 385 930 q 305 778 305 848 q 336 677 305 711 q 451 631 376 631 q 702 554 615 631 q 793 320 793 473 z "},"ṡ":{"ha":726,"x_min":81,"x_max":644,"o":"m 304 896 q 293 908 304 896 q 281 955 281 920 q 304 1013 281 989 q 362 1038 328 1038 q 420 1013 396 1038 q 444 955 444 989 q 420 896 444 920 q 362 871 396 871 q 304 896 328 871 m 81 239 l 210 300 l 217 300 l 217 246 q 261 131 217 170 q 363 94 303 94 q 471 138 432 94 q 511 238 511 184 q 468 330 511 296 q 362 359 431 359 q 172 412 241 359 q 110 555 110 458 q 196 711 110 650 q 363 760 263 760 q 529 700 458 760 q 596 591 583 653 l 467 530 l 460 530 l 460 550 q 440 610 460 585 q 347 652 408 652 q 269 622 299 652 q 239 555 239 592 q 275 486 239 512 q 362 472 296 472 q 569 409 500 472 q 644 231 644 340 q 566 62 644 142 q 363 -14 492 -14 q 165 52 245 -14 q 81 239 81 120 z "},"Ṫ":{"ha":723,"x_min":3,"x_max":720,"o":"m 299 1164 q 287 1176 299 1164 q 275 1222 275 1188 q 299 1281 275 1257 q 357 1305 323 1305 q 414 1281 391 1305 q 438 1222 438 1257 q 414 1164 438 1188 q 357 1139 391 1139 q 299 1164 323 1139 m 294 -27 l 294 901 l 3 901 l 3 907 l 58 1024 l 720 1024 l 720 1017 l 665 901 l 429 901 l 429 34 l 300 -27 l 294 -27 z "},"ṫ":{"ha":518,"x_min":17,"x_max":501,"o":"m 191 -27 l 191 623 l 17 623 l 17 629 l 72 746 l 191 746 l 191 990 l 320 1051 l 327 1051 l 327 746 l 501 746 l 501 739 l 446 623 l 327 623 l 327 34 l 198 -27 l 191 -27 m 201 1164 q 190 1176 201 1164 q 178 1222 178 1188 q 201 1281 178 1257 q 259 1305 225 1305 q 317 1281 293 1305 q 340 1222 340 1257 q 317 1164 340 1188 q 259 1139 293 1139 q 201 1164 225 1139 z "},"Ẁ":{"ha":1506,"x_min":136,"x_max":1370,"o":"m 1370 1051 l 1370 326 q 1278 85 1370 179 q 1027 -14 1182 -14 q 789 85 888 -14 q 753 132 765 109 q 715 87 737 109 q 478 -14 612 -14 q 227 85 326 -14 q 136 326 136 176 l 136 990 l 264 1051 l 271 1051 l 271 326 q 320 178 271 235 q 478 109 380 109 q 636 178 576 109 q 685 326 685 235 l 685 990 l 814 1051 l 821 1051 l 821 326 q 869 178 821 235 q 1027 109 930 109 q 1185 178 1125 109 q 1234 326 1234 235 l 1234 990 l 1363 1051 l 1370 1051 m 713 1333 l 720 1333 l 829 1099 l 750 1062 l 743 1062 l 593 1276 l 713 1333 z "},"ẁ":{"ha":1194,"x_min":102,"x_max":1092,"o":"m 1092 773 l 1092 258 q 1008 63 1092 146 q 810 -14 929 -14 q 624 65 703 -14 q 597 100 609 80 q 570 66 585 81 q 383 -14 485 -14 q 186 63 266 -14 q 102 258 102 144 l 102 712 l 231 773 l 237 773 l 237 258 q 280 143 237 180 q 383 107 322 107 q 487 143 444 107 q 529 258 529 180 l 529 712 l 658 773 l 665 773 l 665 258 q 707 143 665 180 q 810 107 749 107 q 914 143 871 107 q 956 258 956 180 l 956 712 l 1085 773 l 1092 773 m 562 1062 l 569 1062 l 679 828 l 600 791 l 593 791 l 443 1005 l 562 1062 z "},"Ẃ":{"ha":1506,"x_min":136,"x_max":1370,"o":"m 1370 1051 l 1370 326 q 1278 85 1370 179 q 1027 -14 1182 -14 q 789 85 888 -14 q 753 132 765 109 q 715 87 737 109 q 478 -14 612 -14 q 227 85 326 -14 q 136 326 136 176 l 136 990 l 264 1051 l 271 1051 l 271 326 q 320 178 271 235 q 478 109 380 109 q 636 178 576 109 q 685 326 685 235 l 685 990 l 814 1051 l 821 1051 l 821 326 q 869 178 821 235 q 1027 109 930 109 q 1185 178 1125 109 q 1234 326 1234 235 l 1234 990 l 1363 1051 l 1370 1051 m 782 1333 l 789 1333 l 908 1276 l 758 1062 l 751 1062 l 672 1099 l 782 1333 z "},"ẃ":{"ha":1194,"x_min":102,"x_max":1092,"o":"m 1092 773 l 1092 258 q 1008 63 1092 146 q 810 -14 929 -14 q 624 65 703 -14 q 597 100 609 80 q 570 66 585 81 q 383 -14 485 -14 q 186 63 266 -14 q 102 258 102 144 l 102 712 l 231 773 l 237 773 l 237 258 q 280 143 237 180 q 383 107 322 107 q 487 143 444 107 q 529 258 529 180 l 529 712 l 658 773 l 665 773 l 665 258 q 707 143 665 180 q 810 107 749 107 q 914 143 871 107 q 956 258 956 180 l 956 712 l 1085 773 l 1092 773 m 622 1062 l 629 1062 l 748 1005 l 598 791 l 591 791 l 512 828 l 622 1062 z "},"Ẅ":{"ha":1506,"x_min":136,"x_max":1370,"o":"m 1370 1051 l 1370 326 q 1278 85 1370 179 q 1027 -14 1182 -14 q 789 85 888 -14 q 753 132 765 109 q 715 87 737 109 q 478 -14 612 -14 q 227 85 326 -14 q 136 326 136 176 l 136 990 l 264 1051 l 271 1051 l 271 326 q 320 178 271 235 q 478 109 380 109 q 636 178 576 109 q 685 326 685 235 l 685 990 l 814 1051 l 821 1051 l 821 326 q 869 178 821 235 q 1027 109 930 109 q 1185 178 1125 109 q 1234 326 1234 235 l 1234 990 l 1363 1051 l 1370 1051 m 789 1164 q 777 1176 789 1164 q 765 1222 765 1188 q 789 1281 765 1257 q 846 1305 812 1305 q 904 1281 880 1305 q 928 1222 928 1257 q 904 1164 928 1188 q 846 1139 880 1139 q 789 1164 812 1139 m 585 1164 q 573 1176 585 1164 q 562 1222 562 1188 q 585 1281 562 1257 q 643 1305 609 1305 q 701 1281 677 1305 q 724 1222 724 1257 q 701 1164 724 1188 q 643 1139 677 1139 q 585 1164 609 1139 z "},"ẅ":{"ha":1194,"x_min":102,"x_max":1092,"o":"m 1092 773 l 1092 258 q 1008 63 1092 146 q 810 -14 929 -14 q 624 65 703 -14 q 597 100 609 80 q 570 66 585 81 q 383 -14 485 -14 q 186 63 266 -14 q 102 258 102 144 l 102 712 l 231 773 l 237 773 l 237 258 q 280 143 237 180 q 383 107 322 107 q 487 143 444 107 q 529 258 529 180 l 529 712 l 658 773 l 665 773 l 665 258 q 707 143 665 180 q 810 107 749 107 q 914 143 871 107 q 956 258 956 180 l 956 712 l 1085 773 l 1092 773 m 635 896 q 624 908 635 896 q 612 955 612 920 q 635 1013 612 989 q 693 1038 659 1038 q 751 1013 727 1038 q 774 955 774 989 q 751 896 774 920 q 693 871 727 871 q 635 896 659 871 m 432 896 q 420 908 432 896 q 408 955 408 920 q 432 1013 408 989 q 490 1038 456 1038 q 547 1013 524 1038 q 571 955 571 989 q 547 896 571 920 q 490 871 524 871 q 432 896 456 871 z "},"Ỳ":{"ha":888,"x_min":102,"x_max":787,"o":"m 404 1333 l 411 1333 l 521 1099 l 441 1062 l 435 1062 l 285 1276 l 404 1333 m 376 -27 l 376 328 q 193 421 270 346 q 102 662 102 511 l 102 990 l 231 1051 l 237 1051 l 237 662 q 286 515 237 571 q 444 445 347 445 q 602 515 547 445 q 651 662 651 577 l 651 990 l 780 1051 l 787 1051 l 787 662 q 695 421 787 515 q 512 328 621 345 l 512 34 l 383 -27 l 376 -27 z "},"ỳ":{"ha":800,"x_min":102,"x_max":665,"o":"m 102 258 l 102 712 l 231 773 l 237 773 l 237 258 q 280 143 237 180 q 383 107 322 107 q 487 143 444 107 q 529 258 529 180 l 529 712 l 658 773 l 665 773 l 665 -20 q 581 -215 665 -132 q 383 -292 502 -292 l 174 -292 l 174 -285 l 229 -171 l 383 -171 q 487 -134 444 -171 q 529 -20 529 -98 l 529 44 q 383 -14 479 -14 q 186 63 267 -14 q 102 258 102 143 m 321 1062 l 328 1062 l 437 828 l 358 791 l 351 791 l 201 1005 l 321 1062 z "},"‐":{"ha":823,"x_min":153,"x_max":671,"o":"m 153 450 l 153 457 l 208 574 l 671 574 l 671 567 l 616 450 l 153 450 z "},"‑":{"ha":823,"x_min":153,"x_max":671,"o":"m 153 450 l 153 457 l 208 574 l 671 574 l 671 567 l 616 450 l 153 450 z "},"‒":{"ha":823,"x_min":102,"x_max":722,"o":"m 102 450 l 102 457 l 157 574 l 722 574 l 722 567 l 667 450 l 102 450 z "},"–":{"ha":823,"x_min":102,"x_max":722,"o":"m 102 450 l 102 457 l 157 574 l 722 574 l 722 567 l 667 450 l 102 450 z "},"—":{"ha":823,"x_min":17,"x_max":806,"o":"m 17 450 l 17 457 l 72 574 l 806 574 l 806 567 l 751 450 l 17 450 z "},"―":{"ha":823,"x_min":17,"x_max":806,"o":"m 17 450 l 17 457 l 72 574 l 806 574 l 806 567 l 751 450 l 17 450 z "},"‗":{"ha":823,"x_min":102,"x_max":722,"o":"m 102 -123 l 102 -117 l 157 0 l 722 0 l 722 -7 l 667 -123 l 102 -123 m 102 -278 l 102 -271 l 157 -155 l 722 -155 l 722 -161 l 667 -278 l 102 -278 z "},"‘":{"ha":413,"x_min":102,"x_max":311,"o":"m 268 1051 l 297 1017 q 220 871 220 939 q 311 730 220 789 l 182 669 l 176 669 q 102 834 102 741 q 268 1051 102 964 z "},"’":{"ha":413,"x_min":102,"x_max":311,"o":"m 231 1051 l 237 1051 q 311 886 311 979 q 145 669 311 756 l 116 703 q 193 849 193 781 q 102 990 193 931 l 231 1051 z "},"‚":{"ha":413,"x_min":102,"x_max":311,"o":"m 231 189 l 237 189 q 311 23 311 116 q 145 -194 311 -106 l 116 -160 q 193 -14 193 -82 q 102 127 193 68 l 231 189 z "},"‛":{"ha":413,"x_min":102,"x_max":311,"o":"m 176 1051 l 182 1051 l 311 990 q 220 849 220 931 q 297 703 220 781 l 268 669 q 102 886 102 756 q 176 1051 102 979 z "},"“":{"ha":627,"x_min":102,"x_max":525,"o":"m 268 1051 l 297 1017 q 220 871 220 939 q 311 730 220 789 l 182 669 l 176 669 q 102 834 102 741 q 268 1051 102 964 m 481 1051 l 511 1017 q 434 871 434 939 q 525 730 434 789 l 396 669 l 389 669 q 315 834 315 741 q 481 1051 315 964 z "},"”":{"ha":627,"x_min":102,"x_max":525,"o":"m 444 1051 l 451 1051 q 525 886 525 979 q 359 669 525 756 l 330 703 q 406 849 406 781 q 315 990 406 931 l 444 1051 m 231 1051 l 237 1051 q 311 886 311 979 q 145 669 311 756 l 116 703 q 193 849 193 781 q 102 990 193 931 l 231 1051 z "},"„":{"ha":627,"x_min":102,"x_max":525,"o":"m 444 189 l 451 189 q 525 23 525 116 q 359 -194 525 -106 l 330 -160 q 406 -14 406 -82 q 315 127 406 68 l 444 189 m 231 189 l 237 189 q 311 23 311 116 q 145 -194 311 -106 l 116 -160 q 193 -14 193 -82 q 102 127 193 68 l 231 189 z "},"‟":{"ha":627,"x_min":102,"x_max":525,"o":"m 176 1051 q 182 1051 176 1051 l 311 990 q 220 849 220 931 q 297 703 220 781 l 268 669 q 102 886 102 756 q 176 1051 102 979 m 389 1051 l 396 1051 l 525 990 q 434 849 434 931 q 511 703 434 781 l 481 669 q 315 886 315 756 q 389 1051 315 979 z "},"†":{"ha":823,"x_min":102,"x_max":722,"o":"m 351 -27 l 344 -27 l 344 675 l 102 675 l 102 682 l 157 799 l 344 799 l 344 990 l 473 1051 l 479 1051 l 479 799 l 722 799 l 722 792 l 667 675 l 479 675 l 479 34 l 351 -27 z "},"‡":{"ha":823,"x_min":102,"x_max":722,"o":"m 351 -27 l 344 -27 l 344 225 l 102 225 l 102 232 l 157 349 l 344 349 l 344 675 l 102 675 l 102 682 l 157 799 l 344 799 l 344 990 l 473 1051 l 479 1051 l 479 799 l 722 799 l 722 792 l 667 675 l 479 675 l 479 349 l 722 349 l 722 342 l 667 225 l 479 225 l 479 34 l 351 -27 z "},"•":{"ha":766,"x_min":102,"x_max":665,"o":"m 102 511 q 186 706 102 623 q 383 783 264 783 q 581 706 500 783 q 665 511 665 625 q 581 317 665 399 q 383 240 502 240 q 186 317 266 240 q 102 511 102 398 z "},"‣":{"ha":629,"x_min":136,"x_max":562,"o":"m 136 245 l 136 774 l 562 519 l 136 245 z "},"․":{"ha":407,"x_min":122,"x_max":285,"o":"m 146 11 q 134 23 146 11 q 122 70 122 35 q 146 128 122 104 q 203 153 170 153 q 261 128 237 153 q 285 70 285 104 q 261 11 285 35 q 203 -14 237 -14 q 146 11 170 -14 z "},"‥":{"ha":635,"x_min":122,"x_max":513,"o":"m 374 11 q 362 23 374 11 q 350 70 350 35 q 374 128 350 104 q 431 153 397 153 q 489 128 465 153 q 513 70 513 104 q 489 11 513 35 q 431 -14 465 -14 q 374 11 397 -14 m 146 11 q 134 23 146 11 q 122 70 122 35 q 146 128 122 104 q 203 153 170 153 q 261 128 237 153 q 285 70 285 104 q 261 11 285 35 q 203 -14 237 -14 q 146 11 170 -14 z "},"…":{"ha":863,"x_min":122,"x_max":741,"o":"m 602 11 q 590 23 602 11 q 578 70 578 35 q 602 128 578 104 q 659 153 625 153 q 717 128 693 153 q 741 70 741 104 q 717 11 741 35 q 659 -14 693 -14 q 602 11 625 -14 m 374 11 q 362 23 374 11 q 350 70 350 35 q 374 128 350 104 q 431 153 397 153 q 489 128 465 153 q 513 70 513 104 q 489 11 513 35 q 431 -14 465 -14 q 374 11 397 -14 m 146 11 q 134 23 146 11 q 122 70 122 35 q 146 128 122 104 q 203 153 170 153 q 261 128 237 153 q 285 70 285 104 q 261 11 285 35 q 203 -14 237 -14 q 146 11 170 -14 z "},"‧":{"ha":407,"x_min":122,"x_max":285,"o":"m 146 452 q 134 465 146 452 q 122 511 122 477 q 146 570 122 545 q 203 594 170 594 q 261 570 237 594 q 285 511 285 545 q 261 452 285 477 q 203 428 237 428 q 146 452 170 428 z "},"‰":{"ha":2054,"x_min":102,"x_max":1952,"o":"m 1390 258 q 1474 452 1390 370 q 1671 529 1552 529 q 1868 452 1788 529 q 1952 258 1952 371 q 1868 63 1952 146 q 1671 -14 1790 -14 q 1474 63 1554 -14 q 1390 258 1390 144 m 1774 143 q 1796 162 1774 143 q 1817 258 1817 180 q 1774 372 1817 336 q 1671 408 1732 408 q 1568 372 1610 408 q 1525 258 1525 336 q 1568 143 1525 180 q 1671 107 1610 107 q 1774 143 1732 107 m 789 258 q 873 452 789 370 q 1071 529 952 529 q 1268 452 1188 529 q 1352 258 1352 371 q 1268 63 1352 146 q 1071 -14 1190 -14 q 873 63 954 -14 q 789 258 789 144 m 1174 143 q 1195 162 1174 143 q 1217 258 1217 180 q 1174 372 1217 336 q 1071 408 1132 408 q 967 372 1010 408 q 925 258 925 336 q 967 143 925 180 q 1071 107 1010 107 q 1174 143 1132 107 m 102 766 q 186 961 102 878 q 383 1038 264 1038 q 581 961 500 1038 q 665 766 665 880 q 581 572 665 654 q 383 495 502 495 q 186 572 266 495 q 102 766 102 653 m 487 652 q 508 670 487 652 q 529 766 529 688 q 487 881 529 844 q 383 917 444 917 q 280 881 322 917 q 237 766 237 844 q 280 652 237 688 q 383 616 322 616 q 487 652 444 616 m 534 -27 l 439 19 l 920 1051 l 926 1051 l 1022 1005 l 541 -27 l 534 -27 z "},"′":{"ha":461,"x_min":102,"x_max":359,"o":"m 233 1051 l 240 1051 l 359 994 l 188 718 l 181 718 l 102 755 l 233 1051 z "},"″":{"ha":677,"x_min":102,"x_max":575,"o":"m 449 1051 l 456 1051 l 575 994 l 404 718 l 397 718 l 317 755 l 449 1051 m 233 1051 l 240 1051 l 359 994 l 188 718 l 181 718 l 102 755 l 233 1051 z "},"‴":{"ha":892,"x_min":102,"x_max":791,"o":"m 665 1051 l 671 1051 l 791 994 l 619 718 l 612 718 l 533 755 l 665 1051 m 449 1051 l 456 1051 l 575 994 l 404 718 l 397 718 l 317 755 l 449 1051 m 233 1051 l 240 1051 l 359 994 l 188 718 l 181 718 l 102 755 l 233 1051 z "},"‵":{"ha":461,"x_min":102,"x_max":359,"o":"m 221 1051 l 228 1051 l 359 755 l 280 718 l 273 718 l 102 994 l 221 1051 z "},"‶":{"ha":677,"x_min":102,"x_max":575,"o":"m 221 1051 l 228 1051 l 359 755 l 280 718 l 273 718 l 102 994 l 221 1051 m 437 1051 l 444 1051 l 575 755 l 496 718 l 489 718 l 317 994 l 437 1051 z "},"‷":{"ha":892,"x_min":102,"x_max":791,"o":"m 228 1051 l 359 755 l 280 718 l 273 718 l 102 994 l 221 1051 l 228 1051 m 437 1051 l 444 1051 l 575 755 l 496 718 l 489 718 l 317 994 l 437 1051 m 652 1051 l 659 1051 l 791 755 l 711 718 l 705 718 l 533 994 l 652 1051 z "},"‹":{"ha":558,"x_min":102,"x_max":422,"o":"m 298 206 l 102 537 l 298 871 l 304 871 l 422 815 l 258 539 l 422 262 l 304 206 l 298 206 z "},"›":{"ha":558,"x_min":136,"x_max":456,"o":"m 260 206 l 254 206 l 136 262 l 300 539 l 136 815 l 254 871 l 260 871 l 456 537 l 260 206 z "},"⁃":{"ha":802,"x_min":102,"x_max":701,"o":"m 463 827 l 463 625 l 591 699 l 697 625 l 701 619 l 524 517 l 701 416 l 697 410 l 591 336 l 463 410 l 463 262 l 346 208 l 339 208 l 339 410 l 211 336 l 105 410 l 102 416 l 277 517 l 102 619 l 105 625 l 211 699 l 339 625 l 339 772 l 456 827 l 463 827 z "},"⁄":{"ha":661,"x_min":7,"x_max":654,"o":"m 102 -95 l 7 -49 l 551 1119 l 557 1119 l 654 1073 l 109 -95 l 102 -95 z "},"€":{"ha":1073,"x_min":102,"x_max":937,"o":"m 937 373 l 937 326 q 846 85 937 178 q 595 -14 749 -14 q 344 85 440 -14 q 252 326 252 178 l 252 344 l 102 344 l 102 351 l 157 467 l 252 467 l 252 562 l 102 562 l 102 568 l 157 685 l 252 685 l 252 699 q 344 939 252 846 q 595 1038 440 1038 q 846 939 755 1038 q 937 712 937 841 l 808 651 l 802 651 l 802 699 q 753 846 802 789 q 595 916 692 916 q 437 846 497 916 q 388 699 388 789 l 388 685 l 722 685 l 722 678 l 667 562 l 388 562 l 388 467 l 722 467 l 722 460 l 667 344 l 388 344 l 388 326 q 437 178 388 235 q 595 109 497 109 q 753 178 692 109 q 802 312 802 235 l 930 373 l 937 373 z "},"℅":{"ha":1114,"x_min":102,"x_max":1012,"o":"m 962 39 q 829 -14 912 -14 q 695 39 745 -14 q 646 182 646 92 l 646 374 q 695 516 646 464 q 829 570 747 570 q 962 516 911 570 q 1012 374 1012 464 l 1012 182 q 962 39 1012 92 m 828 90 q 890 119 863 90 q 910 182 910 140 l 910 381 q 890 444 910 421 q 829 473 865 473 q 767 444 793 473 q 747 381 747 422 l 747 182 q 767 119 747 140 q 828 90 794 90 m 477 697 l 477 652 q 427 510 477 564 q 285 454 376 454 q 151 507 201 454 q 102 650 102 559 l 102 842 q 151 984 102 932 q 285 1038 203 1038 q 427 981 369 1038 q 477 839 477 931 l 400 802 l 376 802 l 376 849 q 356 912 376 890 q 290 941 330 941 q 223 912 252 941 q 203 849 203 892 l 203 650 q 223 587 203 608 q 290 557 250 557 q 356 587 330 557 q 376 650 376 610 l 376 660 l 454 697 l 477 697 m 365 -27 l 269 19 l 750 1051 l 757 1051 l 852 1005 l 372 -27 l 365 -27 z "},"ℓ":{"ha":751,"x_min":102,"x_max":616,"o":"m 366 456 q 445 666 407 540 q 494 942 494 830 q 416 745 459 885 q 366 456 366 581 m 102 0 q 231 201 170 99 q 225 301 225 248 q 245 497 225 401 q 391 979 326 904 q 522 1038 442 1038 q 583 1016 557 1038 q 616 907 616 989 q 595 741 616 845 q 354 184 548 503 q 414 79 376 79 q 443 95 427 79 q 486 155 464 117 l 605 155 q 509 27 553 68 q 408 -14 465 -14 q 273 55 321 -14 l 238 0 l 102 0 z "},"™":{"ha":1248,"x_min":102,"x_max":1112,"o":"m 247 465 l 247 928 l 102 928 l 102 953 l 136 1024 l 494 1024 l 494 1000 l 460 928 l 349 928 l 349 501 l 271 465 l 247 465 m 481 465 l 481 835 q 531 977 481 925 q 665 1031 583 1031 q 797 979 746 1031 q 929 1030 848 1030 q 1063 977 1011 1030 q 1112 834 1112 924 l 1112 500 l 1034 464 l 1010 464 l 1010 842 q 991 905 1010 882 q 929 934 966 934 q 867 905 894 934 q 848 842 848 883 l 848 501 l 848 500 l 769 464 l 746 465 l 746 842 q 726 905 746 882 q 665 935 701 935 q 603 905 629 935 q 583 842 583 884 l 583 500 l 505 465 l 481 465 z "},"Ω":{"ha":956,"x_min":102,"x_max":854,"o":"m 102 0 l 102 7 l 157 123 l 302 123 l 302 168 q 227 217 260 186 q 136 458 136 304 l 136 699 q 227 939 136 846 q 478 1038 323 1038 q 729 939 629 1038 q 821 699 821 848 l 821 458 q 729 217 821 307 q 654 168 700 189 l 654 123 l 854 123 l 854 117 l 800 0 l 544 0 l 544 250 q 636 311 597 266 q 685 458 685 367 l 685 699 q 636 846 685 789 q 478 916 576 916 q 320 846 380 916 q 271 699 271 789 l 271 458 q 320 311 271 365 q 412 249 362 264 l 412 0 l 102 0 z "},"℮":{"ha":921,"x_min":102,"x_max":819,"o":"m 258 373 l 258 121 q 460 39 340 39 q 728 206 633 39 l 777 177 q 620 25 696 60 q 460 -10 544 -10 q 201 98 300 -10 q 102 373 102 207 q 201 648 102 541 q 460 756 301 756 q 709 660 606 756 q 819 373 812 564 l 258 373 m 663 423 l 663 625 q 459 707 576 707 q 258 624 340 707 l 258 423 l 663 423 z "},"∂":{"ha":859,"x_min":102,"x_max":724,"o":"m 311 0 q 160 62 218 0 q 102 235 102 123 q 205 498 102 377 q 530 656 341 656 q 601 654 553 656 q 589 814 601 755 q 546 928 574 890 q 482 968 516 968 q 402 913 437 968 q 352 785 376 873 l 260 825 q 374 978 307 930 q 505 1024 439 1024 q 659 930 594 1024 q 724 645 724 835 q 665 297 724 454 q 507 73 606 145 q 311 0 407 0 m 331 62 q 431 128 381 62 q 519 267 473 182 q 602 588 581 376 q 525 599 575 599 q 378 512 452 599 q 296 394 329 456 q 245 226 245 301 q 258 119 245 158 q 331 62 277 62 z "},"∆":{"ha":808,"x_min":3,"x_max":804,"o":"m 3 0 l 334 996 l 452 1051 l 458 1051 l 804 0 l 3 0 m 186 123 l 621 123 l 406 824 l 186 123 z "},"∏":{"ha":943,"x_min":136,"x_max":807,"o":"m 142 -305 l 136 -305 l 136 990 l 208 1024 l 807 1024 l 807 -244 l 678 -305 l 671 -305 l 671 901 l 271 901 l 271 -244 l 142 -305 z "},"∑":{"ha":816,"x_min":68,"x_max":714,"o":"m 68 -278 l 392 400 l 68 990 l 140 1024 l 652 1024 l 652 1017 l 597 901 l 260 901 l 545 399 l 263 -155 l 714 -155 l 714 -161 l 659 -278 l 68 -278 z "},"−":{"ha":823,"x_min":102,"x_max":722,"o":"m 102 450 l 102 457 l 157 574 l 722 574 l 722 567 l 667 450 l 102 450 z "},"∕":{"ha":661,"x_min":7,"x_max":654,"o":"m 102 -95 l 7 -49 l 551 1119 l 557 1119 l 654 1073 l 109 -95 l 102 -95 z "},"∗":{"ha":802,"x_min":102,"x_max":701,"o":"m 463 827 l 463 625 l 591 699 l 697 625 l 701 619 l 524 517 l 701 416 l 697 410 l 591 336 l 463 410 l 463 262 l 346 208 l 339 208 l 339 410 l 211 336 l 105 410 l 102 416 l 277 517 l 102 619 l 105 625 l 211 699 l 339 625 l 339 772 l 456 827 l 463 827 z "},"∘":{"ha":766,"x_min":102,"x_max":665,"o":"m 102 511 q 186 706 102 623 q 383 783 264 783 q 581 706 500 783 q 665 511 665 625 q 581 317 665 399 q 383 240 502 240 q 186 317 266 240 q 102 511 102 398 m 487 397 q 508 415 487 397 q 529 511 529 433 q 487 626 529 589 q 383 662 444 662 q 280 626 322 662 q 237 511 237 589 q 280 397 237 433 q 383 361 322 361 q 487 397 444 361 z "},"∙":{"ha":407,"x_min":122,"x_max":285,"o":"m 146 452 q 134 465 146 452 q 122 511 122 477 q 146 570 122 545 q 203 594 170 594 q 261 570 237 594 q 285 511 285 545 q 261 452 285 477 q 203 428 237 428 q 146 452 170 428 z "},"√":{"ha":985,"x_min":68,"x_max":951,"o":"m 356 -27 l 349 -27 l 210 386 l 68 386 l 68 393 l 123 509 l 311 509 l 410 184 l 717 1024 l 951 1024 l 951 1017 l 896 901 l 799 901 l 473 28 l 356 -27 z "},"∛":{"ha":985,"x_min":68,"x_max":951,"o":"m 356 -27 l 349 -27 l 210 386 l 68 386 l 68 393 l 123 509 l 311 509 l 410 184 l 717 1024 l 951 1024 l 951 1017 l 896 901 l 799 901 l 473 28 l 356 -27 m 186 707 l 259 746 l 278 746 l 278 704 q 296 648 278 669 q 357 621 319 621 q 416 648 393 621 q 434 706 434 669 q 420 753 434 736 q 354 777 400 777 l 277 777 l 364 938 l 214 938 l 214 960 l 244 1024 l 512 1024 l 399 849 q 479 815 446 844 q 525 704 525 774 q 479 582 525 628 q 356 536 434 536 q 232 583 278 536 q 186 707 186 629 z "},"∞":{"ha":1194,"x_min":102,"x_max":1093,"o":"m 487 397 q 508 415 487 397 q 529 511 529 433 q 487 626 529 589 q 383 662 444 662 q 280 626 322 662 q 237 511 237 589 q 280 397 237 433 q 383 361 322 361 q 487 397 444 361 m 102 511 q 186 706 102 623 q 383 783 264 783 q 581 706 504 783 q 597 688 589 697 q 614 706 605 697 q 811 783 690 783 q 1008 706 928 783 q 1093 511 1093 625 q 1008 317 1093 399 q 811 240 930 240 q 614 317 690 240 q 597 334 606 325 q 581 317 589 326 q 383 240 504 240 q 186 317 266 240 q 102 511 102 398 m 915 397 q 936 415 915 397 q 957 511 957 433 q 915 626 957 589 q 811 662 872 662 q 708 626 750 662 q 665 511 665 589 q 708 397 665 433 q 811 361 750 361 q 915 397 872 361 z "},"≈":{"ha":772,"x_min":102,"x_max":670,"o":"m 102 269 q 262 514 102 514 q 414 446 353 514 q 500 389 463 389 q 549 459 549 389 l 663 514 l 670 514 q 509 269 670 269 q 358 338 418 269 q 271 394 309 394 q 222 324 222 394 l 109 269 l 102 269 m 102 507 q 262 752 102 752 q 414 684 353 752 q 500 627 463 627 q 549 697 549 627 l 663 752 l 670 752 q 509 507 670 507 q 358 576 418 507 q 271 632 309 632 q 222 562 222 632 l 109 507 l 102 507 z "},"≠":{"ha":823,"x_min":102,"x_max":722,"o":"m 292 136 l 196 182 l 264 327 l 102 327 l 102 334 l 157 450 l 321 450 l 378 574 l 102 574 l 102 581 l 157 697 l 436 697 l 525 888 l 532 888 l 627 842 l 559 697 l 722 697 l 722 690 l 667 574 l 503 574 l 445 450 l 722 450 l 722 444 l 667 327 l 387 327 l 298 136 l 292 136 z "},"≡":{"ha":823,"x_min":102,"x_max":722,"o":"m 102 203 l 102 210 l 157 327 l 722 327 l 722 320 l 667 203 l 102 203 m 102 697 l 102 704 l 157 821 l 722 821 l 722 814 l 667 697 l 102 697 m 102 450 l 102 457 l 157 574 l 722 574 l 722 567 l 667 450 l 102 450 z "},"≤":{"ha":907,"x_min":102,"x_max":772,"o":"m 102 543 l 102 550 l 157 667 l 716 905 l 772 788 l 772 781 l 315 593 l 772 406 l 772 399 l 716 281 l 102 543 m 102 130 l 102 136 l 157 253 l 772 253 l 772 246 l 717 130 l 102 130 z "},"≥":{"ha":907,"x_min":136,"x_max":806,"o":"m 806 655 l 806 648 l 750 531 l 191 293 l 136 410 l 136 417 l 593 605 l 136 793 l 136 800 l 191 917 l 806 655 m 136 130 l 136 136 l 191 253 l 806 253 l 806 246 l 751 130 l 136 130 z "},"◊":{"ha":796,"x_min":81,"x_max":715,"o":"m 408 195 l 576 492 l 393 814 l 222 511 l 408 195 m 398 0 l 81 500 l 398 1024 l 715 503 l 398 0 z "}}}
